<?xml version="1.0" encoding="utf-8"?>
<!-- Generator: Adobe Illustrator 16.0.0, SVG Export Plug-In . SVG Version: 6.00 Build 0)  -->
<!DOCTYPE svg PUBLIC "-//W3C//DTD SVG 1.1//EN" "http://www.w3.org/Graphics/SVG/1.1/DTD/svg11.dtd">
<svg version="1.1" id="Layer_2" xmlns="http://www.w3.org/2000/svg" xmlns:xlink="http://www.w3.org/1999/xlink" x="0px" y="0px"
	 width="22.5px" height="345px" viewBox="0 0 22.5 345" enable-background="new 0 0 22.5 345" xml:space="preserve">
<rect x="5.333" y="3.503" fill="#F8DA0B" width="12.667" height="80"/>
<circle fill="#035D84" cx="11.667" cy="126.836" r="7.656"/>
<circle fill="#035D84" cx="11.667" cy="153.5" r="7.656"/>
<circle fill="#F8DA0B" stroke="#035D84" stroke-width="3" stroke-miterlimit="10" cx="11.667" cy="179.501" r="6.007"/>
<g>
	<path fill="#025D84" d="M18.042,291.207c-0.634,0.634-1.661,0.634-2.294,0L5.292,280.753c-0.634-0.634-0.634-1.661,0-2.295l0,0
		c0.634-0.634,1.661-0.634,2.295,0l10.454,10.454C18.675,289.546,18.675,290.573,18.042,291.207L18.042,291.207z"/>
	<path fill="#025D84" d="M5.292,291.207c-0.633-0.633-0.634-1.661,0-2.294l10.455-10.455c0.633-0.633,1.661-0.633,2.294,0l0,0
		c0.634,0.634,0.634,1.662,0,2.295L7.587,291.207C6.954,291.84,5.927,291.841,5.292,291.207L5.292,291.207z"/>
</g>
<g>
	<g>
		<path fill="#1FEAEE" d="M18.041,340.246c-0.633,0.634-1.66,0.634-2.294,0L5.292,329.792c-0.634-0.634-0.634-1.661,0-2.295l0,0
			c0.634-0.634,1.661-0.634,2.295,0l10.454,10.454C18.675,338.584,18.675,339.612,18.041,340.246L18.041,340.246z"/>
		<path fill="#1FEAEE" d="M5.292,340.245c-0.633-0.633-0.634-1.661,0-2.294l10.455-10.455c0.634-0.633,1.661-0.633,2.294,0l0,0
			c0.635,0.634,0.635,1.662,0,2.295L7.586,340.245C6.953,340.879,5.926,340.879,5.292,340.245L5.292,340.245z"/>
	</g>
</g>
<g>
	<g>
		<path fill="#F8DA0B" d="M18.041,316.541c-0.633,0.634-1.66,0.634-2.294,0L5.292,306.086c-0.634-0.634-0.634-1.661,0-2.295l0,0
			c0.634-0.634,1.661-0.634,2.295,0l10.454,10.454C18.676,314.879,18.676,315.907,18.041,316.541L18.041,316.541z"/>
		<path fill="#F8DA0B" d="M5.292,316.54c-0.633-0.633-0.634-1.661,0-2.294l10.455-10.455c0.634-0.633,1.661-0.633,2.294,0l0,0
			c0.635,0.634,0.635,1.662,0,2.295L7.587,316.54C6.954,317.174,5.927,317.174,5.292,316.54L5.292,316.54z"/>
	</g>
</g>
</svg>
