<svg xmlns="http://www.w3.org/2000/svg" viewBox="0 0 1980.61 1220.95"><defs><style>.cls-1,.cls-11,.cls-3,.cls-5,.cls-6,.cls-7,.cls-9{fill:none;stroke-miterlimit:10;}.cls-1{stroke:#fe7e06;}.cls-1,.cls-5,.cls-9{stroke-width:6px;}.cls-2{fill:#fe2200;}.cls-3,.cls-6,.cls-9{stroke:#398f88;}.cls-3{stroke-width:7px;}.cls-4{fill:#fdb104;}.cls-5{stroke:#fb2100;}.cls-11,.cls-6,.cls-7{stroke-width:5px;}.cls-7{stroke:#fdb104;}.cls-8{fill:#398f88;}.cls-10{fill:#0f2833;}.cls-11{stroke:#0f2833;}</style></defs><title>export-background</title><g id="Layer_2" data-name="Layer 2"><g id="Layer_3" data-name="Layer 3"><circle class="cls-1" cx="77.27" cy="321.13" r="15.11" transform="matrix(0.51, -0.86, 0.86, 0.51, -238.41, 223.97)"/><path class="cls-2" d="M174.2,127.09a2.22,2.22,0,0,1-1.13,2.93h0a2.22,2.22,0,0,1-2.93-1.13l-7.55-17a2.22,2.22,0,0,1,1.13-2.93h0a2.22,2.22,0,0,1,2.93,1.13Z"/><path class="cls-2" d="M160.8,125.29a2.22,2.22,0,0,1-2.93-1.13h0a2.22,2.22,0,0,1,1.13-2.93l17-7.55a2.22,2.22,0,0,1,2.93,1.13h0a2.22,2.22,0,0,1-1.13,2.93Z"/><path class="cls-1" d="M148.94,363.45a1.1,1.1,0,0,1-.32,1.51l-11.35,8.55a1.09,1.09,0,0,1-1.54-.11l-1.83-14.81c-.06-.6.08-.7.35-.9h0c.21-.16.34-.28.84-.1Z"/><path class="cls-1" d="M158.73,158.83a1.62,1.62,0,0,1-.17,2.28l-20.33,17.5a1.62,1.62,0,0,1-2.29-.17l-17.5-20.34a1.62,1.62,0,0,1,.17-2.28l20.34-17.5a1.62,1.62,0,0,1,2.28.17Z"/><circle class="cls-3" cx="176.66" cy="214.29" r="11.68" transform="translate(-97.74 257.09) rotate(-59.36)"/><path class="cls-4" d="M177,288.9a4.28,4.28,0,0,1-2.17,5.65h0a4.28,4.28,0,0,1-5.65-2.17l-14.54-32.75a4.28,4.28,0,0,1,2.17-5.65h0a4.28,4.28,0,0,1,5.65,2.17Z"/><path class="cls-4" d="M151.2,285.44a4.28,4.28,0,0,1-5.65-2.18h0a4.28,4.28,0,0,1,2.17-5.65l32.75-14.54a4.28,4.28,0,0,1,5.65,2.18h0A4.28,4.28,0,0,1,184,270.9Z"/><circle class="cls-1" cx="252.09" cy="515.61" r="24.03" transform="translate(-317.65 446.33) rotate(-57.01)"/><path class="cls-4" d="M97.2,104.73a2.49,2.49,0,0,1,3.23,1.4h0a2.49,2.49,0,0,1-1.4,3.23L79.66,117a2.49,2.49,0,0,1-3.23-1.4h0a2.48,2.48,0,0,1,1.4-3.23Z"/><path class="cls-4" d="M94.58,119.65a2.49,2.49,0,0,1-1.4,3.23h0a2.49,2.49,0,0,1-3.23-1.4l-7.67-19.38a2.49,2.49,0,0,1,1.4-3.23h0a2.49,2.49,0,0,1,3.23,1.4Z"/><path class="cls-5" d="M87.79,204.25a1,1,0,0,1,.58,1.24l-5.45,15.1a1,1,0,0,1-1.24.58l-15.1-5.45a1,1,0,0,1-.58-1.24l5.45-15.1a1,1,0,0,1,1.24-.58Z"/><path class="cls-6" d="M2.53,332a2.14,2.14,0,0,1,1.85-2.37l27.21-5.2A2.13,2.13,0,0,1,34.18,326l-9.53,27.47c-.41,1.09-.75,1.15-1.38,1.27h0c-.5.11-.84.2-1.55-.54Z"/><path class="cls-7" d="M129.48,633.94a1.62,1.62,0,0,1,2.26-.37l21.82,15.62a1.62,1.62,0,0,1,.37,2.26l-15.61,21.82a1.62,1.62,0,0,1-2.26.38L114.23,658a1.62,1.62,0,0,1-.37-2.26Z"/><path class="cls-2" d="M63.91,65.06a2.22,2.22,0,0,1,2.88,1.25h0a2.22,2.22,0,0,1-1.25,2.89L48.25,76a2.22,2.22,0,0,1-2.88-1.25h0a2.22,2.22,0,0,1,1.25-2.88Z"/><path class="cls-2" d="M61.57,78.38a2.22,2.22,0,0,1-1.25,2.88h0A2.22,2.22,0,0,1,57.44,80l-6.85-17.3a2.22,2.22,0,0,1,1.25-2.88h0a2.22,2.22,0,0,1,2.88,1.25Z"/><path class="cls-8" d="M121.2,246.65a2.22,2.22,0,0,1,2.88,1.25h0a2.22,2.22,0,0,1-1.25,2.88l-17.3,6.85a2.22,2.22,0,0,1-2.88-1.25h0a2.22,2.22,0,0,1,1.25-2.88Z"/><path class="cls-8" d="M118.85,260a2.22,2.22,0,0,1-1.25,2.88h0a2.22,2.22,0,0,1-2.88-1.25l-6.85-17.3a2.22,2.22,0,0,1,1.25-2.88h0a2.22,2.22,0,0,1,2.88,1.25Z"/><circle class="cls-9" cx="94.75" cy="58.26" r="8.21" transform="translate(-5.71 106.02) rotate(-57.01)"/><path class="cls-1" d="M28.7,17.25a1.29,1.29,0,0,1,.09-1.81l11.62-12a1.28,1.28,0,0,1,1.8-.15L47,20.15c.18.68,0,.83-.24,1.11h0c-.21.22-.34.39-1,.27Z"/><circle class="cls-1" cx="23.73" cy="434.96" r="9.08" transform="translate(-354.02 218.02) rotate(-57.01)"/><path class="cls-1" d="M150.45,551.44a2.14,2.14,0,0,1-2-2.26l-.12-27.8a2.14,2.14,0,0,1,2-2.28l25.34,14.46c1,.61,1,1,1,1.6h0c0,.51,0,.87-.82,1.43Z"/><path class="cls-6" d="M204.08,456.94a1.31,1.31,0,0,1,.94-1.6l21.09-5.5a1.32,1.32,0,0,1,1.6.94l5.5,21.09a1.32,1.32,0,0,1-.94,1.6L211.18,479a1.31,1.31,0,0,1-1.6-.94Z"/><path class="cls-10" d="M71,589.1a2.22,2.22,0,0,1,2.28,2.16h0a2.22,2.22,0,0,1-2.16,2.29l-18.6.52a2.22,2.22,0,0,1-2.28-2.16h0a2.22,2.22,0,0,1,2.16-2.28Z"/><path class="cls-10" d="M64.21,600.82a2.23,2.23,0,0,1-2.16,2.28h0a2.22,2.22,0,0,1-2.29-2.16l-.52-18.6a2.22,2.22,0,0,1,2.16-2.29h0a2.22,2.22,0,0,1,2.28,2.16Z"/><path class="cls-5" d="M83.54,510.17a1.29,1.29,0,0,1,.76-1.64l15.28-6.73a1.28,1.28,0,0,1,1.73.54l-1.88,17.42c-.1.7-.28.78-.64.93h0c-.28.13-.47.23-1-.11Z"/><circle class="cls-5" cx="154.47" cy="474.35" r="9.08" transform="translate(-327.51 345.66) rotate(-57.01)"/><path class="cls-11" d="M168.52,420.49a.66.66,0,0,1,.15-.92l8.84-6.37a.66.66,0,0,1,.92.15l6.37,8.84a.66.66,0,0,1-.15.92l-8.84,6.37a.65.65,0,0,1-.92-.15Z"/><path class="cls-4" d="M46,502.07a2.49,2.49,0,0,1-.35,3.5h0a2.49,2.49,0,0,1-3.5-.35L28.93,489.1a2.49,2.49,0,0,1,.35-3.5h0a2.49,2.49,0,0,1,3.5.35Z"/><path class="cls-4" d="M31,504.11a2.48,2.48,0,0,1-3.5-.35h0a2.49,2.49,0,0,1,.35-3.5l16.13-13.2a2.49,2.49,0,0,1,3.5.35h0a2.48,2.48,0,0,1-.35,3.5Z"/><path class="cls-6" d="M108.91,421.34a2.14,2.14,0,0,1,1.78,2.42l-2.31,27.6a2.13,2.13,0,0,1-2.15,2.09L82.33,436.88c-.94-.69-.91-1-.85-1.67h0c0-.51,0-.86.94-1.35Z"/><circle class="cls-1" cx="83.94" cy="158.47" r="9.08" transform="translate(-91.05 197.67) rotate(-74.72)"/><path class="cls-11" d="M133.37,57.41a.66.66,0,0,1,.15-.92l8.84-6.37a.66.66,0,0,1,.92.15l6.37,8.84a.66.66,0,0,1-.15.92l-8.84,6.37a.66.66,0,0,1-.92-.15Z"/><path class="cls-5" d="M121.4,95.69a1.29,1.29,0,0,1,.76-1.64l15.28-6.73a1.28,1.28,0,0,1,1.73.54l-1.88,17.42c-.1.7-.28.78-.64.93h0c-.28.13-.47.23-1-.11Z"/><path class="cls-10" d="M97.28,15.11a2.22,2.22,0,0,1,2.28,2.16h0a2.22,2.22,0,0,1-2.16,2.29l-18.6.52a2.22,2.22,0,0,1-2.28-2.16h0a2.22,2.22,0,0,1,2.16-2.28Z"/><path class="cls-10" d="M90.53,26.83a2.23,2.23,0,0,1-2.16,2.28h0A2.22,2.22,0,0,1,86.08,27l-.52-18.6a2.22,2.22,0,0,1,2.16-2.29h0A2.22,2.22,0,0,1,90,8.23Z"/><path class="cls-4" d="M73.34,402.44a4.28,4.28,0,0,1-2.17,5.65h0a4.28,4.28,0,0,1-5.65-2.18L51,373.16a4.28,4.28,0,0,1,2.17-5.65h0a4.28,4.28,0,0,1,5.65,2.18Z"/><path class="cls-4" d="M47.52,399a4.28,4.28,0,0,1-5.65-2.18h0A4.28,4.28,0,0,1,44,391.16L76.8,376.62a4.28,4.28,0,0,1,5.65,2.18h0a4.28,4.28,0,0,1-2.17,5.65Z"/><circle class="cls-5" cx="28.38" cy="258.98" r="9.08" transform="translate(-204.31 141.79) rotate(-57.01)"/><path class="cls-1" d="M234,651.41a1.1,1.1,0,0,1-.32,1.51l-11.35,8.55a1.09,1.09,0,0,1-1.54-.11l-1.83-14.81c-.06-.6.08-.7.35-.9h0c.21-.16.34-.28.84-.1Z"/><path class="cls-10" d="M241.5,574a6.66,6.66,0,0,1,8.82,3.29h0a6.67,6.67,0,0,1-3.3,8.83l-50.71,23.14a6.66,6.66,0,0,1-8.82-3.29h0a6.66,6.66,0,0,1,3.3-8.83Z"/><path class="cls-10" d="M236.54,614.17a6.67,6.67,0,0,1-3.3,8.82h0a6.65,6.65,0,0,1-8.82-3.29L201.28,569a6.66,6.66,0,0,1,3.29-8.82h0a6.66,6.66,0,0,1,8.82,3.29Z"/><path class="cls-5" d="M98.33,581.69a18.16,18.16,0,1,1,5.34,25.12A18.16,18.16,0,0,1,98.33,581.69Z"/><path class="cls-4" d="M218.44,715.55a4.28,4.28,0,0,1-.74,6h0a4.28,4.28,0,0,1-6-.74l-22.06-28.25a4.28,4.28,0,0,1,.74-6h0a4.28,4.28,0,0,1,6,.74Z"/><path class="cls-4" d="M192.55,718.46a4.28,4.28,0,0,1-6-.74h0a4.28,4.28,0,0,1,.74-6l28.25-22.06a4.28,4.28,0,0,1,6,.74h0a4.28,4.28,0,0,1-.74,6Z"/><path class="cls-6" d="M244.95,715a1.32,1.32,0,0,1,.94-1.6L267,707.9a1.32,1.32,0,0,1,1.6.94l5.5,21.09a1.32,1.32,0,0,1-.94,1.6L252.05,737a1.31,1.31,0,0,1-1.6-.94Z"/><circle class="cls-1" cx="1903.33" cy="899.8" r="15.11" transform="translate(158.64 2078.09) rotate(-59.34)"/><path class="cls-2" d="M1806.3,1093.8a2.21,2.21,0,0,1,1.13-2.93h0a2.22,2.22,0,0,1,2.93,1.13l7.54,17a2.22,2.22,0,0,1-1.13,2.93h0a2.22,2.22,0,0,1-2.93-1.13Z"/><path class="cls-2" d="M1819.7,1095.6a2.22,2.22,0,0,1,2.93,1.13h0a2.22,2.22,0,0,1-1.13,2.93l-17,7.54a2.23,2.23,0,0,1-2.93-1.13h0a2.22,2.22,0,0,1,1.13-2.93Z"/><path class="cls-1" d="M1831.68,857.45a1.09,1.09,0,0,1,.32-1.51l11.36-8.55a1.1,1.1,0,0,1,1.54.11l1.82,14.81c.06.6-.08.7-.35.9h0c-.21.16-.34.28-.84.1Z"/><path class="cls-1" d="M1821.79,1062.06a1.62,1.62,0,0,1,.17-2.28l20.34-17.49a1.62,1.62,0,0,1,2.28.17l17.49,20.34a1.62,1.62,0,0,1-.17,2.28l-20.35,17.49a1.62,1.62,0,0,1-2.28-.17Z"/><circle class="cls-3" cx="1803.88" cy="1006.6" r="11.68" transform="translate(18.03 2044.85) rotate(-59.33)"/><path class="cls-4" d="M1803.56,932a4.28,4.28,0,0,1,2.18-5.65h0a4.28,4.28,0,0,1,5.65,2.18l14.53,32.76a4.28,4.28,0,0,1-2.18,5.64h0a4.28,4.28,0,0,1-5.65-2.17Z"/><path class="cls-4" d="M1829.38,935.45a4.28,4.28,0,0,1,5.65,2.18h0a4.28,4.28,0,0,1-2.18,5.65l-32.76,14.53a4.28,4.28,0,0,1-5.65-2.18h0a4.28,4.28,0,0,1,2.18-5.65Z"/><circle class="cls-1" cx="1728.61" cy="705.24" r="24.03" transform="translate(195.36 1770.41) rotate(-56.98)"/><path class="cls-4" d="M1883.28,1116.19a2.48,2.48,0,0,1-3.23-1.4h0a2.49,2.49,0,0,1,1.4-3.23l19.38-7.66a2.49,2.49,0,0,1,3.23,1.4h0a2.49,2.49,0,0,1-1.4,3.23Z"/><path class="cls-4" d="M1885.92,1101.27a2.49,2.49,0,0,1,1.4-3.23h0a2.49,2.49,0,0,1,3.23,1.4l7.66,19.38a2.49,2.49,0,0,1-1.4,3.23h0a2.49,2.49,0,0,1-3.23-1.4Z"/><path class="cls-5" d="M1892.75,1016.68a1,1,0,0,1-.58-1.24l5.46-15.1a1,1,0,0,1,1.24-.58l15.1,5.46a1,1,0,0,1,.58,1.24l-5.46,15.1a1,1,0,0,1-1.24.58Z"/><path class="cls-6" d="M1978.08,888.95a2.14,2.14,0,0,1-1.85,2.36L1949,896.49a2.13,2.13,0,0,1-2.59-1.52l9.54-27.46c.41-1.09.75-1.15,1.38-1.27h0c.5-.1.84-.2,1.55.54Z"/><path class="cls-7" d="M1851.28,587a1.62,1.62,0,0,1-2.26.37l-21.81-15.63a1.61,1.61,0,0,1-.37-2.26l15.62-21.81a1.62,1.62,0,0,1,2.26-.37l21.81,15.63a1.62,1.62,0,0,1,.37,2.26Z"/><path class="cls-2" d="M1916.56,1155.88a2.22,2.22,0,0,1-2.88-1.25h0a2.22,2.22,0,0,1,1.25-2.88l17.3-6.84a2.22,2.22,0,0,1,2.89,1.25h0a2.22,2.22,0,0,1-1.25,2.88Z"/><path class="cls-2" d="M1918.9,1142.56a2.23,2.23,0,0,1,1.25-2.88h0a2.22,2.22,0,0,1,2.88,1.25l6.84,17.3a2.22,2.22,0,0,1-1.25,2.88h0a2.22,2.22,0,0,1-2.88-1.25Z"/><path class="cls-8" d="M1859.37,974.26a2.22,2.22,0,0,1-2.88-1.25h0a2.22,2.22,0,0,1,1.25-2.88l17.3-6.84a2.22,2.22,0,0,1,2.88,1.25h0a2.22,2.22,0,0,1-1.25,2.88Z"/><path class="cls-8" d="M1861.72,960.94a2.22,2.22,0,0,1,1.25-2.88h0a2.22,2.22,0,0,1,2.88,1.25l6.84,17.3a2.22,2.22,0,0,1-1.25,2.88h0a2.22,2.22,0,0,1-2.88-1.25Z"/><circle class="cls-9" cx="1885.71" cy="1162.66" r="8.21" transform="translate(-116.73 2110.26) rotate(-56.98)"/><path class="cls-1" d="M1951.74,1203.71a1.29,1.29,0,0,1-.09,1.81l-11.62,12a1.28,1.28,0,0,1-1.8.15l-4.81-16.85c-.17-.68,0-.83.24-1.11h0c.21-.22.34-.39,1-.27Z"/><circle class="cls-1" cx="1956.93" cy="786" r="9.08" transform="translate(231.48 1998.51) rotate(-56.98)"/><path class="cls-1" d="M1830.27,669.46a2.14,2.14,0,0,1,2,2.26l.1,27.8a2.14,2.14,0,0,1-2,2.28l-25.33-14.47c-1-.61-1-1-1-1.6h0c0-.51,0-.87.82-1.43Z"/><path class="cls-6" d="M1776.59,763.93a1.31,1.31,0,0,1-.94,1.6l-21.1,5.49a1.31,1.31,0,0,1-1.6-.94l-5.49-21.1a1.32,1.32,0,0,1,.94-1.6l21.1-5.49a1.31,1.31,0,0,1,1.6.94Z"/><path class="cls-10" d="M1909.78,631.84a2.22,2.22,0,0,1-2.28-2.16h0a2.22,2.22,0,0,1,2.16-2.28l18.6-.51a2.22,2.22,0,0,1,2.28,2.16h0a2.22,2.22,0,0,1-2.16,2.29Z"/><path class="cls-10" d="M1916.54,620.12a2.23,2.23,0,0,1,2.16-2.28h0A2.22,2.22,0,0,1,1921,620l.51,18.6a2.22,2.22,0,0,1-2.16,2.29h0a2.23,2.23,0,0,1-2.28-2.16Z"/><path class="cls-5" d="M1897.15,710.76a1.29,1.29,0,0,1-.77,1.64l-15.28,6.72a1.28,1.28,0,0,1-1.73-.54l1.89-17.42c.1-.7.28-.78.64-.93h0c.28-.13.47-.23,1,.11Z"/><circle class="cls-5" cx="1826.21" cy="746.55" r="9.08" transform="translate(205.15 1871.07) rotate(-56.98)"/><path class="cls-11" d="M1812.13,800.4a.66.66,0,0,1-.15.92l-8.84,6.37a.66.66,0,0,1-.92-.15l-6.37-8.85a.65.65,0,0,1,.15-.92l8.85-6.37a.66.66,0,0,1,.92.15Z"/><path class="cls-4" d="M1934.72,718.88a2.49,2.49,0,0,1,.35-3.5h0a2.49,2.49,0,0,1,3.5.35l13.19,16.13a2.49,2.49,0,0,1-.35,3.5h0a2.49,2.49,0,0,1-3.5-.35Z"/><path class="cls-4" d="M1949.73,716.85a2.48,2.48,0,0,1,3.5.36h0a2.49,2.49,0,0,1-.35,3.5l-16.13,13.19a2.49,2.49,0,0,1-3.5-.36h0a2.48,2.48,0,0,1,.35-3.5Z"/><path class="cls-6" d="M1871.74,799.58a2.14,2.14,0,0,1-1.78-2.42l2.33-27.6a2.13,2.13,0,0,1,2.16-2.09L1898.33,784c.94.7.91,1,.85,1.67h0c0,.51,0,.86-.94,1.35Z"/><circle class="cls-1" cx="1896.57" cy="1062.46" r="9.08" transform="translate(370.9 2611.05) rotate(-74.68)"/><path class="cls-11" d="M1847.1,1163.49a.66.66,0,0,1-.15.92l-8.85,6.37a.65.65,0,0,1-.92-.15l-6.37-8.85a.66.66,0,0,1,.15-.92l8.85-6.37a.65.65,0,0,1,.92.15Z"/><path class="cls-5" d="M1859.09,1125.22a1.29,1.29,0,0,1-.77,1.64l-15.28,6.72a1.28,1.28,0,0,1-1.73-.54l1.89-17.42c.1-.7.28-.78.64-.93h0c.28-.13.47-.23,1,.11Z"/><path class="cls-10" d="M1883.16,1205.81a2.22,2.22,0,0,1-2.28-2.16h0a2.22,2.22,0,0,1,2.16-2.28l18.6-.51a2.22,2.22,0,0,1,2.28,2.16h0a2.23,2.23,0,0,1-2.16,2.28Z"/><path class="cls-10" d="M1889.92,1194.1a2.23,2.23,0,0,1,2.16-2.28h0a2.22,2.22,0,0,1,2.28,2.16l.51,18.6a2.22,2.22,0,0,1-2.16,2.28h0a2.22,2.22,0,0,1-2.28-2.16Z"/><path class="cls-4" d="M1907.3,818.49a4.28,4.28,0,0,1,2.18-5.65h0a4.28,4.28,0,0,1,5.65,2.18l14.53,32.76a4.28,4.28,0,0,1-2.18,5.65h0a4.28,4.28,0,0,1-5.65-2.18Z"/><path class="cls-4" d="M1933.12,822a4.28,4.28,0,0,1,5.65,2.18h0a4.28,4.28,0,0,1-2.18,5.65l-32.76,14.53a4.28,4.28,0,0,1-5.65-2.18h0a4.28,4.28,0,0,1,2.18-5.65Z"/><circle class="cls-5" cx="1952.19" cy="961.98" r="9.08" transform="translate(81.82 2074.7) rotate(-56.98)"/><path class="cls-1" d="M1746.82,569.44a1.09,1.09,0,0,1,.32-1.51l11.36-8.55a1.09,1.09,0,0,1,1.54.11l1.82,14.81c.06.6-.08.7-.35.9h0c-.21.16-.34.28-.84.1Z"/><path class="cls-10" d="M1739.23,646.89a6.66,6.66,0,0,1-8.82-3.29h0a6.67,6.67,0,0,1,3.3-8.82l50.72-23.11a6.65,6.65,0,0,1,8.82,3.29h0a6.66,6.66,0,0,1-3.3,8.82Z"/><path class="cls-10" d="M1744.21,606.68a6.67,6.67,0,0,1,3.3-8.82h0a6.65,6.65,0,0,1,8.82,3.29l23.11,50.72a6.66,6.66,0,0,1-3.3,8.82h0a6.66,6.66,0,0,1-8.82-3.3Z"/><path class="cls-5" d="M1882.41,639.23a18.16,18.16,0,1,1-5.33-25.12A18.16,18.16,0,0,1,1882.41,639.23Z"/><path class="cls-4" d="M1762.37,505.31a4.28,4.28,0,0,1,.74-6h0a4.28,4.28,0,0,1,6,.74l22,28.26a4.28,4.28,0,0,1-.74,6h0a4.28,4.28,0,0,1-6-.74Z"/><path class="cls-4" d="M1788.26,502.41a4.28,4.28,0,0,1,6,.75h0a4.28,4.28,0,0,1-.74,6l-28.26,22a4.28,4.28,0,0,1-6-.74h0a4.28,4.28,0,0,1,.74-6Z"/><path class="cls-6" d="M1735.86,505.85a1.31,1.31,0,0,1-.94,1.6l-21.1,5.49a1.31,1.31,0,0,1-1.6-.94l-5.49-21.1a1.32,1.32,0,0,1,.94-1.6l21.1-5.49a1.31,1.31,0,0,1,1.6.94Z"/></g></g></svg>