<?xml version="1.0" encoding="utf-8"?>
<!-- Generator: Adobe Illustrator 16.0.0, SVG Export Plug-In . SVG Version: 6.00 Build 0)  -->
<!DOCTYPE svg PUBLIC "-//W3C//DTD SVG 1.1//EN" "http://www.w3.org/Graphics/SVG/1.1/DTD/svg11.dtd">
<svg version="1.1" id="Layer_1" xmlns="http://www.w3.org/2000/svg" xmlns:xlink="http://www.w3.org/1999/xlink" x="0px" y="0px"
	 width="200px" height="200px" viewBox="0 0 200 200" enable-background="new 0 0 200 200" xml:space="preserve">
<g>
	<path fill="#F69320" d="M54.149,145.859c-15.092,7.153-33.129,0.722-40.283-14.372c-7.156-15.092-0.72-33.13,14.371-40.284
		l-3.208-6.767C6.2,93.362-1.828,115.865,7.098,134.695c8.928,18.832,31.429,26.858,50.259,17.933
		c11.879-5.632,19.454-16.666,21.189-28.774l-8.618,4.084C67.438,135.547,61.954,142.16,54.149,145.859z"/>
	<path fill="#F69320" d="M120.979,38.95l-0.003,0l3.21,6.768l0.002,0c15.094-7.156,33.128-0.72,40.282,14.374
		c7.155,15.092,0.723,33.127-14.372,40.282c-7.803,3.7-16.396,3.758-23.862,0.872l-8.62,4.086c10.472,6.321,23.81,7.442,35.69,1.81
		c18.831-8.926,26.859-31.427,17.932-50.257C162.312,38.053,139.811,30.024,120.979,38.95z"/>
	
		<rect x="21.379" y="61.299" transform="matrix(0.9036 -0.4284 0.4284 0.9036 -20.6828 38.2691)" fill="#F69320" width="106.622" height="7.583"/>
	<path fill="#F69320" d="M70.052,127.882l7.203,1.723c0,0,1.491-5.332,4.062-6.55c9.061-4.296,23.139-11.234,32.978-15.898
		c3.417-1.62,8.59,0.818,8.59,0.818l3.352-6.729c0,0-8.685-4.275-12.953-2.252c-14.274,6.769-18.254,8.655-36.373,17.244
		C72.674,118.246,70.052,127.882,70.052,127.882z"/>
	<circle fill="none" stroke="#F8B617" stroke-width="3" stroke-miterlimit="10" cx="131.667" cy="60.94" r="6.59"/>
	<circle fill="none" stroke="#EB4824" stroke-width="3" stroke-miterlimit="10" cx="149.608" cy="68.017" r="6.59"/>
	<path fill="none" stroke="#159EA3" stroke-width="3" stroke-miterlimit="10" d="M149.604,83.392
		c1.562,3.29,0.157,7.221-3.133,8.779c-3.287,1.559-7.219,0.157-8.776-3.133c-1.561-3.288-0.156-7.22,3.131-8.777
		C144.116,78.701,148.045,80.104,149.604,83.392z"/>
	<circle fill="none" stroke="#F69321" stroke-width="3" stroke-miterlimit="10" cx="125.287" cy="79.548" r="6.591"/>
	<path fill="none" stroke="#EB4824" stroke-width="3" stroke-miterlimit="10" d="M40.185,130.39c-0.167-0.358,0.03-0.807,0.44-0.998
		l9.096-4.246c0.41-0.19,0.878-0.06,1.047,0.303l-0.904,10.499c-0.047,0.42-0.161,0.471-0.373,0.569l0,0
		c-0.167,0.082-0.276,0.146-0.593-0.054L40.185,130.39z"/>
	<path fill="none" stroke="#EB4824" stroke-width="3" stroke-miterlimit="10" d="M30.346,118.139
		c0.36-0.166,0.807,0.028,0.997,0.438l4.249,9.098c0.189,0.41,0.058,0.879-0.302,1.048l-10.5-0.905
		c-0.422-0.047-0.471-0.16-0.57-0.373l0,0c-0.081-0.167-0.146-0.276,0.053-0.594L30.346,118.139z"/>
	<path fill="none" stroke="#EB4824" stroke-width="3" stroke-miterlimit="10" d="M42.531,108.072c0.167,0.358-0.03,0.807-0.44,0.995
		l-9.097,4.249c-0.41,0.189-0.878,0.057-1.047-0.301l0.905-10.5c0.047-0.423,0.159-0.473,0.372-0.569l0,0
		c0.167-0.083,0.277-0.147,0.594,0.052L42.531,108.072z"/>
	<path fill="none" stroke="#EB4824" stroke-width="3" stroke-miterlimit="10" d="M52.838,120.402
		c-0.359,0.168-0.808-0.029-0.997-0.44l-4.249-9.097c-0.191-0.411-0.057-0.878,0.302-1.047l10.5,0.905
		c0.421,0.047,0.471,0.16,0.569,0.371l0,0c0.083,0.167,0.147,0.278-0.053,0.595L52.838,120.402z"/>
	<path fill="#FAB616" d="M76.215,99.891c-0.4,0.187-0.812,0.159-0.914-0.064l-2.298-4.921c-0.103-0.22,0.136-0.549,0.537-0.74
		l10.446-1.735c0.418-0.064,0.441-0.001,0.495,0.112l0,0c0.044,0.09,0.086,0.146-0.185,0.396L76.215,99.891z"/>
	<path fill="#1B9FA3" d="M103.688,86.526c0.079,0.172-0.108,0.429-0.418,0.571l-9.325,4.364c-0.31,0.145-0.626,0.125-0.707-0.044
		l-2.392-5.114c-0.081-0.172,0.107-0.427,0.416-0.572l9.326-4.362c0.309-0.146,0.628-0.125,0.708,0.045L103.688,86.526z"/>
	<g>
		<path fill="#EB4824" d="M74.535,83.702l-2.578-5.438l2.164-1.026c0.61-0.289,1.162-0.37,1.656-0.243
			c0.494,0.13,0.883,0.494,1.168,1.095c0.583,1.231,0.233,2.151-1.05,2.76l-0.801,0.379l0.855,1.804L74.535,83.702z M73.911,78.732
			l0.643,1.356l0.238-0.113c0.134-0.064,0.236-0.113,0.305-0.149c0.068-0.035,0.151-0.091,0.248-0.166
			c0.097-0.076,0.161-0.147,0.193-0.216c0.032-0.068,0.049-0.154,0.049-0.261c0-0.105-0.031-0.225-0.093-0.354
			c-0.064-0.136-0.136-0.238-0.217-0.309c-0.081-0.07-0.159-0.118-0.234-0.14c-0.076-0.024-0.17-0.021-0.284,0.005
			c-0.113,0.028-0.209,0.057-0.286,0.086c-0.077,0.032-0.185,0.079-0.325,0.146L73.911,78.732z"/>
		<path fill="#EB4824" d="M78.139,75.333l2.01,4.24l1.695-0.804l0.568,1.198l-3.109,1.474l-2.578-5.438L78.139,75.333z"/>
		<path fill="#EB4824" d="M85.757,77.224l-1.948,0.923l0.073,1.123l-1.5,0.711l-0.486-6.43l1.543-0.732l4.626,4.467l-1.507,0.715
			L85.757,77.224z M84.862,76.323l-1.397-1.458l-0.015,0.007l0.236,2.008L84.862,76.323z"/>
		<path fill="#EB4824" d="M87.81,74.211l-3.345-1.877l1.695-0.803l1.718,0.995l0.316-1.959l1.695-0.804l-0.665,3.778l1.238,2.611
			l-1.414,0.67L87.81,74.211z"/>
	</g>
	<circle fill="#F69321" cx="125.287" cy="79.624" r="3.03"/>
	<circle fill="#1B9FA3" cx="143.65" cy="86.216" r="3.03"/>
	<circle fill="#EB4824" cx="149.711" cy="68.018" r="3.03"/>
	<circle fill="#FAB616" cx="131.667" cy="60.94" r="3.03"/>
	<path fill="#EB4824" d="M52.77,115.7c-0.102,0.048-0.228-0.008-0.281-0.124l-1.2-2.569c-0.054-0.116-0.016-0.248,0.085-0.296
		l2.966,0.256c0.119,0.014,0.133,0.046,0.161,0.105l0,0c0.023,0.047,0.042,0.078-0.015,0.167L52.77,115.7z"/>
	<path fill="#EB4824" d="M37.776,108.008c0.048,0.102-0.008,0.228-0.124,0.281l-2.569,1.2c-0.116,0.054-0.248,0.016-0.296-0.086
		l0.256-2.966c0.014-0.119,0.046-0.133,0.105-0.16l0,0c0.047-0.023,0.078-0.042,0.167,0.015L37.776,108.008z"/>
	<path fill="#EB4824" d="M44.774,130.229c-0.048-0.102,0.008-0.228,0.124-0.281l2.569-1.2c0.116-0.054,0.248-0.016,0.296,0.086
		l-0.256,2.966c-0.014,0.119-0.046,0.133-0.105,0.16l0,0c-0.047,0.023-0.078,0.042-0.167-0.015L44.774,130.229z"/>
	<path fill="#EB4824" d="M30.441,122.73c0.102-0.048,0.228,0.008,0.281,0.124l1.2,2.569c0.054,0.116,0.016,0.248-0.086,0.296
		l-2.966-0.256c-0.119-0.014-0.133-0.046-0.16-0.105l0,0c-0.023-0.047-0.042-0.078,0.015-0.167L30.441,122.73z"/>
</g>
<path fill="none" stroke="#F69321" stroke-width="3" stroke-miterlimit="10" d="M74.839,64.254c0,0-4.397-16.183-26.914-18.497
	c-22.516-2.312-15.333-21.836,5.996-19.01c21.33,2.827,31.091,8.478,47.425,1.284c16.333-7.192,41.868-14.386,63.289,2.314
	c21.421,16.698,7.199,38.416,20.327,48.076c17.571,12.933,8.694,26.799-1.586,26.558c-16.462-0.388-27.174,9.05-23.584,25.849
	c7.144,33.429-32.703,22.729-42.176,27.61"/>
<g>
	<g>
		<g>
			<path fill="#EB4824" d="M113.876,169.149c-0.79,1.229-2.418,1.584-3.643,0.797l0,0c-1.226-0.787-1.583-2.415-0.798-3.643
				l11.922-18.576c0.784-1.228,2.418-1.58,3.644-0.796l0,0c1.223,0.784,1.576,2.416,0.792,3.645L113.876,169.149z"/>
		</g>
		<g>
			<path fill="#EB4824" d="M106.902,154.696c-1.226-0.785-1.581-2.415-0.792-3.639l0,0c0.784-1.229,2.412-1.583,3.641-0.799
				l18.575,11.917c1.229,0.791,1.582,2.421,0.795,3.646l0,0c-0.784,1.228-2.415,1.58-3.642,0.794L106.902,154.696z"/>
		</g>
	</g>
</g>
<g>
	<g>
		<g>
			<path fill="#FAB616" d="M114.722,120.447c-0.567,0.177-1.17-0.138-1.347-0.705l0,0c-0.177-0.565,0.138-1.168,0.704-1.347
				l8.588-2.685c0.566-0.179,1.169,0.139,1.347,0.704l0,0c0.177,0.566-0.14,1.168-0.706,1.347L114.722,120.447z"/>
		</g>
		<g>
			<path fill="#FAB616" d="M116.326,114.105c-0.179-0.566,0.138-1.169,0.704-1.345l0,0c0.567-0.178,1.168,0.137,1.348,0.703
				l2.686,8.587c0.177,0.568-0.14,1.17-0.706,1.348l0,0c-0.566,0.178-1.169-0.14-1.347-0.706L116.326,114.105z"/>
		</g>
	</g>
</g>
<g>
	<g>
		<g>
			<path fill="#EB4824" d="M85.409,137.274c-0.867,0.27-1.787-0.211-2.057-1.077l0,0c-0.27-0.863,0.21-1.784,1.076-2.057
				l13.117-4.101c0.865-0.273,1.785,0.212,2.057,1.075l0,0c0.27,0.865-0.213,1.784-1.078,2.057L85.409,137.274z"/>
		</g>
		<g>
			<path fill="#EB4824" d="M87.859,127.588c-0.273-0.865,0.21-1.785,1.076-2.054l0,0c0.867-0.271,1.784,0.209,2.058,1.074
				l4.102,13.115c0.27,0.867-0.213,1.786-1.079,2.058l0,0c-0.865,0.271-1.785-0.213-2.057-1.078L87.859,127.588z"/>
		</g>
	</g>
</g>
<g>
	<g>
		<g>
			<path fill="#EB4824" d="M35.512,56.715c-0.567,0.177-1.17-0.138-1.347-0.705l0,0c-0.177-0.565,0.138-1.168,0.704-1.347
				l8.588-2.685c0.566-0.179,1.169,0.139,1.347,0.704l0,0c0.177,0.566-0.14,1.168-0.706,1.347L35.512,56.715z"/>
		</g>
		<g>
			<path fill="#EB4824" d="M37.116,50.374c-0.179-0.566,0.138-1.169,0.704-1.345l0,0c0.567-0.178,1.168,0.137,1.348,0.703
				l2.686,8.587c0.177,0.568-0.14,1.17-0.706,1.348l0,0c-0.566,0.178-1.169-0.14-1.347-0.706L37.116,50.374z"/>
		</g>
	</g>
</g>
<g>
	<g>
		<g>
			<path fill="#FAB616" d="M77.619,43.92c-0.319-0.146-0.46-0.522-0.314-0.841l0,0c0.146-0.318,0.521-0.459,0.841-0.314l4.836,2.209
				c0.319,0.145,0.459,0.522,0.314,0.841l0,0c-0.146,0.319-0.522,0.458-0.842,0.313L77.619,43.92z"/>
		</g>
		<g>
			<path fill="#FAB616" d="M80.827,41.764c0.146-0.319,0.522-0.459,0.841-0.313l0,0c0.319,0.146,0.459,0.521,0.315,0.841
				l-2.208,4.836c-0.147,0.319-0.523,0.459-0.843,0.313l0,0c-0.319-0.145-0.459-0.522-0.313-0.842L80.827,41.764z"/>
		</g>
	</g>
</g>
<g>
	<g>
		<g>
			<path fill="#FAB616" d="M29.266,72.52c-0.319-0.146-0.46-0.522-0.314-0.841l0,0c0.146-0.318,0.521-0.459,0.841-0.314l4.836,2.209
				c0.319,0.145,0.459,0.522,0.314,0.841l0,0c-0.146,0.319-0.522,0.458-0.842,0.313L29.266,72.52z"/>
		</g>
		<g>
			<path fill="#FAB616" d="M32.474,70.364c0.146-0.319,0.522-0.459,0.841-0.313l0,0c0.319,0.146,0.459,0.521,0.315,0.841
				l-2.208,4.836c-0.147,0.319-0.523,0.459-0.843,0.313l0,0c-0.319-0.145-0.459-0.522-0.313-0.842L32.474,70.364z"/>
		</g>
	</g>
</g>
<g>
	<g>
		<g>
			<path fill="#EB4824" d="M26.349,18.355c-0.14-0.296-0.016-0.65,0.281-0.79l0,0c0.294-0.14,0.648-0.015,0.789,0.28l2.128,4.482
				c0.141,0.295,0.014,0.648-0.281,0.789l0,0c-0.296,0.14-0.648,0.014-0.79-0.282L26.349,18.355z"/>
		</g>
		<g>
			<path fill="#EB4824" d="M29.935,18.742c0.295-0.141,0.649-0.015,0.788,0.282l0,0c0.141,0.295,0.016,0.648-0.28,0.79l-4.481,2.129
				c-0.296,0.14-0.65,0.013-0.791-0.283l0,0c-0.14-0.295-0.014-0.648,0.282-0.79L29.935,18.742z"/>
		</g>
	</g>
</g>
<g>
	<g>
		<g>
			<path fill="#EB4824" d="M122.333,25.109c-0.206-0.094-0.298-0.337-0.202-0.543l0,0c0.094-0.205,0.336-0.296,0.542-0.203
				l3.12,1.425c0.207,0.093,0.297,0.336,0.203,0.542l0,0c-0.094,0.206-0.337,0.296-0.543,0.202L122.333,25.109z"/>
		</g>
		<g>
			<path fill="#EB4824" d="M124.402,23.718c0.094-0.206,0.338-0.296,0.543-0.202l0,0c0.206,0.094,0.297,0.336,0.203,0.542
				l-1.424,3.121c-0.096,0.206-0.338,0.296-0.545,0.202l0,0c-0.205-0.094-0.295-0.337-0.201-0.543L124.402,23.718z"/>
		</g>
	</g>
</g>
<g>
	<g>
		<g>
			<path fill="#EB4824" d="M103.961,134.427c-0.207-0.094-0.298-0.336-0.203-0.543l0,0c0.094-0.205,0.336-0.296,0.543-0.202
				l3.12,1.425c0.206,0.094,0.296,0.337,0.202,0.543l0,0c-0.094,0.205-0.336,0.296-0.543,0.202L103.961,134.427z"/>
		</g>
		<g>
			<path fill="#EB4824" d="M106.03,133.036c0.094-0.206,0.337-0.297,0.542-0.201l0,0c0.207,0.094,0.297,0.336,0.203,0.542
				l-1.424,3.12c-0.095,0.207-0.338,0.297-0.544,0.203l0,0c-0.206-0.094-0.296-0.338-0.202-0.544L106.03,133.036z"/>
		</g>
	</g>
</g>
<g>
	<g>
		<g>
			<path fill="#1B9FA3" d="M35.785,162.756c-0.206-0.094-0.297-0.337-0.203-0.543l0,0c0.094-0.205,0.336-0.297,0.542-0.203
				l3.121,1.426c0.206,0.094,0.296,0.336,0.203,0.543l0,0c-0.094,0.205-0.337,0.295-0.543,0.201L35.785,162.756z"/>
		</g>
		<g>
			<path fill="#1B9FA3" d="M37.854,161.365c0.094-0.207,0.337-0.297,0.542-0.202l0,0c0.206,0.094,0.296,0.336,0.203,0.542
				l-1.424,3.121c-0.095,0.206-0.338,0.296-0.544,0.202l0,0c-0.206-0.094-0.296-0.337-0.202-0.544L37.854,161.365z"/>
		</g>
	</g>
</g>
<g>
	<g>
		<g>
			<path fill="#FAB616" d="M76.065,148.778c-0.319-0.146-0.46-0.521-0.314-0.841l0,0c0.146-0.318,0.521-0.46,0.841-0.314
				l4.836,2.209c0.319,0.145,0.459,0.522,0.314,0.841l0,0c-0.146,0.318-0.522,0.459-0.842,0.313L76.065,148.778z"/>
		</g>
		<g>
			<path fill="#FAB616" d="M79.273,146.623c0.146-0.319,0.522-0.46,0.841-0.313l0,0c0.319,0.146,0.459,0.521,0.315,0.842
				l-2.208,4.836c-0.147,0.319-0.523,0.459-0.843,0.313l0,0c-0.319-0.146-0.459-0.522-0.313-0.842L79.273,146.623z"/>
		</g>
	</g>
</g>
<g>
	<g>
		<g>
			<path fill="#1B9FA3" d="M166.097,151.832c-0.319-0.146-0.46-0.521-0.313-0.841l0,0c0.145-0.318,0.521-0.46,0.84-0.314
				l4.837,2.209c0.319,0.145,0.459,0.522,0.313,0.841l0,0c-0.145,0.318-0.521,0.459-0.842,0.313L166.097,151.832z"/>
		</g>
		<g>
			<path fill="#1B9FA3" d="M169.305,149.677c0.146-0.319,0.521-0.46,0.841-0.313l0,0c0.319,0.146,0.46,0.521,0.315,0.842
				l-2.208,4.836c-0.147,0.319-0.523,0.459-0.843,0.313l0,0c-0.318-0.146-0.459-0.522-0.313-0.842L169.305,149.677z"/>
		</g>
	</g>
</g>
<g>
	<g>
		<g>
			<path fill="#1B9FA3" d="M177.647,93.88c-0.319-0.146-0.46-0.521-0.313-0.841l0,0c0.145-0.318,0.521-0.46,0.84-0.314l4.837,2.209
				c0.319,0.145,0.459,0.522,0.313,0.841l0,0c-0.145,0.318-0.521,0.459-0.842,0.313L177.647,93.88z"/>
		</g>
		<g>
			<path fill="#1B9FA3" d="M180.855,91.725c0.146-0.319,0.521-0.46,0.841-0.313l0,0c0.319,0.146,0.46,0.521,0.315,0.842
				l-2.208,4.836c-0.147,0.319-0.523,0.459-0.843,0.313l0,0c-0.318-0.146-0.459-0.522-0.313-0.842L180.855,91.725z"/>
		</g>
	</g>
</g>
<g>
	<g>
		<g>
			<path fill="#FAB616" d="M141.764,141.33c-0.318-0.146-0.46-0.521-0.313-0.841l0,0c0.146-0.318,0.521-0.46,0.841-0.314
				l4.836,2.209c0.32,0.145,0.459,0.522,0.314,0.841l0,0c-0.146,0.318-0.521,0.459-0.842,0.313L141.764,141.33z"/>
		</g>
		<g>
			<path fill="#FAB616" d="M144.973,139.175c0.145-0.319,0.521-0.46,0.84-0.313l0,0c0.32,0.146,0.46,0.521,0.315,0.842l-2.208,4.836
				c-0.146,0.319-0.523,0.459-0.842,0.313l0,0c-0.319-0.146-0.459-0.522-0.314-0.842L144.973,139.175z"/>
		</g>
	</g>
</g>
<g>
	<g>
		<g>
			<path fill="#1B9FA3" d="M184.508,59.189c-0.318-0.146-0.46-0.522-0.313-0.841l0,0c0.146-0.318,0.521-0.459,0.841-0.314
				l4.836,2.209c0.32,0.145,0.459,0.522,0.314,0.841l0,0c-0.146,0.319-0.521,0.458-0.842,0.313L184.508,59.189z"/>
		</g>
		<g>
			<path fill="#1B9FA3" d="M187.717,57.034c0.145-0.319,0.521-0.459,0.84-0.313l0,0c0.32,0.146,0.46,0.521,0.315,0.841l-2.208,4.836
				c-0.146,0.319-0.523,0.459-0.842,0.313l0,0c-0.319-0.145-0.459-0.522-0.314-0.842L187.717,57.034z"/>
		</g>
	</g>
</g>
<g>
	<g>
		<g>
			<path fill="#1B9FA3" d="M107.892,15.94c-0.32-0.146-0.461-0.522-0.314-0.841l0,0c0.146-0.318,0.521-0.459,0.841-0.314
				l4.837,2.209c0.318,0.145,0.459,0.522,0.313,0.841l0,0c-0.146,0.319-0.522,0.458-0.842,0.313L107.892,15.94z"/>
		</g>
		<g>
			<path fill="#1B9FA3" d="M111.099,13.784c0.146-0.319,0.522-0.459,0.842-0.313l0,0c0.318,0.146,0.459,0.521,0.314,0.841
				l-2.207,4.836c-0.147,0.319-0.523,0.459-0.844,0.313l0,0c-0.318-0.145-0.459-0.522-0.313-0.842L111.099,13.784z"/>
		</g>
	</g>
</g>
<g>
	<g>
		<g>
			<path fill="#EB4824" d="M172.437,116.199c-0.52-0.237-0.75-0.849-0.512-1.369l0,0c0.238-0.518,0.849-0.748,1.37-0.512
				l7.871,3.596c0.521,0.235,0.747,0.851,0.513,1.369l0,0c-0.239,0.518-0.851,0.747-1.371,0.51L172.437,116.199z"/>
		</g>
		<g>
			<path fill="#EB4824" d="M177.658,112.691c0.237-0.521,0.851-0.749,1.369-0.511l0,0c0.52,0.238,0.747,0.849,0.512,1.37
				l-3.593,7.872c-0.238,0.52-0.852,0.747-1.372,0.51l0,0c-0.52-0.237-0.747-0.851-0.51-1.37L177.658,112.691z"/>
		</g>
	</g>
</g>
<g>
	<g>
		<g>
			<path fill="#EB4824" d="M169.605,21.485c-0.52-0.237-0.75-0.849-0.512-1.369l0,0c0.238-0.518,0.85-0.748,1.371-0.512l7.871,3.596
				c0.52,0.235,0.746,0.851,0.512,1.369l0,0c-0.238,0.518-0.85,0.747-1.371,0.51L169.605,21.485z"/>
		</g>
		<g>
			<path fill="#EB4824" d="M174.828,17.977c0.236-0.521,0.85-0.749,1.369-0.511l0,0c0.52,0.238,0.746,0.849,0.512,1.37l-3.594,7.872
				c-0.238,0.52-0.852,0.747-1.371,0.51l0,0c-0.52-0.237-0.748-0.851-0.51-1.37L174.828,17.977z"/>
		</g>
	</g>
</g>
<g>
	<g>
		<g>
			<path fill="#EB4824" d="M19.777,161.129c-0.52-0.237-0.75-0.849-0.512-1.369l0,0c0.238-0.518,0.849-0.748,1.37-0.512l7.871,3.596
				c0.521,0.235,0.747,0.851,0.513,1.369l0,0c-0.239,0.518-0.851,0.747-1.371,0.51L19.777,161.129z"/>
		</g>
		<g>
			<path fill="#EB4824" d="M24.999,157.621c0.237-0.521,0.851-0.749,1.369-0.511l0,0c0.52,0.238,0.747,0.849,0.512,1.37
				l-3.593,7.872c-0.238,0.52-0.852,0.747-1.372,0.51l0,0c-0.52-0.237-0.747-0.851-0.51-1.37L24.999,157.621z"/>
		</g>
	</g>
</g>
<g>
	<g>
		<g>
			<path fill="#1B9FA3" d="M27.381,54.007c-0.206-0.094-0.297-0.337-0.203-0.543l0,0c0.094-0.205,0.336-0.297,0.542-0.203
				l3.121,1.426c0.206,0.094,0.296,0.336,0.203,0.543l0,0c-0.094,0.205-0.337,0.295-0.543,0.201L27.381,54.007z"/>
		</g>
		<g>
			<path fill="#1B9FA3" d="M29.451,52.617c0.094-0.207,0.337-0.297,0.542-0.202l0,0c0.206,0.094,0.296,0.336,0.203,0.542
				l-1.424,3.121c-0.095,0.206-0.338,0.296-0.544,0.202l0,0c-0.206-0.094-0.296-0.337-0.202-0.544L29.451,52.617z"/>
		</g>
	</g>
</g>
<g>
	<g>
		<g>
			<path fill="#FAB616" d="M158.607,15.005c-0.205-0.094-0.297-0.337-0.202-0.543l0,0c0.094-0.205,0.337-0.297,0.542-0.203
				l3.121,1.426c0.206,0.094,0.296,0.336,0.203,0.543l0,0c-0.095,0.205-0.338,0.295-0.544,0.201L158.607,15.005z"/>
		</g>
		<g>
			<path fill="#FAB616" d="M160.678,13.615c0.094-0.207,0.337-0.297,0.543-0.202l0,0c0.205,0.094,0.296,0.336,0.203,0.542
				l-1.425,3.121c-0.095,0.206-0.338,0.296-0.544,0.202l0,0c-0.205-0.094-0.296-0.337-0.202-0.544L160.678,13.615z"/>
		</g>
	</g>
</g>
<g>
	<g>
		<g>
			<path fill="#FAB616" d="M187.199,47.16c-0.207-0.094-0.298-0.337-0.203-0.543l0,0c0.094-0.205,0.336-0.297,0.543-0.203
				l3.12,1.426c0.206,0.094,0.296,0.336,0.202,0.543l0,0c-0.094,0.205-0.336,0.295-0.543,0.201L187.199,47.16z"/>
		</g>
		<g>
			<path fill="#FAB616" d="M189.269,45.769c0.094-0.207,0.337-0.297,0.542-0.202l0,0c0.207,0.094,0.297,0.336,0.203,0.542
				l-1.424,3.121c-0.095,0.206-0.338,0.296-0.544,0.202l0,0c-0.206-0.094-0.296-0.337-0.202-0.544L189.269,45.769z"/>
		</g>
	</g>
</g>
<g>
	<g>
		<g>
			<path fill="#EB4824" d="M165.311,160.785c-0.207-0.094-0.298-0.336-0.203-0.543l0,0c0.094-0.205,0.336-0.296,0.543-0.202
				l3.12,1.425c0.206,0.094,0.296,0.337,0.202,0.543l0,0c-0.094,0.205-0.336,0.296-0.543,0.202L165.311,160.785z"/>
		</g>
		<g>
			<path fill="#EB4824" d="M167.38,159.395c0.094-0.206,0.337-0.297,0.542-0.201l0,0c0.207,0.094,0.297,0.336,0.203,0.542
				l-1.424,3.12c-0.095,0.207-0.338,0.297-0.544,0.203l0,0c-0.206-0.094-0.296-0.338-0.202-0.544L167.38,159.395z"/>
		</g>
	</g>
</g>
<g>
	<g>
		<g>
			<path fill="#FAB616" d="M37.755,22.851c-0.207-0.094-0.298-0.337-0.203-0.543l0,0c0.094-0.205,0.336-0.297,0.543-0.203
				l3.12,1.426c0.206,0.094,0.296,0.336,0.202,0.543l0,0c-0.094,0.205-0.336,0.295-0.543,0.201L37.755,22.851z"/>
		</g>
		<g>
			<path fill="#FAB616" d="M39.824,21.46c0.094-0.207,0.337-0.297,0.542-0.202l0,0c0.207,0.094,0.297,0.336,0.203,0.542
				l-1.424,3.121c-0.095,0.206-0.338,0.296-0.544,0.202l0,0c-0.206-0.094-0.296-0.337-0.202-0.544L39.824,21.46z"/>
		</g>
	</g>
</g>
<g>
	<g>
		<g>
			<path fill="#1B9FA3" d="M91.806,41.405c-0.33-0.481-0.208-1.136,0.274-1.466l0,0c0.478-0.329,1.134-0.207,1.463,0.271l4.99,7.278
				c0.331,0.478,0.206,1.137-0.274,1.465l0,0c-0.478,0.329-1.134,0.207-1.464-0.275L91.806,41.405z"/>
		</g>
		<g>
			<path fill="#1B9FA3" d="M98.213,41.081c0.479-0.328,1.134-0.207,1.463,0.274l0,0c0.329,0.482,0.208,1.135-0.271,1.468
				l-7.275,4.989c-0.482,0.327-1.138,0.205-1.466-0.276l0,0c-0.33-0.477-0.207-1.134,0.274-1.465L98.213,41.081z"/>
		</g>
	</g>
</g>
</svg>
