<svg xmlns="http://www.w3.org/2000/svg" xmlns:xlink="http://www.w3.org/1999/xlink" viewBox="0 0 97.62 170.39"><defs><style>.cls-1{fill:none;}.cls-2{fill:#34c8ca;}.cls-3{fill:#c9eff5;}.cls-4{fill:#25e5e8;}.cls-5{fill:#dbdbdb;}.cls-6{fill:#0083b3;}.cls-7{fill:#e6e6e6;}.cls-8{fill:#00455e;}.cls-9{fill:url(#linear-gradient);}.cls-10{fill:#ffbf00;}.cls-11{fill:url(#linear-gradient-2);}.cls-12{fill:url(#linear-gradient-3);}.cls-13{fill:url(#linear-gradient-4);}.cls-14{fill:url(#linear-gradient-5);}.cls-15{fill:url(#linear-gradient-6);}.cls-16{fill:url(#linear-gradient-7);}.cls-17{fill:url(#linear-gradient-8);}.cls-18{fill:url(#linear-gradient-9);}.cls-19{fill:url(#linear-gradient-10);}.cls-20{fill:url(#linear-gradient-11);}.cls-21{fill:url(#linear-gradient-12);}.cls-22{fill:url(#linear-gradient-13);}.cls-23{fill:url(#linear-gradient-14);}.cls-24{fill:url(#linear-gradient-15);}.cls-25{fill:url(#linear-gradient-16);}.cls-26{fill:url(#linear-gradient-17);}.cls-27{fill:url(#linear-gradient-18);}.cls-28{fill:url(#linear-gradient-19);}.cls-29{fill:url(#linear-gradient-20);}.cls-30{fill:url(#linear-gradient-21);}.cls-31{fill:url(#linear-gradient-22);}.cls-32{fill:url(#linear-gradient-23);}.cls-33{fill:url(#linear-gradient-24);}.cls-34{fill:url(#linear-gradient-25);}.cls-35,.cls-36,.cls-37,.cls-38,.cls-39,.cls-40,.cls-41,.cls-42{fill-opacity:0.7;}.cls-35{fill:url(#linear-gradient-26);}.cls-36,.cls-44{fill:#28616a;}.cls-37{fill:url(#linear-gradient-27);}.cls-38{fill:url(#linear-gradient-28);}.cls-39{fill:url(#linear-gradient-29);}.cls-40{fill:url(#linear-gradient-30);}.cls-41{fill:url(#linear-gradient-31);}.cls-42{fill:url(#linear-gradient-32);}.cls-43{fill:url(#linear-gradient-33);}.cls-45{fill:url(#linear-gradient-34);}.cls-46{fill:url(#linear-gradient-35);}.cls-47{fill:url(#linear-gradient-36);}.cls-48{fill:url(#linear-gradient-37);}.cls-49{fill:url(#linear-gradient-38);}.cls-50{fill:url(#linear-gradient-39);}.cls-51{fill:url(#linear-gradient-40);}.cls-52{fill:#fff3b2;}.cls-53{clip-path:url(#clip-path);}.cls-54{fill:#ffd900;}.cls-55{fill:#fff6c2;}.cls-56{fill:#fff6c1;}.cls-57{fill:#fff6c0;}.cls-58{fill:#fff6bf;}.cls-59{fill:#fff5be;}.cls-60{fill:#fff5bd;}.cls-61{fill:#fff5bc;}.cls-62{fill:#fff5bb;}.cls-63{fill:#fff5ba;}.cls-64{fill:#fff5b9;}.cls-65{fill:#fff5b8;}.cls-66{fill:#fff4b7;}.cls-67{fill:#fff4b6;}.cls-68{fill:#fff4b5;}.cls-69{fill:#fff4b4;}.cls-70{fill:#fff4b3;}.cls-71{fill:#fff4b2;}.cls-72{fill:#fff3b1;}.cls-73{fill:#fff3b0;}.cls-74{fill:#fff3af;}.cls-75{fill:#fff3ae;}.cls-76{fill:#fff3ad;}.cls-77{fill:#fff3ac;}.cls-78{fill:#fff3ab;}.cls-79{fill:#fff2aa;}.cls-80{fill:#fff2a9;}.cls-81{fill:#fff2a8;}.cls-82{fill:#fff2a7;}.cls-83{fill:#fff2a6;}.cls-84{fill:#fff2a5;}.cls-85{fill:#fff2a4;}.cls-86{fill:#fff1a4;}.cls-87{fill:#fff1a3;}.cls-88{fill:#fff1a2;}.cls-89{fill:#fff1a1;}.cls-90{fill:#fff1a0;}.cls-91{fill:#fff19f;}.cls-92{fill:#fff19e;}.cls-93{fill:#fff19d;}.cls-94{fill:#fff09d;}.cls-95{fill:#fff09c;}.cls-96{fill:#fff09b;}.cls-97{fill:#fff09a;}.cls-98{fill:#fff099;}.cls-99{fill:#fff098;}.cls-100{fill:#fff097;}.cls-101{fill:#ffef96;}.cls-102{fill:#ffef95;}.cls-103{fill:#ffef94;}.cls-104{fill:#ffef93;}.cls-105{fill:#ffef92;}.cls-106{fill:#ffef91;}.cls-107{fill:#ffee90;}.cls-108{fill:#ffee8f;}.cls-109{fill:#ffee8e;}.cls-110{fill:#ffee8d;}.cls-111{fill:#ffee8c;}.cls-112{fill:#ffee8b;}.cls-113{fill:#ffee8a;}.cls-114{fill:#ffed89;}.cls-115{fill:#ffed88;}.cls-116{fill:#ffed87;}.cls-117{fill:#ffed86;}.cls-118{fill:#ffed85;}.cls-119{fill:#ffed84;}.cls-120{fill:#ffed83;}.cls-121{fill:#ffec82;}.cls-122{fill:#ffec81;}.cls-123{fill:#ffec80;}.cls-124{fill:#ffec7f;}.cls-125{fill:#ffec7e;}.cls-126{fill:#ffec7d;}.cls-127{fill:#ffec7c;}.cls-128{fill:#ffeb7b;}.cls-129{fill:#ffeb7a;}.cls-130{fill:#ffeb79;}.cls-131{fill:#ffeb78;}.cls-132{fill:#ffeb77;}.cls-133{fill:#ffeb76;}.cls-134{fill:#ffeb75;}.cls-135{fill:#ffea74;}.cls-136{fill:#ffea73;}.cls-137{fill:#ffea72;}.cls-138{fill:#ffea71;}.cls-139{fill:#ffea70;}.cls-140{fill:#ffea6f;}.cls-141{fill:#ffe96e;}.cls-142{fill:#ffe96d;}.cls-143{fill:#ffe96c;}.cls-144{fill:#ffe96b;}.cls-145{fill:#ffe96a;}.cls-146{fill:#ffe969;}.cls-147{fill:#ffe968;}.cls-148{fill:#ffe867;}.cls-149{fill:#ffe866;}.cls-150{fill:#ffe865;}.cls-151{fill:#ffe864;}.cls-152{fill:#ffe863;}.cls-153{fill:#ffe862;}.cls-154{fill:#ffe861;}.cls-155{fill:#ffe761;}.cls-156{fill:#ffe760;}.cls-157{fill:#ffe75f;}.cls-158{fill:#ffe75e;}.cls-159{fill:#ffe75d;}.cls-160{fill:#ffe75c;}.cls-161{fill:#ffe75b;}.cls-162{fill:#ffe65a;}.cls-163{fill:#ffe659;}.cls-164{fill:#ffe658;}.cls-165{fill:#ffe657;}.cls-166{fill:#ffe656;}.cls-167{fill:#ffe655;}.cls-168{fill:#ffe654;}.cls-169{fill:#ffe553;}.cls-170{fill:#ffe552;}.cls-171{fill:#ffe551;}.cls-172{fill:#ffe550;}.cls-173{fill:#ffe54f;}.cls-174{fill:#ffe54e;}.cls-175{fill:#ffe44d;}.cls-176{fill:#ffe44c;}.cls-177{fill:#ffe44b;}.cls-178{fill:#ffe44a;}.cls-179{fill:#ffe449;}.cls-180{fill:#ffe448;}.cls-181{fill:#ffe447;}.cls-182{fill:#ffe346;}.cls-183{fill:#ffe345;}.cls-184{fill:#ffe344;}.cls-185{fill:#ffe343;}.cls-186{fill:#ffe342;}.cls-187{fill:#ffe341;}.cls-188{fill:#ffe340;}.cls-189{fill:#ffe23f;}.cls-190{fill:#ffe23e;}.cls-191{fill:#ffe23d;}.cls-192{fill:#ffe23c;}.cls-193{fill:#ffe23b;}.cls-194{fill:#ffe23a;}.cls-195{fill:#ffe239;}.cls-196{fill:#ffe138;}.cls-197{fill:#ffe137;}.cls-198{fill:#ffe136;}.cls-199{fill:#ffe135;}.cls-200{fill:#ffe134;}.cls-201{fill:#ffe133;}.cls-202{fill:#ffe132;}.cls-203{fill:#ffe031;}.cls-204{fill:#ffe030;}.cls-205{fill:#ffe02f;}.cls-206{fill:#ffe02e;}.cls-207{fill:#ffe02d;}.cls-208{fill:#ffe02c;}.cls-209{fill:#ffdf2b;}.cls-210{fill:#ffdf2a;}.cls-211{fill:#ffdf29;}.cls-212{fill:#ffdf28;}.cls-213{fill:#ffdf27;}.cls-214{fill:#ffdf26;}.cls-215{fill:#ffdf25;}.cls-216{fill:#ffde25;}.cls-217{fill:#ffde24;}.cls-218{fill:#ffde23;}.cls-219{fill:#ffde22;}.cls-220{fill:#ffde21;}.cls-221{fill:#ffde20;}.cls-222{fill:#ffde1f;}.cls-223{fill:#ffde1e;}.cls-224{fill:#ffdd1e;}.cls-225{fill:#ffdd1d;}.cls-226{fill:#ffdd1c;}.cls-227{fill:#ffdd1b;}.cls-228{fill:#ffdd1a;}.cls-229{fill:#ffdd19;}.cls-230{fill:#ffdd18;}.cls-231{fill:#ffdc17;}.cls-232{fill:#ffdc16;}.cls-233{fill:#ffdc15;}.cls-234{fill:#ffdc14;}.cls-235{fill:#ffdc13;}.cls-236{fill:#ffdc12;}.cls-237{fill:#ffdc11;}.cls-238{fill:#ffdb10;}.cls-239{fill:#ffdb0f;}.cls-240{fill:#ffdb0e;}.cls-241{fill:#ffdb0d;}.cls-242{fill:#ffdb0c;}.cls-243{fill:#ffdb0b;}.cls-244{fill:#ffda0a;}.cls-245{fill:#ffda09;}.cls-246{fill:#ffda08;}.cls-247{fill:#ffda07;}.cls-248{fill:#ffda06;}.cls-249{fill:#ffda05;}.cls-250{fill:#ffda04;}.cls-251{fill:#ffd903;}.cls-252{fill:#ffd902;}.cls-253{fill:#ffd901;}.cls-254{fill:#43acbf;}.cls-255{fill:gray;}.cls-256{fill:#6cb7c4;}.cls-257{fill:#fff;}.cls-258{fill:#1ba6a8;}.cls-259{fill:#ffc64c;}.cls-260{fill:#0cf;}.cls-261{fill:#ff0;}.cls-262{fill:#f30;}.cls-263{fill:#ff00d0;}.cls-264{fill:#333;}.cls-265{fill:url(#linear-gradient-41);}.cls-266{fill:#003345;}.cls-267{fill:#0a7e80;}</style><linearGradient id="linear-gradient" x1="3525.88" y1="-4304.95" x2="4419.92" y2="-4177.23" gradientTransform="matrix(0.07, 0, 0, -0.07, -236.24, -266.19)" gradientUnits="userSpaceOnUse"><stop offset="0" stop-color="#e5f8ff"/><stop offset="1" stop-color="#9ad2e6"/></linearGradient><linearGradient id="linear-gradient-2" x1="3632.34" y1="-4043.06" x2="3705.02" y2="-4043.06" gradientTransform="matrix(0.07, 0, 0, -0.07, -236.24, -266.19)" gradientUnits="userSpaceOnUse"><stop offset="0" stop-color="#ffe969"/><stop offset="1" stop-color="#f29900"/></linearGradient><linearGradient id="linear-gradient-3" x1="3725.05" y1="-4042.06" x2="3774.14" y2="-4042.06" xlink:href="#linear-gradient-2"/><linearGradient id="linear-gradient-4" x1="3806.2" y1="-4043.06" x2="3878.89" y2="-4043.06" xlink:href="#linear-gradient-2"/><linearGradient id="linear-gradient-5" x1="3893.1" y1="-4043.06" x2="3965.78" y2="-4043.06" xlink:href="#linear-gradient-2"/><linearGradient id="linear-gradient-6" x1="3980.1" y1="-4043.06" x2="4052.78" y2="-4043.06" xlink:href="#linear-gradient-2"/><linearGradient id="linear-gradient-7" x1="4067" y1="-4043.06" x2="4139.69" y2="-4043.06" xlink:href="#linear-gradient-2"/><linearGradient id="linear-gradient-8" x1="4159.72" y1="-4042.06" x2="4208.8" y2="-4042.06" xlink:href="#linear-gradient-2"/><linearGradient id="linear-gradient-9" x1="4238.03" y1="-4042.06" x2="4287.11" y2="-4042.06" xlink:href="#linear-gradient-2"/><linearGradient id="linear-gradient-10" x1="3632.34" y1="-4212.56" x2="3705.02" y2="-4212.56" xlink:href="#linear-gradient-2"/><linearGradient id="linear-gradient-11" x1="3725.05" y1="-4211.56" x2="3774.14" y2="-4211.56" xlink:href="#linear-gradient-2"/><linearGradient id="linear-gradient-12" x1="3806.2" y1="-4212.56" x2="3878.89" y2="-4212.56" xlink:href="#linear-gradient-2"/><linearGradient id="linear-gradient-13" x1="3898.92" y1="-4211.56" x2="3948" y2="-4211.56" xlink:href="#linear-gradient-2"/><linearGradient id="linear-gradient-14" x1="3980.1" y1="-4212.56" x2="4052.78" y2="-4212.56" xlink:href="#linear-gradient-2"/><linearGradient id="linear-gradient-15" x1="4072.79" y1="-4211.56" x2="4121.87" y2="-4211.56" xlink:href="#linear-gradient-2"/><linearGradient id="linear-gradient-16" x1="4153.93" y1="-4212.56" x2="4226.62" y2="-4212.56" xlink:href="#linear-gradient-2"/><linearGradient id="linear-gradient-17" x1="4240.87" y1="-4212.56" x2="4313.55" y2="-4212.56" xlink:href="#linear-gradient-2"/><linearGradient id="linear-gradient-18" x1="3632.34" y1="-4382.06" x2="3705.02" y2="-4382.06" xlink:href="#linear-gradient-2"/><linearGradient id="linear-gradient-19" x1="3725.05" y1="-4382.06" x2="3774.14" y2="-4382.06" xlink:href="#linear-gradient-2"/><linearGradient id="linear-gradient-20" x1="3806.2" y1="-4382.06" x2="3878.89" y2="-4382.06" xlink:href="#linear-gradient-2"/><linearGradient id="linear-gradient-21" x1="3893.1" y1="-4382.06" x2="3965.78" y2="-4382.06" xlink:href="#linear-gradient-2"/><linearGradient id="linear-gradient-22" x1="3980.1" y1="-4382.06" x2="4052.78" y2="-4382.06" xlink:href="#linear-gradient-2"/><linearGradient id="linear-gradient-23" x1="4072.79" y1="-4382.06" x2="4121.87" y2="-4382.06" xlink:href="#linear-gradient-2"/><linearGradient id="linear-gradient-24" x1="4151.1" y1="-4382.06" x2="4200.17" y2="-4382.06" xlink:href="#linear-gradient-2"/><linearGradient id="linear-gradient-25" x1="4232.25" y1="-4382.06" x2="4304.93" y2="-4382.06" xlink:href="#linear-gradient-2"/><linearGradient id="linear-gradient-26" x1="3613.1" y1="-3916.06" x2="3613.1" y2="-3936.42" gradientTransform="matrix(0.07, 0, 0, -0.07, -236.24, -266.19)" gradientUnits="userSpaceOnUse"><stop offset="0" stop-color="#0fadd4"/><stop offset="1" stop-color="#4a8896"/></linearGradient><linearGradient id="linear-gradient-27" x1="3720.1" y1="-3916.06" x2="3720.1" y2="-3936.42" xlink:href="#linear-gradient-26"/><linearGradient id="linear-gradient-28" x1="3827.6" y1="-3916.06" x2="3827.6" y2="-3936.42" xlink:href="#linear-gradient-26"/><linearGradient id="linear-gradient-29" x1="3935.1" y1="-3916.06" x2="3935.1" y2="-3936.42" xlink:href="#linear-gradient-26"/><linearGradient id="linear-gradient-30" x1="3603.91" y1="-3878.56" x2="3720.17" y2="-3878.56" gradientTransform="matrix(0.07, 0, 0, -0.07, -236.24, -266.19)" gradientUnits="userSpaceOnUse"><stop offset="0" stop-color="#ba07b7"/><stop offset="1" stop-color="#ff2efc"/></linearGradient><linearGradient id="linear-gradient-31" x1="3711.24" y1="-3878.56" x2="3827.51" y2="-3878.56" xlink:href="#linear-gradient-30"/><linearGradient id="linear-gradient-32" x1="3818.57" y1="-3878.56" x2="3943.7" y2="-3878.56" xlink:href="#linear-gradient-30"/><linearGradient id="linear-gradient-33" x1="3672.6" y1="-3916.06" x2="3672.6" y2="-3936.42" xlink:href="#linear-gradient-26"/><linearGradient id="linear-gradient-34" x1="3780.1" y1="-3916.06" x2="3780.1" y2="-3936.42" xlink:href="#linear-gradient-26"/><linearGradient id="linear-gradient-35" x1="3887.1" y1="-3916.06" x2="3887.1" y2="-3936.42" xlink:href="#linear-gradient-26"/><linearGradient id="linear-gradient-36" x1="3994.6" y1="-3916.06" x2="3994.6" y2="-3936.42" xlink:href="#linear-gradient-26"/><linearGradient id="linear-gradient-37" x1="3663.65" y1="-3878.56" x2="3788.78" y2="-3878.56" xlink:href="#linear-gradient-30"/><linearGradient id="linear-gradient-38" x1="3771.1" y1="-3878.56" x2="3896.23" y2="-3878.56" xlink:href="#linear-gradient-30"/><linearGradient id="linear-gradient-39" x1="3878.31" y1="-3878.56" x2="4003.44" y2="-3878.56" xlink:href="#linear-gradient-30"/><linearGradient id="linear-gradient-40" x1="4313.1" y1="-3916.06" x2="4313.1" y2="-3936.42" xlink:href="#linear-gradient-26"/><clipPath id="clip-path"><path class="cls-1" d="M74.3,3.1a1.29,1.29,0,0,0,1.3-1.3A1.3,1.3,0,0,0,73,1.8,1.29,1.29,0,0,0,74.3,3.1Z"/></clipPath><linearGradient id="linear-gradient-41" x1="4090.55" y1="-5812.71" x2="4429.48" y2="-5764.3" xlink:href="#linear-gradient"/></defs><title>Asset 1</title><g id="Layer_2" data-name="Layer 2"><g id="Layer_1-2" data-name="Layer 1"><g id="Layer_1-3" data-name="Layer_1"><g id="_1595257069536" data-name=" 1595257069536"><path class="cls-2" d="M6.26,56.45h.58A8.77,8.77,0,0,1,24.26,55a3.26,3.26,0,0,1,1.15-.22,4,4,0,0,1,3.82,2.74,6.34,6.34,0,0,1,1.22-.14,5.81,5.81,0,0,1,5.83,5.83,6,6,0,0,1-1.51,4h0L43,69H6.26a6.3,6.3,0,0,1,0-12.6Z"/><path class="cls-3" d="M58,12.38h.43A6.81,6.81,0,0,1,72,11.23a3.65,3.65,0,0,1,.94-.14h0A5.69,5.69,0,0,1,83.45,13a2.7,2.7,0,0,1,.79-.07,2.65,2.65,0,0,1,2.45,1.73,2.7,2.7,0,0,1,.79-.07,3.78,3.78,0,0,1,3.82,3.74,4.14,4.14,0,0,1-1,2.59h0l5.33,1.22H58a4.9,4.9,0,0,1,0-9.79Z"/><path class="cls-4" d="M67.68,70.63h.43a6.52,6.52,0,0,1,13-1.08,3.61,3.61,0,0,1,.86-.14,3,3,0,0,1,2.81,2,4.21,4.21,0,0,1,.94-.14,4.38,4.38,0,0,1,3.17,7.34h0L95,80H67.68a4.68,4.68,0,1,1,0-9.36Z"/><rect class="cls-5" x="9.29" y="116.28" width="78.34" height="43.63" rx="3.67" ry="3.67"/><circle class="cls-6" cx="26.06" cy="158.9" r="4.9"/><polygon class="cls-7" points="25.92 155.59 25.56 170.28 26.06 170.28 26.57 170.28 26.21 155.59 26.06 155.59 25.92 155.59"/><rect class="cls-7" x="25.63" y="160.7" width="3.22" height="0.27" transform="translate(-105.75 66.37) rotate(-45)"/><rect class="cls-7" x="24.75" y="159.22" width="0.27" height="3.22" transform="translate(-106.44 64.7) rotate(-45)"/><path class="cls-8" d="M93.53,123.12l-.65-13-.58,13c-4.25-.07-5.33-4.25-2.59-5.9v-3.1c0-1.08,1.58-1.87,1.58-2.59,0-1.44-.43-4,1.58-4.18,2.09.14,1.66,2.74,1.66,4.18,0,.72,1.58,1.51,1.58,2.59v3.1C98.86,118.87,97.78,123,93.53,123.12Z"/><polygon class="cls-7" points="92.74 110.16 92.16 126.94 92.88 126.94 93.67 126.94 93.1 110.16 92.88 110.16 92.74 110.16"/><rect class="cls-7" x="92.49" y="114.82" width="2.95" height="0.25" transform="translate(-53.75 100.11) rotate(-45)"/><rect class="cls-7" x="92.3" y="120.15" width="4.57" height="0.38" transform="translate(-57.39 102.13) rotate(-45)"/><rect class="cls-7" x="91.73" y="113.46" width="0.25" height="2.95" transform="translate(-54.37 98.62) rotate(-45)"/><rect class="cls-7" x="91.05" y="118.06" width="0.38" height="4.57" transform="translate(-58.37 99.76) rotate(-45)"/><rect class="cls-9" x="15.62" y="17.21" width="68.4" height="43.92" rx="2.81" ry="2.81"/><path class="cls-8" d="M84,56.09H15.62V20a2.81,2.81,0,0,1,2.81-2.81H81.22A2.86,2.86,0,0,1,84,20Z"/><polygon class="cls-10" points="19.08 53.06 19.08 53.06 19.08 53.06 19.08 21.17 19.08 21.17 80.57 21.17 80.57 21.17 80.57 53.06 19.08 53.06"/><path class="cls-11" d="M29.66,21.17a.07.07,0,0,0,.07.07,5.75,5.75,0,0,1,.79,3.31,5.59,5.59,0,0,1-.79,3.31,2.34,2.34,0,0,1-1.8.79A2.47,2.47,0,0,1,26,27.79a6,6,0,0,1-.72-3.24,5.75,5.75,0,0,1,.79-3.31c.07,0,.07,0,.07-.07Zm-1.73.58a.61.61,0,0,0-.5.14,1.39,1.39,0,0,0-.36.65,12.23,12.23,0,0,0-.14,2,10.57,10.57,0,0,0,.14,1.94,1.34,1.34,0,0,0,.36.72.65.65,0,0,0,.5.22.62.62,0,0,0,.43-.22,1.39,1.39,0,0,0,.36-.65,7.09,7.09,0,0,0,.14-2,6.52,6.52,0,0,0-.14-1.94,1.34,1.34,0,0,0-.36-.72A.53.53,0,0,0,27.94,21.74Z"/><path class="cls-12" d="M35.5,28.51H34V22.68a5.24,5.24,0,0,1-2,1.22V22.46a3.9,3.9,0,0,0,1.3-.72,4.34,4.34,0,0,0,.58-.58H35.5Z"/><path class="cls-13" d="M42.19,21.17a.07.07,0,0,0,.07.07,5.75,5.75,0,0,1,.79,3.31,5.59,5.59,0,0,1-.79,3.31,2.39,2.39,0,0,1-1.87.79,2.42,2.42,0,0,1-1.87-.86,5.39,5.39,0,0,1-.72-3.24,5.75,5.75,0,0,1,.79-3.31.07.07,0,0,0,.07-.07Zm-1.8.58a.53.53,0,0,0-.43.14,1.39,1.39,0,0,0-.36.65,12.23,12.23,0,0,0-.14,2,6.52,6.52,0,0,0,.14,1.94,1.34,1.34,0,0,0,.36.72.62.62,0,0,0,.43.22.65.65,0,0,0,.5-.22,1.39,1.39,0,0,0,.36-.65,11.55,11.55,0,0,0,.14-2,10.57,10.57,0,0,0-.14-1.94,1.34,1.34,0,0,0-.36-.72A.61.61,0,0,0,40.39,21.74Z"/><path class="cls-14" d="M48.46,21.17c0,.07,0,.07.07.07a5.75,5.75,0,0,1,.79,3.31,5.59,5.59,0,0,1-.79,3.31,2.39,2.39,0,0,1-1.87.79,2.32,2.32,0,0,1-1.87-.86,5.39,5.39,0,0,1-.72-3.24,5.75,5.75,0,0,1,.79-3.31.07.07,0,0,0,.07-.07Zm-1.8.58a.53.53,0,0,0-.43.14,1.39,1.39,0,0,0-.36.65,7.37,7.37,0,0,0-.14,2,6.52,6.52,0,0,0,.14,1.94,1.34,1.34,0,0,0,.36.72.62.62,0,0,0,.43.22.65.65,0,0,0,.5-.22,1.39,1.39,0,0,0,.36-.65,11.55,11.55,0,0,0,.14-2,10.57,10.57,0,0,0-.14-1.94,1.34,1.34,0,0,0-.36-.72A.61.61,0,0,0,46.66,21.74Z"/><path class="cls-15" d="M54.72,21.17c0,.07,0,.07.07.07a5.75,5.75,0,0,1,.79,3.31,5.59,5.59,0,0,1-.79,3.31,2.39,2.39,0,0,1-1.87.79A2.32,2.32,0,0,1,51,27.79a5.39,5.39,0,0,1-.72-3.24,5.75,5.75,0,0,1,.79-3.31.07.07,0,0,0,.07-.07Zm-1.8.58a.69.69,0,0,0-.5.14,1.36,1.36,0,0,0-.29.65,7.37,7.37,0,0,0-.14,2,6.52,6.52,0,0,0,.14,1.94,1.34,1.34,0,0,0,.36.72.51.51,0,0,0,.43.22.65.65,0,0,0,.5-.22,1.39,1.39,0,0,0,.36-.65,11.55,11.55,0,0,0,.14-2,10.57,10.57,0,0,0-.14-1.94,1.34,1.34,0,0,0-.36-.72A.61.61,0,0,0,52.92,21.74Z"/><path class="cls-16" d="M61,21.17c0,.07,0,.07.07.07a5.75,5.75,0,0,1,.79,3.31,5.59,5.59,0,0,1-.79,3.31,2.39,2.39,0,0,1-1.87.79,2.32,2.32,0,0,1-1.87-.86,5.39,5.39,0,0,1-.72-3.24,5.75,5.75,0,0,1,.79-3.31l.07-.07Zm-1.8.58a.69.69,0,0,0-.5.14,1.36,1.36,0,0,0-.29.65,7.37,7.37,0,0,0-.14,2,6.52,6.52,0,0,0,.14,1.94,1.35,1.35,0,0,0,.29.72.78.78,0,0,0,.5.22.65.65,0,0,0,.5-.22,1.39,1.39,0,0,0,.36-.65,11.55,11.55,0,0,0,.14-2A10.57,10.57,0,0,0,60,22.61a1.34,1.34,0,0,0-.36-.72A.61.61,0,0,0,59.18,21.74Z"/><path class="cls-17" d="M66.82,28.51H65.23V22.68a5.55,5.55,0,0,1-1.94,1.22V22.46a6.1,6.1,0,0,0,1.3-.72,3.61,3.61,0,0,0,.5-.58h1.73Z"/><path class="cls-18" d="M72.43,28.51H70.92V22.68a5.24,5.24,0,0,1-2,1.22V22.46a3.9,3.9,0,0,0,1.3-.72,4.34,4.34,0,0,0,.58-.58h1.66Z"/><path class="cls-19" d="M27.94,33a2.18,2.18,0,0,1,1.8.86,5.44,5.44,0,0,1,.79,3.31,5.33,5.33,0,0,1-.79,3.24,2.18,2.18,0,0,1-1.8.86A2.32,2.32,0,0,1,26,40.32a5.63,5.63,0,0,1-.72-3.24,5.33,5.33,0,0,1,.79-3.24A2.23,2.23,0,0,1,27.94,33Zm0,1.3a.65.65,0,0,0-.5.22.9.9,0,0,0-.36.65,11.55,11.55,0,0,0-.14,2,10.57,10.57,0,0,0,.14,1.94,1.34,1.34,0,0,0,.36.72,1,1,0,0,0,.5.14,1,1,0,0,0,.43-.14,1.39,1.39,0,0,0,.36-.65,7.37,7.37,0,0,0,.14-2,6.26,6.26,0,0,0-.14-1.94,1.11,1.11,0,0,0-.36-.72A.62.62,0,0,0,27.94,34.27Z"/><path class="cls-20" d="M35.5,41.11H34V35.28a5.1,5.1,0,0,1-2,1.15V35.06a4.19,4.19,0,0,0,1.3-.79,2.9,2.9,0,0,0,1-1.3H35.5Z"/><path class="cls-21" d="M40.39,33a2.23,2.23,0,0,1,1.87.86,5.44,5.44,0,0,1,.79,3.31,5.33,5.33,0,0,1-.79,3.24,2.23,2.23,0,0,1-1.87.86,2.28,2.28,0,0,1-1.87-.94,5.11,5.11,0,0,1-.72-3.24,5.33,5.33,0,0,1,.79-3.24A2.18,2.18,0,0,1,40.39,33Zm0,1.3a.62.62,0,0,0-.43.22.9.9,0,0,0-.36.65,11.55,11.55,0,0,0-.14,2,6.52,6.52,0,0,0,.14,1.94,1.34,1.34,0,0,0,.36.72,1,1,0,0,0,.43.14,1,1,0,0,0,.5-.14,1.39,1.39,0,0,0,.36-.65,12.23,12.23,0,0,0,.14-2,10,10,0,0,0-.14-1.94,1.11,1.11,0,0,0-.36-.72A.65.65,0,0,0,40.39,34.27Z"/><path class="cls-22" d="M48,41.11H46.44V35.28a4.82,4.82,0,0,1-1.94,1.15V35.06a7,7,0,0,0,1.3-.79,2.9,2.9,0,0,0,1-1.3H48Z"/><path class="cls-23" d="M52.92,33a2.23,2.23,0,0,1,1.87.86,5.44,5.44,0,0,1,.79,3.31,5.33,5.33,0,0,1-.79,3.24,2.23,2.23,0,0,1-1.87.86A2.19,2.19,0,0,1,51,40.32a5.11,5.11,0,0,1-.72-3.24,5.33,5.33,0,0,1,.79-3.24A2.09,2.09,0,0,1,52.92,33Zm0,1.3a.78.78,0,0,0-.5.22c-.14.07-.22.29-.29.65a7.09,7.09,0,0,0-.14,2,6.52,6.52,0,0,0,.14,1.94,1.34,1.34,0,0,0,.36.72.77.77,0,0,0,.43.14,1,1,0,0,0,.5-.14,1.39,1.39,0,0,0,.36-.65,12.23,12.23,0,0,0,.14-2,10,10,0,0,0-.14-1.94,1.11,1.11,0,0,0-.36-.72A.65.65,0,0,0,52.92,34.27Z"/><path class="cls-24" d="M60.55,41.11H59V35.28A4.82,4.82,0,0,1,57,36.43V35.06a7,7,0,0,0,1.3-.79,2.74,2.74,0,0,0,.94-1.3h1.3Z"/><path class="cls-25" d="M65.45,33a2.32,2.32,0,0,1,1.87.86,5.44,5.44,0,0,1,.79,3.31,5.33,5.33,0,0,1-.79,3.24,2.32,2.32,0,0,1-1.87.86,2.19,2.19,0,0,1-1.87-.94,5.11,5.11,0,0,1-.72-3.24,5.33,5.33,0,0,1,.79-3.24A2.09,2.09,0,0,1,65.45,33Zm0,1.3a.78.78,0,0,0-.5.22c-.14.07-.22.29-.29.65a7.09,7.09,0,0,0-.14,2,12.88,12.88,0,0,0,.07,1.94,2.18,2.18,0,0,0,.36.72,1.33,1.33,0,0,0,.5.14,1,1,0,0,0,.5-.14,1.39,1.39,0,0,0,.36-.65,12.23,12.23,0,0,0,.14-2,10,10,0,0,0-.14-1.94,1.11,1.11,0,0,0-.36-.72A.65.65,0,0,0,65.45,34.27Z"/><path class="cls-26" d="M71.71,33a2.32,2.32,0,0,1,1.87.86,5.5,5.5,0,0,1,.72,3.31,4.88,4.88,0,0,1-.79,3.24,2.32,2.32,0,0,1-3.67-.07,5.11,5.11,0,0,1-.72-3.24,4.88,4.88,0,0,1,.79-3.24A2.09,2.09,0,0,1,71.71,33Zm0,1.3a.78.78,0,0,0-.5.22c-.14.07-.22.29-.29.65a6.46,6.46,0,0,0-.22,2,10.57,10.57,0,0,0,.14,1.94,2.18,2.18,0,0,0,.36.72,1.33,1.33,0,0,0,.5.14,1,1,0,0,0,.5-.14,1.39,1.39,0,0,0,.36-.65,12.23,12.23,0,0,0,.14-2,10,10,0,0,0-.14-1.94,1.11,1.11,0,0,0-.36-.72A.65.65,0,0,0,71.71,34.27Z"/><path class="cls-27" d="M27.94,45.58a2.18,2.18,0,0,1,1.8.86,5.33,5.33,0,0,1,.79,3.24A5.44,5.44,0,0,1,29.74,53l-.07.07H26.14L26,52.92a5.63,5.63,0,0,1-.72-3.24,5.75,5.75,0,0,1,.79-3.31A2.39,2.39,0,0,1,27.94,45.58Zm0,1.3a1,1,0,0,0-.5.14,1.39,1.39,0,0,0-.36.65,12.23,12.23,0,0,0-.14,2,10,10,0,0,0,.14,1.94,1.11,1.11,0,0,0,.36.72.65.65,0,0,0,.5.22.62.62,0,0,0,.43-.22.9.9,0,0,0,.36-.65,7.09,7.09,0,0,0,.14-2,6.52,6.52,0,0,0-.14-1.94,1.34,1.34,0,0,0-.36-.72A1,1,0,0,0,27.94,46.87Z"/><path class="cls-28" d="M34,53.06V47.88A6.15,6.15,0,0,1,32,49V47.59a3.9,3.9,0,0,0,1.3-.72,2.9,2.9,0,0,0,1-1.3H35.5v7.49Z"/><path class="cls-29" d="M40.39,45.58a2.23,2.23,0,0,1,1.87.86,5.33,5.33,0,0,1,.79,3.24A5.44,5.44,0,0,1,42.26,53l-.07.07H38.66l-.14-.14a5.11,5.11,0,0,1-.72-3.24,5.75,5.75,0,0,1,.79-3.31A2.34,2.34,0,0,1,40.39,45.58Zm0,1.3A1,1,0,0,0,40,47a1.39,1.39,0,0,0-.36.65,12.23,12.23,0,0,0-.14,2,6.26,6.26,0,0,0,.14,1.94,1.11,1.11,0,0,0,.36.72.62.62,0,0,0,.43.22.65.65,0,0,0,.5-.22.9.9,0,0,0,.36-.65,11.55,11.55,0,0,0,.14-2,10.57,10.57,0,0,0-.14-1.94A1.34,1.34,0,0,0,40.9,47,1,1,0,0,0,40.39,46.87Z"/><path class="cls-30" d="M46.66,45.58a2.23,2.23,0,0,1,1.87.86,5.33,5.33,0,0,1,.79,3.24A5.44,5.44,0,0,1,48.53,53a.07.07,0,0,0-.07.07H44.93l-.14-.14a5.11,5.11,0,0,1-.72-3.24,5.75,5.75,0,0,1,.79-3.31A2.34,2.34,0,0,1,46.66,45.58Zm0,1.3a1,1,0,0,0-.43.14,1.39,1.39,0,0,0-.36.65,7.37,7.37,0,0,0-.14,2,6.26,6.26,0,0,0,.14,1.94,1.11,1.11,0,0,0,.36.72.62.62,0,0,0,.43.22.65.65,0,0,0,.5-.22.9.9,0,0,0,.36-.65,11.55,11.55,0,0,0,.14-2,10.57,10.57,0,0,0-.14-1.94,1.34,1.34,0,0,0-.36-.72A1,1,0,0,0,46.66,46.87Z"/><path class="cls-31" d="M52.92,45.58a2.23,2.23,0,0,1,1.87.86,5.33,5.33,0,0,1,.79,3.24A5.44,5.44,0,0,1,54.79,53a.07.07,0,0,0-.07.07H51.19L51,52.92a5.11,5.11,0,0,1-.72-3.24,5.75,5.75,0,0,1,.79-3.31A2.24,2.24,0,0,1,52.92,45.58Zm0,1.3a1.33,1.33,0,0,0-.5.14,1.36,1.36,0,0,0-.29.65,7.37,7.37,0,0,0-.14,2,6.26,6.26,0,0,0,.14,1.94,1.11,1.11,0,0,0,.36.72.51.51,0,0,0,.43.22.65.65,0,0,0,.5-.22.9.9,0,0,0,.36-.65,11.55,11.55,0,0,0,.14-2,10.57,10.57,0,0,0-.14-1.94,1.34,1.34,0,0,0-.36-.72A1,1,0,0,0,52.92,46.87Z"/><path class="cls-32" d="M59,53.06V47.88A5.8,5.8,0,0,1,57,49V47.59a6.1,6.1,0,0,0,1.3-.72,2.74,2.74,0,0,0,.94-1.3h1.3v7.49Z"/><path class="cls-33" d="M64.66,53.06V47.88a6.15,6.15,0,0,1-2,1.15V47.59a3.9,3.9,0,0,0,1.3-.72,2.9,2.9,0,0,0,1-1.3h1.22v7.49Z"/><path class="cls-34" d="M71.06,45.58a2.23,2.23,0,0,1,1.87.86,5.33,5.33,0,0,1,.79,3.24A5.44,5.44,0,0,1,72.94,53l-.07.07H69.34l-.14-.14a5.11,5.11,0,0,1-.72-3.24,5.75,5.75,0,0,1,.79-3.31A2.34,2.34,0,0,1,71.06,45.58Zm0,1.3a1,1,0,0,0-.43.14,1.39,1.39,0,0,0-.36.65,12.23,12.23,0,0,0-.14,2,6.26,6.26,0,0,0,.14,1.94,1.11,1.11,0,0,0,.36.72.62.62,0,0,0,.43.22.65.65,0,0,0,.5-.22.9.9,0,0,0,.36-.65,11.55,11.55,0,0,0,.14-2,6.52,6.52,0,0,0-.14-1.94,1.34,1.34,0,0,0-.36-.72A1,1,0,0,0,71.06,46.87Z"/><path class="cls-35" d="M26.42,16.49v.72h-5v-.72a.77.77,0,0,1,.72-.72h3.53A.79.79,0,0,1,26.42,16.49Z"/><path class="cls-36" d="M22.39,15.55v.22h3v-.22a.15.15,0,0,0-.14-.14H22.46C22.39,15.41,22.39,15.48,22.39,15.55Z"/><path class="cls-37" d="M34.13,16.49v.72h-5v-.72a.79.79,0,0,1,.79-.72h3.53A.77.77,0,0,1,34.13,16.49Z"/><path class="cls-36" d="M30.1,15.55v.22h3v-.22a.25.25,0,0,0-.07-.14H30.24A.15.15,0,0,0,30.1,15.55Z"/><path class="cls-38" d="M41.83,16.49v.72h-5v-.72a.72.72,0,0,1,.72-.72h3.53A.72.72,0,0,1,41.83,16.49Z"/><path class="cls-36" d="M37.87,15.55v.22h3v-.22c0-.07,0-.14-.07-.14H37.94C37.87,15.41,37.87,15.48,37.87,15.55Z"/><path class="cls-39" d="M49.61,16.49v.72h-5v-.72a.77.77,0,0,1,.72-.72h3.53A.79.79,0,0,1,49.61,16.49Z"/><path class="cls-36" d="M45.58,15.55v.22h3v-.22a.15.15,0,0,0-.14-.14H45.65C45.58,15.41,45.58,15.48,45.58,15.55Z"/><path class="cls-40" d="M23.26,15.41a4.43,4.43,0,0,1,2.66-4.32,5.34,5.34,0,0,1,1.8-.36,5.41,5.41,0,0,1,1.87.36,4.39,4.39,0,0,1,2,1.8A4.52,4.52,0,0,0,31,15.41a3.24,3.24,0,0,0-1.87-3.17A4.19,4.19,0,0,0,27.72,12a4.08,4.08,0,0,0-1.3.22,3.24,3.24,0,0,0-1.87,3.17Z"/><path class="cls-41" d="M31,15.41a4.43,4.43,0,0,1,2.66-4.32,5.41,5.41,0,0,1,1.87-.36,5,5,0,0,1,1.8.36,3.79,3.79,0,0,1,2,1.8,5.2,5.2,0,0,0-.65,2.52,3.24,3.24,0,0,0-1.87-3.17A4.08,4.08,0,0,0,35.5,12a4.19,4.19,0,0,0-1.37.22,3.35,3.35,0,0,0-1.87,3.17Z"/><path class="cls-42" d="M38.66,15.41a4.48,4.48,0,0,1,2.74-4.32,5,5,0,0,1,1.8-.36,5.41,5.41,0,0,1,1.87.36,4.53,4.53,0,0,1,2.66,4.32h-1.3a3.35,3.35,0,0,0-1.87-3.17A4.52,4.52,0,0,0,43.2,12a3.77,3.77,0,0,0-1.3.22A3.29,3.29,0,0,0,40,15.41Z"/><path class="cls-43" d="M30.67,16.49v.72h-5v-.72a.72.72,0,0,1,.72-.72H30A.72.72,0,0,1,30.67,16.49Z"/><path class="cls-44" d="M26.71,15.55v.22h3v-.22c0-.07,0-.14-.07-.14H26.78C26.71,15.41,26.71,15.48,26.71,15.55Z"/><path class="cls-45" d="M38.45,16.49v.72h-5v-.72a.77.77,0,0,1,.72-.72h3.53A.79.79,0,0,1,38.45,16.49Z"/><path class="cls-44" d="M34.42,15.55v.22h3v-.22a.15.15,0,0,0-.14-.14H34.49A.25.25,0,0,0,34.42,15.55Z"/><path class="cls-46" d="M46.15,16.49v.72h-5v-.72a.79.79,0,0,1,.79-.72h3.53A.77.77,0,0,1,46.15,16.49Z"/><path class="cls-44" d="M42.12,15.55v.22h3v-.22a.25.25,0,0,0-.07-.14H42.26A.15.15,0,0,0,42.12,15.55Z"/><path class="cls-47" d="M53.86,16.49v.72h-5v-.72a.72.72,0,0,1,.72-.72h3.53A.72.72,0,0,1,53.86,16.49Z"/><path class="cls-44" d="M49.9,15.55v.22h3v-.22c0-.07,0-.14-.07-.14H50C49.9,15.41,49.9,15.48,49.9,15.55Z"/><path class="cls-48" d="M27.58,15.41a4.43,4.43,0,0,1,2.66-4.32,5,5,0,0,1,1.8-.36,5.41,5.41,0,0,1,1.87.36,4.53,4.53,0,0,1,2.66,4.32h-1.3a3.35,3.35,0,0,0-1.87-3.17A4.19,4.19,0,0,0,32,12a4.08,4.08,0,0,0-1.3.22,3.29,3.29,0,0,0-1.94,3.17Z"/><path class="cls-49" d="M35.28,15.41a4.43,4.43,0,0,1,2.66-4.32,5.41,5.41,0,0,1,1.87-.36,5.34,5.34,0,0,1,1.8.36,4.43,4.43,0,0,1,2.66,4.32H43a3.24,3.24,0,0,0-1.87-3.17,4.08,4.08,0,0,0-1.3-.22,4.19,4.19,0,0,0-1.37.22,3.24,3.24,0,0,0-1.87,3.17Z"/><path class="cls-50" d="M43,15.41a4.53,4.53,0,0,1,2.66-4.32,5.41,5.41,0,0,1,1.87-.36,5,5,0,0,1,1.8.36A4.43,4.43,0,0,1,52,15.41H50.76a3.29,3.29,0,0,0-1.94-3.17,4.08,4.08,0,0,0-1.3-.22,4.52,4.52,0,0,0-1.37.22,3.35,3.35,0,0,0-1.87,3.17Z"/><path class="cls-51" d="M76.82,16.49v.72h-5v-.72a.79.79,0,0,1,.79-.72H76.1A.77.77,0,0,1,76.82,16.49Z"/><path class="cls-44" d="M72.79,15.55v.22h3v-.22a.25.25,0,0,0-.07-.14H72.94A.15.15,0,0,0,72.79,15.55Z"/><rect class="cls-52" x="73.94" y="1.8" width="0.8" height="13.61"/><g class="cls-53"><polygon class="cls-54" points="73.01 0.58 75.6 0.58 75.6 3.1 73.01 3.1 73.01 0.58"/><polygon id="_1" data-name="1" class="cls-55" points="73.73 1.3 73.73 1.3 73.73 1.3 73.73 1.3"/><path id="_2" data-name="2" class="cls-56" d="M73.73,1.3Zm0-.07h0V1.3h0Z"/><path id="_3" data-name="3" class="cls-57" d="M73.73,1.3Zm0-.07h.07V1.3h-.07Z"/><path id="_4" data-name="4" class="cls-57" d="M73.73,1.22V1.3h.07V1.22Zm0,0h.07V1.3h-.07Z"/><path id="_5" data-name="5" class="cls-58" d="M73.73,1.22V1.3h.07V1.22Zm0,0h.07V1.3h-.07Z"/><path id="_6" data-name="6" class="cls-59" d="M73.73,1.22V1.3h.07V1.22Zm0,0h.07V1.3h-.07Z"/><path id="_7" data-name="7" class="cls-60" d="M73.73,1.22V1.3h.07V1.22Zm0,0h.07V1.3h-.07Z"/><path id="_8" data-name="8" class="cls-60" d="M73.73,1.22V1.3h.07V1.22Zm0,0h.07V1.3h-.07Z"/><path id="_9" data-name="9" class="cls-61" d="M73.73,1.22V1.3h.07V1.22Zm0,0h.07V1.3h-.07Z"/><path id="_10" data-name="10" class="cls-62" d="M73.73,1.22V1.3h.07V1.22Zm0,0h.07V1.3h-.07Z"/><path id="_11" data-name="11" class="cls-63" d="M73.73,1.22V1.3h.07V1.22Zm0,0h.07V1.3h-.07Z"/><path id="_12" data-name="12" class="cls-63" d="M73.73,1.22V1.3h.07V1.22Zm-.07,0h.14v.14h-.14Z"/><path id="_13" data-name="13" class="cls-64" d="M73.66,1.22V1.3h.14V1.22Zm0,0h.14v.14h-.14Z"/><path id="_14" data-name="14" class="cls-65" d="M73.66,1.22v.14h.14V1.22Zm0,0h.14v.14h-.14Z"/><path id="_15" data-name="15" class="cls-66" d="M73.66,1.22v.14h.14V1.22Zm0,0h.14v.14h-.14Z"/><path id="_16" data-name="16" class="cls-66" d="M73.66,1.22v.14h.14V1.22Zm0,0h.14v.14h-.14Z"/><path id="_17" data-name="17" class="cls-67" d="M73.66,1.22v.14h.14V1.22Zm0-.07h.22v.22h-.22Z"/><path id="_18" data-name="18" class="cls-68" d="M73.66,1.15v.22h.14V1.15Zm0,0h.22v.22h-.22Z"/><path id="_19" data-name="19" class="cls-69" d="M73.66,1.15v.22h.22V1.15Zm0,0h.22v.22h-.22Z"/><path id="_20" data-name="20" class="cls-69" d="M73.66,1.15v.22h.22V1.15Zm0,0h.22v.22h-.22Z"/><path id="_21" data-name="21" class="cls-70" d="M73.66,1.15v.22h.22V1.15Zm0,0h.22v.22h-.22Z"/><path id="_22" data-name="22" class="cls-71" d="M73.66,1.15v.22h.22V1.15Zm0,0h.22v.22h-.22Z"/><path id="_23" data-name="23" class="cls-72" d="M73.66,1.15v.22h.22V1.15Zm0,0h.22v.22h-.22Z"/><path id="_24" data-name="24" class="cls-72" d="M73.66,1.15v.22h.22V1.15Zm0,0h.22v.22h-.22Z"/><path id="_25" data-name="25" class="cls-73" d="M73.66,1.15v.22h.22V1.15Zm0,0h.22v.22h-.22Z"/><path id="_26" data-name="26" class="cls-74" d="M73.66,1.15v.22h.22V1.15Zm-.07,0h.29v.29h-.29Z"/><path id="_27" data-name="27" class="cls-75" d="M73.66,1.15v.22h.22V1.15Zm-.07,0h.29v.29h-.29Z"/><path id="_28" data-name="28" class="cls-76" d="M73.58,1.15v.29h.29V1.15Zm0,0h.29v.29h-.29Z"/><path id="_29" data-name="29" class="cls-76" d="M73.58,1.15v.29h.29V1.15Zm0,0h.29v.29h-.29Z"/><path id="_30" data-name="30" class="cls-77" d="M73.58,1.15v.29h.29V1.15Zm0,0h.29v.29h-.29Z"/><path id="_31" data-name="31" class="cls-78" d="M73.58,1.15v.29h.29V1.15Zm0-.07h.36v.36h-.36Z"/><path id="_32" data-name="32" class="cls-79" d="M73.58,1.15v.29h.29V1.15Zm0-.07h.36v.36h-.36Z"/><path id="_33" data-name="33" class="cls-79" d="M73.58,1.08v.36h.36V1.08Zm0,0h.36v.36h-.36Z"/><path id="_34" data-name="34" class="cls-80" d="M73.58,1.08v.36h.36V1.08Zm0,0h.36v.36h-.36Z"/><path id="_35" data-name="35" class="cls-81" d="M73.58,1.08v.36h.36V1.08Zm0,0h.36v.36h-.36Z"/><path id="_36" data-name="36" class="cls-82" d="M73.58,1.08v.36h.36V1.08Zm0,0h.36v.36h-.36Z"/><path id="_37" data-name="37" class="cls-82" d="M73.58,1.08v.36h.36V1.08Zm0,0h.36v.36h-.36Z"/><path id="_38" data-name="38" class="cls-83" d="M73.58,1.08v.36h.36V1.08Zm0,0h.36v.36h-.36Z"/><path id="_39" data-name="39" class="cls-84" d="M73.58,1.08v.36h.36V1.08Zm0,0h.36v.36h-.36Z"/><path id="_40" data-name="40" class="cls-85" d="M73.58,1.08v.36h.36V1.08Zm0,0h.36v.36h-.36Z"/><path id="_41" data-name="41" class="cls-86" d="M73.58,1.08v.36h.36V1.08Zm-.07,0h.43v.43h-.43Z"/><path id="_42" data-name="42" class="cls-87" d="M73.51,1.08v.43h.43V1.08Zm0,0h.43v.43h-.43Z"/><path id="_43" data-name="43" class="cls-88" d="M73.51,1.08v.43h.43V1.08Zm0,0h.43v.43h-.43Z"/><path id="_44" data-name="44" class="cls-89" d="M73.51,1.08v.43h.43V1.08Zm0,0h.43v.43h-.43Z"/><path id="_45" data-name="45" class="cls-89" d="M73.51,1.08v.43h.43V1.08Zm0-.07h.43v.5h-.43Z"/><path id="_46" data-name="46" class="cls-90" d="M73.51,1.08v.43h.43V1.08Zm0-.07H74v.5h-.5Z"/><path id="_47" data-name="47" class="cls-91" d="M73.51,1v.5H74V1Zm0,0H74v.5h-.5Z"/><path id="_48" data-name="48" class="cls-92" d="M73.51,1v.5H74V1Zm0,0H74v.5h-.5Z"/><path id="_49" data-name="49" class="cls-93" d="M73.51,1v.5H74V1Zm0,0H74v.5h-.5Z"/><path id="_50" data-name="50" class="cls-94" d="M73.51,1v.5H74V1Zm0,0H74v.5h-.5Z"/><path id="_51" data-name="51" class="cls-95" d="M73.51,1v.5H74V1Zm0,0H74v.5h-.5Z"/><path id="_52" data-name="52" class="cls-96" d="M73.51,1v.5H74V1Zm0,0H74v.5h-.5Z"/><path id="_53" data-name="53" class="cls-97" d="M73.51,1v.5H74V1Zm0,0H74v.5h-.5Z"/><path id="_54" data-name="54" class="cls-97" d="M73.51,1v.5H74V1Zm0,0H74v.5h-.5Z"/><path id="_55" data-name="55" class="cls-98" d="M73.51,1v.5H74V1Zm-.07,0H74v.58h-.58Z"/><path id="_56" data-name="56" class="cls-99" d="M73.44,1v.5H74V1Zm0,0H74v.58h-.58Z"/><path id="_57" data-name="57" class="cls-100" d="M73.44,1v.58H74V1Zm0,0H74v.58h-.58Z"/><path id="_58" data-name="58" class="cls-100" d="M73.44,1v.58H74V1Zm0,0H74v.58h-.58Z"/><path id="_59" data-name="59" class="cls-101" d="M73.44,1v.58H74V1Zm0,0H74v.58h-.58Z"/><path id="_60" data-name="60" class="cls-102" d="M73.44,1v.58H74V1Zm0-.07h.65v.65h-.65Z"/><path id="_61" data-name="61" class="cls-103" d="M73.44.94v.65H74V.94Zm0,0h.65v.65h-.65Z"/><path id="_62" data-name="62" class="cls-103" d="M73.44.94v.65h.65V.94Zm0,0h.65v.65h-.65Z"/><path id="_63" data-name="63" class="cls-104" d="M73.44.94v.65h.65V.94Zm0,0h.65v.65h-.65Z"/><path id="_64" data-name="64" class="cls-105" d="M73.44.94v.65h.65V.94Zm0,0h.65v.65h-.65Z"/><path id="_65" data-name="65" class="cls-106" d="M73.44.94v.65h.65V.94Zm0,0h.65v.65h-.65Z"/><path id="_66" data-name="66" class="cls-106" d="M73.44.94v.65h.65V.94Zm0,0h.65v.65h-.65Z"/><path id="_67" data-name="67" class="cls-107" d="M73.44.94v.65h.65V.94Zm0,0h.65v.65h-.65Z"/><path id="_68" data-name="68" class="cls-108" d="M73.44.94v.65h.65V.94Zm0,0h.65v.65h-.65Z"/><path id="_69" data-name="69" class="cls-109" d="M73.44.94v.65h.65V.94Zm-.07,0h.72v.65h-.72Z"/><path id="_70" data-name="70" class="cls-109" d="M73.44.94v.65h.65V.94Zm-.07,0h.72v.72h-.72Z"/><path id="_71" data-name="71" class="cls-110" d="M73.37.94v.72h.72V.94Zm0,0h.72v.72h-.72Z"/><path id="_72" data-name="72" class="cls-111" d="M73.37.94v.72h.72V.94Zm0,0h.72v.72h-.72Z"/><path id="_73" data-name="73" class="cls-112" d="M73.37.94v.72h.72V.94Zm0,0h.72v.72h-.72Z"/><path id="_74" data-name="74" class="cls-113" d="M73.37.94v.72h.72V.94Zm0-.07h.72v.79h-.72Z"/><path id="_75" data-name="75" class="cls-113" d="M73.37.94v.72h.72V.94Zm0-.07h.79v.79h-.79Z"/><path id="_76" data-name="76" class="cls-114" d="M73.37.86v.79h.79V.86Zm0,0h.79v.79h-.79Z"/><path id="_77" data-name="77" class="cls-115" d="M73.37.86v.79h.79V.86Zm0,0h.79v.79h-.79Z"/><path id="_78" data-name="78" class="cls-116" d="M73.37.86v.79h.79V.86Zm0,0h.79v.79h-.79Z"/><path id="_79" data-name="79" class="cls-116" d="M73.37.86v.79h.79V.86Zm0,0h.79v.79h-.79Z"/><path id="_80" data-name="80" class="cls-117" d="M73.37.86v.79h.79V.86Zm0,0h.79v.79h-.79Z"/><path id="_81" data-name="81" class="cls-118" d="M73.37.86v.79h.79V.86Zm0,0h.79v.79h-.79Z"/><path id="_82" data-name="82" class="cls-119" d="M73.37.86v.79h.79V.86Zm0,0h.79v.79h-.79Z"/><path id="_83" data-name="83" class="cls-119" d="M73.37.86v.79h.79V.86Zm0,0h.79v.79h-.79Z"/><path id="_84" data-name="84" class="cls-120" d="M73.37.86v.79h.79V.86Zm-.07,0h.86v.86H73.3Z"/><path id="_85" data-name="85" class="cls-121" d="M73.3.86v.79h.86V.86Zm0,0h.86v.86H73.3Z"/><path id="_86" data-name="86" class="cls-122" d="M73.3.86v.86h.86V.86Zm0,0h.86v.86H73.3Z"/><path id="_87" data-name="87" class="cls-122" d="M73.3.86v.86h.86V.86Zm0,0h.86v.86H73.3Z"/><path id="_88" data-name="88" class="cls-123" d="M73.3.86v.86h.86V.86Zm0,0h.86v.86H73.3Z"/><path id="_89" data-name="89" class="cls-124" d="M73.3.86v.86h.86V.86Zm0-.07h.94v.94H73.3Z"/><path id="_90" data-name="90" class="cls-125" d="M73.3.79v.94h.94V.79Zm0,0h.94v.94H73.3Z"/><path id="_91" data-name="91" class="cls-125" d="M73.3.79v.94h.94V.79Zm0,0h.94v.94H73.3Z"/><path id="_92" data-name="92" class="cls-126" d="M73.3.79v.94h.94V.79Zm0,0h.94v.94H73.3Z"/><path id="_93" data-name="93" class="cls-127" d="M73.3.79v.94h.94V.79Zm0,0h.94v.94H73.3Z"/><path id="_94" data-name="94" class="cls-128" d="M73.3.79v.94h.94V.79Zm0,0h.94v.94H73.3Z"/><path id="_95" data-name="95" class="cls-129" d="M73.3.79v.94h.94V.79Zm0,0h.94v.94H73.3Z"/><path id="_96" data-name="96" class="cls-129" d="M73.3.79v.94h.94V.79Zm0,0h.94v.94H73.3Z"/><path id="_97" data-name="97" class="cls-130" d="M73.3.79v.94h.94V.79Zm0,0h.94v.94H73.3Z"/><path id="_98" data-name="98" class="cls-131" d="M73.3.79v.94h.94V.79Zm-.07,0h1v1h-1Z"/><path id="_99" data-name="99" class="cls-132" d="M73.3.79v.94h.94V.79Zm-.07,0h1v1h-1Z"/><path id="_100" data-name="100" class="cls-132" d="M73.22.79v1h1v-1Zm0,0h1v1h-1Z"/><path id="_101" data-name="101" class="cls-133" d="M73.22.79v1h1v-1Zm0,0h1v1h-1Z"/><path id="_102" data-name="102" class="cls-134" d="M73.22.79v1h1v-1Zm0,0h1v1h-1Z"/><path id="_103" data-name="103" class="cls-135" d="M73.22.79v1h1v-1Zm0-.07H74.3V1.8H73.22Z"/><path id="_104" data-name="104" class="cls-135" d="M73.22.79v1h1v-1Zm0-.07H74.3V1.8H73.22Z"/><path id="_105" data-name="105" class="cls-136" d="M73.22.72V1.8H74.3V.72Zm0,0H74.3V1.8H73.22Z"/><path id="_106" data-name="106" class="cls-137" d="M73.22.72V1.8H74.3V.72Zm0,0H74.3V1.8H73.22Z"/><path id="_107" data-name="107" class="cls-138" d="M73.22.72V1.8H74.3V.72Zm0,0H74.3V1.8H73.22Z"/><path id="_108" data-name="108" class="cls-138" d="M73.22.72V1.8H74.3V.72Zm0,0H74.3V1.8H73.22Z"/><path id="_109" data-name="109" class="cls-139" d="M73.22.72V1.8H74.3V.72Zm0,0H74.3V1.8H73.22Z"/><path id="_110" data-name="110" class="cls-140" d="M73.22.72V1.8H74.3V.72Zm0,0H74.3V1.8H73.22Z"/><path id="_111" data-name="111" class="cls-141" d="M73.22.72V1.8H74.3V.72Zm0,0H74.3V1.8H73.22Z"/><path id="_112" data-name="112" class="cls-141" d="M73.22.72V1.8H74.3V.72Zm-.07,0H74.3V1.8H73.15Z"/><path id="_113" data-name="113" class="cls-142" d="M73.22.72V1.8H74.3V.72Zm-.07,0H74.3V1.87H73.15Z"/><path id="_114" data-name="114" class="cls-143" d="M73.15.72V1.87H74.3V.72Zm0,0H74.3V1.87H73.15Z"/><path id="_115" data-name="115" class="cls-144" d="M73.15.72V1.87H74.3V.72Zm0,0H74.3V1.87H73.15Z"/><path id="_116" data-name="116" class="cls-144" d="M73.15.72V1.87H74.3V.72Zm0,0H74.3V1.87H73.15Z"/><path id="_117" data-name="117" class="cls-145" d="M73.15.72V1.87H74.3V.72Zm0-.07H74.3V1.87H73.15Z"/><path id="_118" data-name="118" class="cls-146" d="M73.15.72V1.87H74.3V.72Zm0-.07h1.22V1.87H73.15Z"/><path id="_119" data-name="119" class="cls-147" d="M73.15.65V1.87h1.22V.65Zm0,0h1.22V1.87H73.15Z"/><path id="_120" data-name="120" class="cls-148" d="M73.15.65V1.87h1.22V.65Zm0,0h1.22V1.87H73.15Z"/><path id="_121" data-name="121" class="cls-148" d="M73.15.65V1.87h1.22V.65Zm0,0h1.22V1.87H73.15Z"/><path id="_122" data-name="122" class="cls-149" d="M73.15.65V1.87h1.22V.65Zm0,0h1.22V1.87H73.15Z"/><path id="_123" data-name="123" class="cls-150" d="M73.15.65V1.87h1.22V.65Zm0,0h1.22V1.87H73.15Z"/><path id="_124" data-name="124" class="cls-151" d="M73.15.65V1.87h1.22V.65Zm0,0h1.22V1.87H73.15Z"/><path id="_125" data-name="125" class="cls-151" d="M73.15.65V1.87h1.22V.65Zm0,0h1.22V1.87H73.15Z"/><path id="_126" data-name="126" class="cls-152" d="M73.15.65V1.87h1.22V.65Zm0,0h1.22V1.87H73.15Z"/><path id="_127" data-name="127" class="cls-153" d="M73.15.65V1.87h1.22V.65Zm-.07,0h1.3v1.3h-1.3Z"/><path id="_128" data-name="128" class="cls-154" d="M73.08.65V1.87h1.3V.65Zm0,0h1.3v1.3h-1.3Z"/><path id="_129" data-name="129" class="cls-155" d="M73.08.65v1.3h1.3V.65Zm0,0h1.3v1.3h-1.3Z"/><path id="_130" data-name="130" class="cls-156" d="M73.08.65v1.3h1.3V.65Zm0,0h1.3v1.3h-1.3Z"/><path id="_131" data-name="131" class="cls-157" d="M73.08.65v1.3h1.3V.65Zm0,0h1.3v1.3h-1.3Z"/><path id="_132" data-name="132" class="cls-158" d="M73.08.65v1.3h1.3V.65Zm0-.07h1.37V1.94H73.08Z"/><path id="_133" data-name="133" class="cls-158" d="M73.08.58V1.94h1.3V.58Zm0,0h1.37V1.94H73.08Z"/><path id="_134" data-name="134" class="cls-159" d="M73.08.58V1.94h1.37V.58Zm0,0h1.37V1.94H73.08Z"/><path id="_135" data-name="135" class="cls-160" d="M73.08.58V1.94h1.37V.58Zm0,0h1.37V1.94H73.08Z"/><path id="_136" data-name="136" class="cls-161" d="M73.08.58V1.94h1.37V.58Zm0,0h1.37V1.94H73.08Z"/><path id="_137" data-name="137" class="cls-161" d="M73.08.58V1.94h1.37V.58Zm0,0h1.37V1.94H73.08Z"/><path id="_138" data-name="138" class="cls-162" d="M73.08.58V1.94h1.37V.58Zm0,0h1.37V1.94H73.08Z"/><path id="_139" data-name="139" class="cls-163" d="M73.08.58V1.94h1.37V.58Zm0,0h1.37V1.94H73.08Z"/><path id="_140" data-name="140" class="cls-164" d="M73.08.58V1.94h1.37V.58Zm0,0h1.37V1.94H73.08Z"/><path id="_141" data-name="141" class="cls-165" d="M73.08.58V1.94h1.37V.58ZM73,.58h1.44V1.94H73Z"/><path id="_142" data-name="142" class="cls-165" d="M73.08.58V1.94h1.37V.58ZM73,.58h1.44V2H73Z"/><path id="_143" data-name="143" class="cls-166" d="M73,.58V2h1.44V.58Zm0,0h1.44V2H73Z"/><path id="_144" data-name="144" class="cls-167" d="M73,.58V2h1.44V.58Zm0,0h1.44V2H73Z"/><path id="_145" data-name="145" class="cls-168" d="M73,.58V2h1.44V.58Zm0,0h1.44V2H73Z"/><path id="_146" data-name="146" class="cls-168" d="M73,.58V2h1.44V.58ZM73,.5h1.44V2H73Z"/><path id="_147" data-name="147" class="cls-169" d="M73,.58V2h1.44V.58ZM73,.5h1.51V2H73Z"/><path id="_148" data-name="148" class="cls-170" d="M73,.5V2h1.51V.5Zm0,0h1.51V2H73Z"/><path id="_149" data-name="149" class="cls-171" d="M73,.5V2h1.51V.5Zm0,0h1.51V2H73Z"/><path id="_150" data-name="150" class="cls-171" d="M73,.5V2h1.51V.5Zm0,0h1.51V2H73Z"/><path id="_151" data-name="151" class="cls-172" d="M73,.5V2h1.51V.5Zm0,0h1.51V2H73Z"/><path id="_152" data-name="152" class="cls-173" d="M73,.5V2h1.51V.5Zm0,0h1.51V2H73Z"/><path id="_153" data-name="153" class="cls-174" d="M73,.5V2h1.51V.5Zm0,0h1.51V2H73Z"/><path id="_154" data-name="154" class="cls-174" d="M73,.5V2h1.51V.5Zm0,0h1.51V2H73Z"/><path id="_155" data-name="155" class="cls-175" d="M73,.5V2h1.51V.5Zm0,0h1.51V2H73Z"/><path id="_156" data-name="156" class="cls-176" d="M73,.5V2h1.51V.5Zm-.07,0h1.58V2.09H72.94Z"/><path id="_157" data-name="157" class="cls-177" d="M72.94.5V2.09h1.58V.5Zm0,0h1.58V2.09H72.94Z"/><path id="_158" data-name="158" class="cls-177" d="M72.94.5V2.09h1.58V.5Zm0,0h1.58V2.09H72.94Z"/><path id="_159" data-name="159" class="cls-178" d="M72.94.5V2.09h1.58V.5Zm0,0h1.58V2.09H72.94Z"/><path id="_160" data-name="160" class="cls-179" d="M72.94.5V2.09h1.58V.5Zm0,0h1.58V2.09H72.94Z"/><path id="_161" data-name="161" class="cls-180" d="M72.94.5V2.09h1.58V.5Zm0-.07h1.66V2.09H72.94Z"/><path id="_162" data-name="162" class="cls-180" d="M72.94.43V2.09h1.66V.43Zm0,0h1.66V2.09H72.94Z"/><path id="_163" data-name="163" class="cls-181" d="M72.94.43V2.09h1.66V.43Zm0,0h1.66V2.09H72.94Z"/><path id="_164" data-name="164" class="cls-182" d="M72.94.43V2.09h1.66V.43Zm0,0h1.66V2.09H72.94Z"/><path id="_165" data-name="165" class="cls-183" d="M72.94.43V2.09h1.66V.43Zm0,0h1.66V2.09H72.94Z"/><path id="_166" data-name="166" class="cls-184" d="M72.94.43V2.09h1.66V.43Zm0,0h1.66V2.09H72.94Z"/><path id="_167" data-name="167" class="cls-184" d="M72.94.43V2.09h1.66V.43Zm0,0h1.66V2.09H72.94Z"/><path id="_168" data-name="168" class="cls-185" d="M72.94.43V2.09h1.66V.43Zm0,0h1.66V2.09H72.94Z"/><path id="_169" data-name="169" class="cls-186" d="M72.94.43V2.09h1.66V.43Zm0,0h1.66V2.09H72.94Z"/><path id="_170" data-name="170" class="cls-187" d="M72.94.43V2.09h1.66V.43Zm-.07,0h1.73V2.16H72.86Z"/><path id="_171" data-name="171" class="cls-187" d="M72.86.43V2.09h1.73V.43Zm0,0h1.73V2.16H72.86Z"/><path id="_172" data-name="172" class="cls-188" d="M72.86.43V2.16h1.73V.43Zm0,0h1.73V2.16H72.86Z"/><path id="_173" data-name="173" class="cls-189" d="M72.86.43V2.16h1.73V.43Zm0,0h1.73V2.16H72.86Z"/><path id="_174" data-name="174" class="cls-190" d="M72.86.43V2.16h1.73V.43Zm0,0h1.73V2.16H72.86Z"/><path id="_175" data-name="175" class="cls-190" d="M72.86.43V2.16h1.73V.43Zm0-.07h1.8v1.8h-1.8Z"/><path id="_176" data-name="176" class="cls-191" d="M72.86.36v1.8h1.73V.36Zm0,0h1.8v1.8h-1.8Z"/><path id="_177" data-name="177" class="cls-192" d="M72.86.36v1.8h1.8V.36Zm0,0h1.8v1.8h-1.8Z"/><path id="_178" data-name="178" class="cls-193" d="M72.86.36v1.8h1.8V.36Zm0,0h1.8v1.8h-1.8Z"/><path id="_179" data-name="179" class="cls-193" d="M72.86.36v1.8h1.8V.36Zm0,0h1.8v1.8h-1.8Z"/><path id="_180" data-name="180" class="cls-194" d="M72.86.36v1.8h1.8V.36Zm0,0h1.8v1.8h-1.8Z"/><path id="_181" data-name="181" class="cls-195" d="M72.86.36v1.8h1.8V.36Zm0,0h1.8v1.8h-1.8Z"/><path id="_182" data-name="182" class="cls-196" d="M72.86.36v1.8h1.8V.36Zm0,0h1.8v1.8h-1.8Z"/><path id="_183" data-name="183" class="cls-196" d="M72.86.36v1.8h1.8V.36Zm0,0h1.8v1.8h-1.8Z"/><path id="_184" data-name="184" class="cls-197" d="M72.86.36v1.8h1.8V.36Zm-.07,0h1.87v1.8H72.79Z"/><path id="_185" data-name="185" class="cls-198" d="M72.86.36v1.8h1.8V.36Zm-.07,0h1.87V2.23H72.79Z"/><path id="_186" data-name="186" class="cls-199" d="M72.79.36V2.23h1.87V.36Zm0,0h1.87V2.23H72.79Z"/><path id="_187" data-name="187" class="cls-200" d="M72.79.36V2.23h1.87V.36Zm0,0h1.87V2.23H72.79Z"/><path id="_188" data-name="188" class="cls-200" d="M72.79.36V2.23h1.87V.36Zm0,0h1.87V2.23H72.79Z"/><path id="_189" data-name="189" class="cls-201" d="M72.79.36V2.23h1.87V.36Zm0-.07h1.87V2.23H72.79Z"/><path id="_190" data-name="190" class="cls-202" d="M72.79.36V2.23h1.87V.36Zm0-.07h1.94V2.23H72.79Z"/><path id="_191" data-name="191" class="cls-203" d="M72.79.29V2.23h1.94V.29Zm0,0h1.94V2.23H72.79Z"/><path id="_192" data-name="192" class="cls-203" d="M72.79.29V2.23h1.94V.29Zm0,0h1.94V2.23H72.79Z"/><path id="_193" data-name="193" class="cls-204" d="M72.79.29V2.23h1.94V.29Zm0,0h1.94V2.23H72.79Z"/><path id="_194" data-name="194" class="cls-205" d="M72.79.29V2.23h1.94V.29Zm0,0h1.94V2.23H72.79Z"/><path id="_195" data-name="195" class="cls-206" d="M72.79.29V2.23h1.94V.29Zm0,0h1.94V2.23H72.79Z"/><path id="_196" data-name="196" class="cls-206" d="M72.79.29V2.23h1.94V.29Zm0,0h1.94V2.23H72.79Z"/><path id="_197" data-name="197" class="cls-207" d="M72.79.29V2.23h1.94V.29Zm0,0h1.94V2.23H72.79Z"/><path id="_198" data-name="198" class="cls-208" d="M72.79.29V2.23h1.94V.29Zm0,0h1.94V2.23H72.79Z"/><path id="_199" data-name="199" class="cls-209" d="M72.79.29V2.23h1.94V.29Zm-.07,0h2v2h-2Z"/><path id="_200" data-name="200" class="cls-209" d="M72.72.29V2.23h2V.29Zm0,0h2v2h-2Z"/><path id="_201" data-name="201" class="cls-210" d="M72.72.29v2h2v-2Zm0,0h2v2h-2Z"/><path id="_202" data-name="202" class="cls-211" d="M72.72.29v2h2v-2Zm0,0h2v2h-2Z"/><path id="_203" data-name="203" class="cls-212" d="M72.72.29v2h2v-2Zm0,0h2v2h-2Z"/><path id="_204" data-name="204" class="cls-212" d="M72.72.29v2h2v-2Zm0-.07h2.09V2.3H72.72Z"/><path id="_205" data-name="205" class="cls-213" d="M72.72.22V2.3h2V.22Zm0,0h2.09V2.3H72.72Z"/><path id="_206" data-name="206" class="cls-214" d="M72.72.22V2.3h2.09V.22Zm0,0h2.09V2.3H72.72Z"/><path id="_207" data-name="207" class="cls-215" d="M72.72.22V2.3h2.09V.22Zm0,0h2.09V2.3H72.72Z"/><path id="_208" data-name="208" class="cls-216" d="M72.72.22V2.3h2.09V.22Zm0,0h2.09V2.3H72.72Z"/><path id="_209" data-name="209" class="cls-217" d="M72.72.22V2.3h2.09V.22Zm0,0h2.09V2.3H72.72Z"/><path id="_210" data-name="210" class="cls-218" d="M72.72.22V2.3h2.09V.22Zm0,0h2.09V2.3H72.72Z"/><path id="_211" data-name="211" class="cls-219" d="M72.72.22V2.3h2.09V.22Zm0,0h2.09V2.3H72.72Z"/><path id="_212" data-name="212" class="cls-220" d="M72.72.22V2.3h2.09V.22Zm0,0h2.09V2.3H72.72Z"/><path id="_213" data-name="213" class="cls-220" d="M72.72.22V2.3h2.09V.22Zm-.07,0h2.16V2.38H72.65Z"/><path id="_214" data-name="214" class="cls-221" d="M72.72.22V2.3h2.09V.22Zm-.07,0h2.16V2.38H72.65Z"/><path id="_215" data-name="215" class="cls-222" d="M72.65.22V2.38h2.16V.22Zm0,0h2.16V2.38H72.65Z"/><path id="_216" data-name="216" class="cls-223" d="M72.65.22V2.38h2.16V.22Zm0,0h2.16V2.38H72.65Z"/><path id="_217" data-name="217" class="cls-224" d="M72.65.22V2.38h2.16V.22Zm0,0h2.16V2.38H72.65Z"/><path id="_218" data-name="218" class="cls-225" d="M72.65.22V2.38h2.16V.22Zm0-.07h2.23V2.38H72.65Z"/><path id="_219" data-name="219" class="cls-226" d="M72.65.22V2.38h2.16V.22Zm0-.07h2.23V2.38H72.65Z"/><path id="_220" data-name="220" class="cls-227" d="M72.65.14V2.38h2.23V.14Zm0,0h2.23V2.38H72.65Z"/><path id="_221" data-name="221" class="cls-227" d="M72.65.14V2.38h2.23V.14Zm0,0h2.23V2.38H72.65Z"/><path id="_222" data-name="222" class="cls-228" d="M72.65.14V2.38h2.23V.14Zm0,0h2.23V2.38H72.65Z"/><path id="_223" data-name="223" class="cls-229" d="M72.65.14V2.38h2.23V.14Zm0,0h2.23V2.38H72.65Z"/><path id="_224" data-name="224" class="cls-230" d="M72.65.14V2.38h2.23V.14Zm0,0h2.23V2.38H72.65Z"/><path id="_225" data-name="225" class="cls-230" d="M72.65.14V2.38h2.23V.14Zm0,0h2.23V2.38H72.65Z"/><path id="_226" data-name="226" class="cls-231" d="M72.65.14V2.38h2.23V.14Zm0,0h2.23V2.38H72.65Z"/><path id="_227" data-name="227" class="cls-232" d="M72.65.14V2.38h2.23V.14Zm0,0h2.23V2.38H72.65Z"/><path id="_228" data-name="228" class="cls-233" d="M72.65.14V2.38h2.23V.14Zm-.07,0h2.3v2.3h-2.3Z"/><path id="_229" data-name="229" class="cls-233" d="M72.58.14v2.3h2.3V.14Zm0,0h2.3v2.3h-2.3Z"/><path id="_230" data-name="230" class="cls-234" d="M72.58.14v2.3h2.3V.14Zm0,0h2.3v2.3h-2.3Z"/><path id="_231" data-name="231" class="cls-235" d="M72.58.14v2.3h2.3V.14Zm0,0h2.3v2.3h-2.3Z"/><path id="_232" data-name="232" class="cls-236" d="M72.58.14v2.3h2.3V.14Zm0-.07h2.3V2.45h-2.3Z"/><path id="_233" data-name="233" class="cls-237" d="M72.58.14v2.3h2.3V.14Zm0-.07H75V2.45H72.58Z"/><path id="_234" data-name="234" class="cls-237" d="M72.58.07V2.45H75V.07Zm0,0H75V2.45H72.58Z"/><path id="_235" data-name="235" class="cls-238" d="M72.58.07V2.45H75V.07Zm0,0H75V2.45H72.58Z"/><path id="_236" data-name="236" class="cls-239" d="M72.58.07V2.45H75V.07Zm0,0H75V2.45H72.58Z"/><path id="_237" data-name="237" class="cls-240" d="M72.58.07V2.45H75V.07Zm0,0H75V2.45H72.58Z"/><path id="_238" data-name="238" class="cls-240" d="M72.58.07V2.45H75V.07Zm0,0H75V2.45H72.58Z"/><path id="_239" data-name="239" class="cls-241" d="M72.58.07V2.45H75V.07Zm0,0H75V2.45H72.58Z"/><path id="_240" data-name="240" class="cls-242" d="M72.58.07V2.45H75V.07Zm0,0H75V2.45H72.58Z"/><path id="_241" data-name="241" class="cls-243" d="M72.58.07V2.45H75V.07Zm0,0H75V2.45H72.58Z"/><path id="_242" data-name="242" class="cls-243" d="M72.58.07V2.45H75V.07Zm-.07,0H75V2.52H72.5Z"/><path id="_243" data-name="243" class="cls-244" d="M72.5.07V2.45H75V.07Zm0,0H75V2.52H72.5Z"/><path id="_244" data-name="244" class="cls-245" d="M72.5.07V2.52H75V.07Zm0,0H75V2.52H72.5Z"/><path id="_245" data-name="245" class="cls-246" d="M72.5.07V2.52H75V.07Zm0,0H75V2.52H72.5Z"/><path id="_246" data-name="246" class="cls-246" d="M72.5.07V2.52H75V.07Zm0,0H75V2.52H72.5Z"/><path id="_247" data-name="247" class="cls-247" d="M72.5.07V2.52H75V.07Zm0-.07H75V2.52H72.5Z"/><path id="_248" data-name="248" class="cls-248" d="M72.5,0V2.52H75V0Zm0,0H75V2.52H72.5Z"/><path id="_249" data-name="249" class="cls-249" d="M72.5,0V2.52H75V0Zm0,0H75V2.52H72.5Z"/><path id="_250" data-name="250" class="cls-249" d="M72.5,0V2.52H75V0Zm0,0H75V2.52H72.5Z"/><path id="_251" data-name="251" class="cls-250" d="M72.5,0V2.52H75V0Zm0,0H75V2.52H72.5Z"/><path id="_252" data-name="252" class="cls-251" d="M72.5,0V2.52H75V0Zm0,0H75V2.52H72.5Z"/><path id="_253" data-name="253" class="cls-252" d="M72.5,0V2.52H75V0Zm0,0H75V2.52H72.5Z"/><path id="_254" data-name="254" class="cls-252" d="M72.5,0V2.52H75V0Zm0,0H75V2.52H72.5Z"/><path id="_255" data-name="255" class="cls-253" d="M72.5,0V2.52H75V0Zm0,0H75V2.52H72.5Z"/><path id="_256" data-name="256" class="cls-54" d="M72.5,0V2.52H75V0Zm0,0H75V2.52H72.5Z"/></g><rect class="cls-7" x="33.7" y="64.58" width="32.26" height="83.52"/><rect class="cls-254" x="36.72" y="61.13" width="26.24" height="3.4"/><path class="cls-255" d="M61.49,90.72A.92.92,0,0,0,61.2,90L51.12,79.92a1,1,0,0,0-1.44,0L39.6,90a.92.92,0,0,0-.29.72Z"/><path class="cls-255" d="M62.93,67.54a.92.92,0,0,0-.72.29L52,78a1.13,1.13,0,0,0,0,1.58L62.21,89.71a1,1,0,0,0,.72.36Z"/><path class="cls-255" d="M38.66,67.54a1.15,1.15,0,0,0,.36.72l10,10a1,1,0,0,0,1.51,0l10-10a1.15,1.15,0,0,0,.36-.72Z"/><path class="cls-255" d="M37.22,90.72a1.08,1.08,0,0,0,.79-.29L48.17,80.21a1,1,0,0,0,0-1.51L38,68.47a1.51,1.51,0,0,0-.79-.29Z"/><path class="cls-255" d="M61.49,91.51a1.08,1.08,0,0,1-.29.79l-10.08,10a1,1,0,0,1-1.44,0L39.6,92.3a1.08,1.08,0,0,1-.29-.79Z"/><path class="cls-255" d="M62.93,114.77a1,1,0,0,1-.72-.36L52,104.26a1,1,0,0,1,0-1.51L62.21,92.52a.92.92,0,0,1,.72-.29Z"/><path class="cls-255" d="M38.66,114.77A1.16,1.16,0,0,1,39,114l10-10a1,1,0,0,1,1.51,0l10,10a1.16,1.16,0,0,1,.36.79Z"/><path class="cls-255" d="M37.22,91.51a1.16,1.16,0,0,1,.79.36L48.17,102a1,1,0,0,1,0,1.51L38,113.76a1.08,1.08,0,0,1-.79.29Z"/><path class="cls-255" d="M61.49,138.89a1,1,0,0,0-.29-.72L51.12,128.09a1.09,1.09,0,0,0-1.44,0L39.6,138.17a1,1,0,0,0-.29.72Z"/><path class="cls-255" d="M62.93,115.7a.92.92,0,0,0-.72.29L52,126.22a1,1,0,0,0,0,1.51l10.22,10.15a1,1,0,0,0,.72.36Z"/><path class="cls-255" d="M38.66,115.7a1,1,0,0,0,.36.72L49,126.5a1.19,1.19,0,0,0,1.51,0l10-10.08a1,1,0,0,0,.36-.72Z"/><path class="cls-255" d="M37.22,138.89a1.08,1.08,0,0,0,.79-.29l10.15-10.22a1,1,0,0,0,0-1.51L38,116.71a1.16,1.16,0,0,0-.79-.36Z"/><rect class="cls-256" x="59.62" y="79.49" width="12.67" height="68.62"/><rect class="cls-256" x="27.36" y="79.49" width="12.67" height="68.62"/><rect class="cls-257" x="29.38" y="83.38" width="8.61" height="1.98"/><rect class="cls-257" x="29.38" y="86.69" width="8.61" height="1.98"/><rect class="cls-257" x="29.38" y="90" width="8.61" height="1.98"/><rect class="cls-257" x="29.38" y="93.24" width="8.61" height="1.98"/><rect class="cls-257" x="29.38" y="96.55" width="8.61" height="1.98"/><rect class="cls-257" x="29.38" y="99.86" width="8.61" height="1.98"/><rect class="cls-257" x="29.38" y="103.18" width="8.61" height="1.98"/><rect class="cls-257" x="29.38" y="106.49" width="8.61" height="1.98"/><rect class="cls-257" x="29.38" y="109.8" width="8.61" height="1.98"/><rect class="cls-257" x="29.38" y="113.11" width="8.61" height="1.98"/><rect class="cls-257" x="29.38" y="116.35" width="8.61" height="1.98"/><rect class="cls-257" x="29.38" y="119.66" width="8.61" height="1.98"/><rect class="cls-257" x="29.38" y="122.98" width="8.61" height="1.98"/><rect class="cls-257" x="29.38" y="126.29" width="8.61" height="1.98"/><rect class="cls-257" x="29.38" y="129.6" width="8.61" height="1.98"/><rect class="cls-257" x="29.38" y="132.91" width="8.61" height="1.98"/><rect class="cls-257" x="29.38" y="136.22" width="8.61" height="1.98"/><rect class="cls-257" x="29.38" y="139.54" width="8.61" height="1.98"/><rect class="cls-257" x="61.63" y="83.38" width="8.61" height="1.98"/><rect class="cls-257" x="61.63" y="86.69" width="8.61" height="1.98"/><rect class="cls-257" x="61.63" y="90" width="8.61" height="1.98"/><rect class="cls-257" x="61.63" y="93.24" width="8.61" height="1.98"/><rect class="cls-257" x="61.63" y="96.55" width="8.61" height="1.98"/><rect class="cls-257" x="61.63" y="99.86" width="8.61" height="1.98"/><rect class="cls-257" x="61.63" y="103.18" width="8.61" height="1.98"/><rect class="cls-257" x="61.63" y="106.49" width="8.61" height="1.98"/><rect class="cls-257" x="61.63" y="109.8" width="8.61" height="1.98"/><rect class="cls-257" x="61.63" y="113.11" width="8.61" height="1.98"/><rect class="cls-257" x="61.63" y="116.35" width="8.61" height="1.98"/><rect class="cls-257" x="61.63" y="119.66" width="8.61" height="1.98"/><rect class="cls-257" x="61.63" y="122.98" width="8.61" height="1.98"/><rect class="cls-257" x="61.63" y="126.29" width="8.61" height="1.98"/><rect class="cls-257" x="61.63" y="129.6" width="8.61" height="1.98"/><rect class="cls-257" x="61.63" y="132.91" width="8.61" height="1.98"/><rect class="cls-257" x="61.63" y="136.22" width="8.61" height="1.98"/><rect class="cls-257" x="61.63" y="139.54" width="8.61" height="1.98"/><rect class="cls-2" x="73.58" y="111.53" width="3.42" height="13.99"/><rect class="cls-258" x="74.23" y="110.45" width="2.2" height="1.08"/><rect class="cls-259" x="75.1" y="103.03" width="0.45" height="7.4"/><polygon class="cls-260" points="79.13 106.99 75.53 103.03 75.53 106.99 79.13 106.99"/><rect class="cls-2" x="22.1" y="111.53" width="3.42" height="13.99"/><rect class="cls-258" x="22.68" y="110.45" width="2.2" height="1.08"/><rect class="cls-259" x="23.54" y="103.03" width="0.45" height="7.4"/><polygon class="cls-261" points="19.94 106.99 23.54 103.03 23.54 106.99 19.94 106.99"/><rect class="cls-2" x="19.44" y="133.42" width="4.28" height="17.5"/><rect class="cls-258" x="20.23" y="132.05" width="2.75" height="1.35"/><rect class="cls-259" x="21.31" y="122.76" width="0.56" height="9.26"/><polygon class="cls-262" points="26.42 127.66 21.89 122.76 21.89 127.66 26.42 127.66"/><polygon class="cls-263" points="83.09 128.02 78.62 123.19 78.62 128.02 83.09 128.02"/><rect class="cls-2" x="76.25" y="133.63" width="4.22" height="17.25"/><rect class="cls-258" x="76.97" y="132.34" width="2.71" height="1.33"/><rect class="cls-259" x="78.05" y="123.19" width="0.55" height="9.12"/><g id="_1595257070976" data-name=" 1595257070976"><path class="cls-264" d="M72,170.35c0-2.16-2.59-4-5.69-4s-5.62,1.8-5.62,4Z"/><path class="cls-265" d="M57.89,144.72H83a.74.74,0,0,1,.79.72v10.3a.79.79,0,0,1-.79.72H57.89a.77.77,0,0,1-.72-.72v-10.3A.72.72,0,0,1,57.89,144.72Z"/><path class="cls-8" d="M83.81,155.09H57.17v-9.65a.72.72,0,0,1,.72-.72H83a.74.74,0,0,1,.79.72Z"/><polygon class="cls-10" points="58.1 154.3 58.1 154.3 58.1 154.3 58.1 145.73 58.1 145.73 82.8 145.73 82.8 145.73 82.8 154.3 58.1 154.3"/><rect class="cls-254" x="65.45" y="156.46" width="1.72" height="13.94"/><polygon class="cls-8" points="65.45 156.46 65.45 158.4 67.18 157.32 67.18 156.46 65.45 156.46"/><rect class="cls-254" x="73.3" y="156.46" width="1.72" height="13.94"/><polygon class="cls-8" points="73.3 156.46 73.3 158.4 74.95 157.32 74.95 156.46 73.3 156.46"/><path class="cls-266" d="M77.11,170.35c0-1.22-1.44-2.3-3.24-2.3s-3.31,1.08-3.31,2.3Z"/></g><g id="_1595257070112" data-name=" 1595257070112"><circle class="cls-267" cx="12.02" cy="112.03" r="3.24"/><circle class="cls-267" cx="12.02" cy="116.57" r="4.18"/><polygon class="cls-7" points="11.88 110.3 11.59 122.76 12.02 122.76 12.38 122.76 12.1 110.3 12.02 110.3 11.88 110.3"/><rect class="cls-7" x="11.7" y="113.01" width="2.17" height="0.18" transform="translate(-76.23 42.16) rotate(-45)"/><rect class="cls-7" x="11.1" y="112.01" width="0.18" height="2.17" transform="translate(-76.69 41.04) rotate(-45)"/><rect class="cls-7" x="11.55" y="117.87" width="3.24" height="0.27" transform="translate(-79.58 43.88) rotate(-45)"/><rect class="cls-7" x="10.66" y="116.38" width="0.27" height="3.24" transform="translate(-80.28 42.2) rotate(-45)"/></g></g></g></g></g></svg>
