<?xml version="1.0" encoding="UTF-8"?>
<!DOCTYPE svg PUBLIC "-//W3C//DTD SVG 1.1//EN" "http://www.w3.org/Graphics/SVG/1.1/DTD/svg11.dtd">
<!-- Creator: CorelDRAW X7 -->
<svg xmlns="http://www.w3.org/2000/svg" xml:space="preserve" width="4.59406in" height="4.88665in" version="1.1" style="shape-rendering:geometricPrecision; text-rendering:geometricPrecision; image-rendering:optimizeQuality; fill-rule:evenodd; clip-rule:evenodd"
viewBox="0 0 4594 4887"
 xmlns:xlink="http://www.w3.org/1999/xlink">
 <defs>
  <style type="text/css">
   <![CDATA[
    .fil9 {fill:#E62129}
    .fil3 {fill:#E62129}
    .fil1 {fill:#12898D}
    .fil7 {fill:#12898D}
    .fil6 {fill:#F2FF00}
    .fil8 {fill:#F2FF00}
    .fil5 {fill:#F3E400}
    .fil4 {fill:#F69320}
    .fil10 {fill:#34CCE1}
    .fil2 {fill:#006984}
    .fil0 {fill:#F69320;fill-rule:nonzero}
   ]]>
  </style>
 </defs>
 <g id="Layer_x0020_1">
  <metadata id="CorelCorpID_0Corel-Layer"/>
  <g id="_1795223070640">
   <g>
    <path class="fil0" d="M3428 2367l-171 0 0 0 -2 -111 -5 -111 -7 -108 -11 -107 -13 -105 -16 -103 -19 -100 -22 -98 -24 -96 -26 -93 -29 -90 -31 -88 -34 -84 -35 -81 -37 -77 -39 -74 -41 -71 -43 -66 -44 -63 -46 -58 -47 -55 -48 -49 -50 -46 -50 -41 -51 -36 -52 -32 -53 -27 -53 -22 -54 -17 -54 -13 -55 -7 -56 -3 0 -171 72 3 70 10 69 15 67 22 66 28 65 32 62 39 61 43 59 48 57 52 54 57 53 61 51 65 49 69 47 73 44 77 43 80 40 83 38 87 35 89 33 93 31 95 28 99 25 100 23 104 19 105 17 108 15 110 11 111 8 114 4 115 2 116 0 0zm-1318 2304l0 -172 0 0 56 -2 55 -8 54 -12 54 -17 53 -23 53 -26 52 -32 51 -36 50 -41 50 -46 48 -50 47 -54 46 -59 44 -62 43 -67 41 -70 39 -74 37 -78 35 -81 34 -84 31 -87 29 -90 26 -93 24 -96 22 -98 19 -101 16 -103 13 -104 11 -107 7 -109 5 -110 2 -112 171 0 -2 117 -4 115 -8 113 -11 112 -15 110 -17 107 -19 106 -23 103 -25 101 -28 98 -31 96 -33 92 -35 90 -38 87 -40 83 -43 80 -44 77 -47 72 -49 70 -51 65 -53 61 -54 57 -57 52 -59 48 -61 43 -62 38 -65 33 -66 27 -67 22 -69 16 -70 9 -72 4 0 0zm-1317 -2304l171 0 0 0 2 112 4 110 8 109 10 107 14 104 16 103 19 101 22 98 24 96 26 93 29 90 31 87 33 84 36 81 37 78 39 74 41 70 43 67 44 62 46 59 47 54 48 50 49 46 51 41 51 36 52 32 52 26 54 23 53 17 55 12 55 8 55 2 0 172 -71 -4 -70 -9 -69 -16 -68 -22 -66 -27 -64 -33 -62 -38 -61 -43 -59 -48 -57 -52 -55 -57 -53 -61 -51 -65 -48 -70 -47 -72 -45 -77 -42 -80 -40 -83 -38 -87 -36 -90 -33 -92 -30 -96 -28 -98 -25 -101 -23 -103 -20 -106 -17 -107 -14 -110 -11 -112 -8 -113 -5 -115 -1 -117 0 0zm1317 -2303l0 171 0 0 -55 3 -55 7 -55 13 -53 17 -54 22 -52 27 -52 32 -51 36 -51 41 -49 46 -48 49 -47 55 -46 58 -44 63 -43 66 -41 71 -39 74 -37 77 -36 81 -33 84 -31 88 -29 90 -26 93 -24 96 -22 98 -19 100 -16 103 -14 105 -10 107 -8 108 -4 111 -2 111 -171 0 1 -116 5 -115 8 -114 11 -111 14 -110 17 -108 20 -105 23 -104 25 -100 28 -99 30 -95 33 -93 36 -89 38 -87 40 -83 42 -80 45 -77 47 -73 48 -69 51 -65 53 -61 55 -57 57 -52 59 -48 61 -43 62 -39 64 -32 66 -28 68 -22 69 -15 70 -10 71 -3 0 0z"/>
   </g>
   <g>
    <path class="fil0" d="M2769 3509l-85 -149 0 0 95 -57 94 -59 90 -61 87 -63 84 -64 81 -65 78 -67 74 -68 71 -68 67 -70 64 -70 60 -70 56 -71 52 -71 49 -71 45 -71 40 -71 36 -70 32 -70 28 -69 24 -68 19 -66 14 -66 11 -64 6 -62 1 -61 -3 -59 -7 -57 -12 -56 -17 -53 -21 -51 -25 -50 148 -85 33 63 27 65 21 68 15 69 9 71 3 72 -1 74 -7 74 -12 75 -17 75 -22 76 -26 76 -31 77 -36 77 -40 77 -43 77 -49 76 -52 77 -56 76 -60 76 -64 74 -67 75 -71 73 -75 72 -78 71 -81 70 -85 69 -88 67 -91 65 -94 64 -98 62 -100 60 0 0zm-2653 10l148 -86 0 0 30 47 34 44 38 41 42 38 46 35 49 32 54 29 57 26 60 23 64 20 68 17 70 14 74 10 76 7 79 4 81 0 84 -3 86 -6 88 -10 89 -14 91 -16 93 -20 94 -24 95 -27 95 -30 97 -34 97 -38 98 -40 97 -45 98 -47 98 -51 98 -55 85 149 -102 56 -102 54 -102 49 -102 47 -102 42 -102 40 -101 35 -101 32 -100 29 -99 25 -98 21 -97 18 -95 14 -94 10 -92 7 -91 4 -88 -1 -87 -4 -84 -8 -82 -11 -79 -15 -77 -20 -74 -23 -71 -27 -67 -31 -65 -35 -60 -39 -57 -43 -53 -48 -48 -52 -43 -56 -38 -60 0 0zm1335 -2293l86 149 0 0 -96 57 -93 59 -90 61 -87 62 -84 64 -81 66 -78 67 -74 67 -71 69 -67 69 -64 70 -60 71 -56 71 -53 71 -48 71 -45 71 -40 71 -37 70 -32 69 -27 69 -24 68 -19 67 -15 65 -10 65 -6 62 -1 61 3 59 7 57 12 55 16 54 21 51 26 49 -148 86 -33 -63 -27 -66 -21 -67 -15 -70 -9 -71 -4 -72 2 -73 7 -74 12 -75 17 -76 22 -76 26 -76 31 -77 35 -76 40 -77 44 -77 48 -77 52 -76 57 -76 59 -76 64 -75 68 -74 71 -73 74 -73 79 -71 81 -70 85 -68 88 -67 91 -66 94 -64 97 -61 100 -60 0 0zm2654 -10l-148 85 0 0 -30 -47 -34 -43 -38 -41 -42 -38 -46 -35 -49 -32 -54 -30 -57 -26 -61 -23 -64 -20 -67 -17 -71 -13 -73 -11 -76 -7 -79 -3 -82 -1 -83 3 -86 7 -88 10 -90 13 -91 17 -92 20 -94 24 -95 27 -96 30 -96 34 -97 37 -98 41 -98 44 -98 48 -97 51 -98 55 -86 -149 102 -57 102 -53 102 -50 103 -46 102 -43 102 -39 101 -35 101 -33 100 -28 99 -25 98 -21 96 -18 96 -14 94 -11 92 -7 90 -3 89 0 86 4 85 8 82 12 79 15 77 19 73 23 71 27 68 31 64 35 61 40 57 43 52 48 48 52 44 56 38 60 0 0z"/>
   </g>
   <path class="fil1" d="M3438 464l0 0c-30,0 -55,-25 -55,-55l0 -117 -117 0c-30,0 -55,-25 -55,-55l0 0c0,-31 25,-55 55,-55l117 0 0 -117c0,-31 25,-55 55,-55l0 0c31,0 55,24 55,55l0 117 117 0c30,0 55,24 55,55l0 0c0,30 -25,55 -55,55l-117 0 0 117c0,30 -24,55 -55,55z"/>
   <path class="fil2" d="M4572 2610l0 0c-22,22 -57,22 -78,0l-83 -82 -82 82c-22,22 -57,22 -78,0l0 0c-22,-21 -22,-56 0,-77l83 -83 -83 -83c-22,-21 -22,-56 0,-77l0 0c21,-22 56,-22 78,0l82 82 83 -82c21,-22 56,-22 78,0l0 0c21,21 21,56 0,77l-83 83 83 83c21,21 21,56 0,77z"/>
   <path class="fil3" d="M1020 4702l0 0c-15,27 -49,35 -75,20l-101 -59 -59 101c-15,26 -49,35 -75,20l0 0c-26,-16 -35,-50 -20,-76l60 -101 -101 -59c-27,-15 -35,-49 -20,-75l0 0c15,-26 49,-35 75,-20l101 60 59 -101c16,-26 49,-35 75,-20l0 0c27,15 35,49 20,75l-59 101 101 59c26,16 35,49 19,75z"/>
   <path class="fil4" d="M841 402l0 0c-13,13 -34,13 -48,0l-51 -51 -51 51c-13,13 -35,13 -48,0l0 0c-13,-13 -13,-35 0,-48l51 -51 -51 -51c-13,-13 -13,-35 0,-48l0 0c13,-13 35,-13 48,0l51 51 51 -51c14,-13 35,-13 48,0l0 0c14,13 14,35 0,48l-51 51 51 51c14,13 14,35 0,48z"/>
   <path class="fil5" d="M3409 4458l0 0c-18,5 -36,-6 -41,-24l-18 -70 -70 17c-18,5 -37,-6 -41,-24l0 0c-5,-18 6,-37 24,-41l70 -18 -18 -70c-4,-18 7,-37 25,-41l0 0c18,-5 36,6 41,24l18 70 70 -18c18,-4 37,7 41,25l0 0c5,18 -6,36 -24,41l-70 18 18 70c4,18 -7,36 -25,41z"/>
   <circle class="fil6" cx="2526" cy="891" r="227"/>
   <g>
    <path class="fil0" d="M1451 3509l86 -149 0 0 98 55 97 51 98 47 98 45 98 40 97 38 96 34 96 30 95 27 94 24 92 20 91 16 90 14 88 10 86 6 83 3 82 0 79 -4 76 -7 73 -10 71 -14 67 -17 64 -20 61 -23 57 -26 54 -29 49 -32 46 -35 42 -38 38 -41 34 -44 30 -47 148 86 -38 60 -44 56 -48 52 -52 48 -57 43 -61 39 -64 35 -68 31 -71 27 -73 23 -77 20 -79 15 -82 11 -85 8 -86 4 -89 1 -90 -4 -92 -7 -94 -10 -96 -14 -96 -18 -98 -21 -99 -25 -100 -29 -101 -32 -101 -35 -102 -40 -102 -42 -103 -47 -102 -49 -102 -54 -102 -56 0 0zm-1335 -2293l148 85 0 0 -26 50 -21 51 -16 53 -12 56 -7 57 -3 59 1 61 6 62 10 64 15 66 19 66 24 68 27 69 32 70 37 70 40 71 45 71 48 71 53 71 56 71 60 70 64 70 67 70 71 68 74 68 78 67 81 65 84 64 87 63 90 61 93 59 96 57 -86 149 -100 -60 -97 -62 -94 -64 -91 -65 -88 -67 -85 -69 -81 -70 -79 -71 -74 -72 -71 -73 -68 -75 -64 -74 -59 -76 -57 -76 -52 -77 -48 -76 -44 -77 -40 -77 -35 -77 -31 -77 -26 -76 -22 -76 -17 -75 -12 -75 -7 -74 -2 -74 4 -72 9 -71 15 -69 21 -68 27 -65 33 -63 0 0zm2653 10l-85 149 0 0 -98 -55 -98 -51 -98 -48 -97 -44 -98 -41 -97 -37 -97 -34 -95 -30 -95 -27 -94 -24 -93 -20 -91 -17 -89 -13 -88 -10 -86 -7 -84 -3 -81 1 -79 3 -76 7 -74 11 -70 13 -68 17 -64 20 -60 23 -57 26 -54 30 -49 32 -46 35 -42 38 -38 41 -34 43 -30 47 -148 -85 38 -60 43 -56 48 -52 53 -48 57 -43 60 -40 65 -35 67 -31 71 -27 74 -23 77 -19 79 -15 82 -12 84 -8 87 -4 88 0 91 3 92 7 94 11 95 14 97 18 98 21 99 25 100 28 101 33 101 35 102 39 102 43 102 46 102 50 102 53 102 57 0 0zm1336 2293l-148 -86 0 0 25 -49 21 -51 17 -54 12 -55 7 -57 3 -59 -1 -61 -6 -62 -11 -65 -14 -65 -19 -67 -24 -68 -28 -69 -32 -69 -36 -70 -40 -71 -45 -71 -49 -71 -52 -71 -56 -71 -60 -71 -64 -70 -67 -69 -71 -69 -74 -67 -78 -67 -81 -66 -84 -64 -87 -62 -90 -61 -94 -59 -95 -57 85 -149 100 60 98 61 94 64 91 66 88 67 85 68 81 70 78 71 75 73 71 73 67 74 64 75 60 76 56 76 52 76 49 77 43 77 40 77 36 76 31 77 26 76 22 76 17 76 12 75 7 74 1 73 -3 72 -9 71 -15 70 -21 67 -27 66 -33 63 0 0z"/>
   </g>
   <circle class="fil6" cx="335" cy="2367" r="227"/>
   <circle class="fil6" cx="3136" cy="3610" r="227"/>
   <g>
    <g>
     <path class="fil0" d="M2713 1906l-171 0 0 0 0 0 0 1 0 -1 -1 -1 -1 -2 -3 -4 -3 -4 -5 -4 -7 -6 -7 -5 -9 -6 -10 -6 -11 -7 -12 -6 -14 -6 -14 -6 -16 -5 -16 -6 -17 -5 -18 -5 -19 -5 -20 -4 -20 -4 -21 -4 -22 -3 -22 -3 -23 -3 -23 -2 -24 -1 -24 -2 -25 0 -25 -1 0 -171 29 0 28 1 27 1 27 2 27 3 26 3 26 3 25 4 25 4 24 5 24 5 23 6 23 6 21 7 21 7 21 8 20 8 19 8 18 9 18 10 17 10 16 11 15 12 15 12 13 14 13 14 11 16 11 17 8 19 7 19 4 21 1 22 0 0zm-603 286l0 -171 0 0 25 0 25 -1 24 -1 24 -2 23 -2 23 -3 22 -3 22 -3 21 -4 20 -4 20 -4 19 -5 18 -5 17 -5 16 -6 16 -5 14 -6 14 -6 12 -6 11 -6 10 -6 9 -6 7 -6 7 -5 5 -5 3 -4 3 -3 1 -3 1 -1 0 -1 0 1 0 1 171 0 -1 21 -4 21 -7 20 -8 18 -11 17 -11 16 -13 14 -13 14 -15 12 -15 12 -16 11 -17 10 -18 10 -18 9 -19 8 -20 9 -21 7 -21 7 -21 7 -23 6 -23 6 -24 5 -24 5 -25 4 -25 4 -26 4 -26 2 -27 3 -27 2 -27 1 -28 1 -29 0 0 0zm-602 -286l171 0 0 0 0 -1 0 -1 0 1 1 1 1 3 3 3 3 4 5 5 6 5 8 6 8 6 10 6 12 6 12 6 13 6 15 6 15 5 17 6 17 5 18 5 19 5 20 4 20 4 21 4 22 3 22 3 23 3 23 2 24 2 24 1 24 1 25 0 0 171 -28 0 -28 -1 -27 -1 -28 -2 -26 -3 -27 -2 -25 -4 -26 -4 -25 -4 -24 -5 -23 -5 -23 -6 -23 -6 -22 -7 -21 -7 -20 -7 -20 -9 -19 -8 -18 -9 -18 -10 -17 -10 -16 -11 -15 -12 -15 -12 -14 -14 -12 -14 -12 -16 -10 -17 -8 -18 -7 -20 -4 -21 -1 -21 0 0zm602 -287l0 171 0 0 -25 1 -24 0 -24 2 -24 1 -23 2 -23 3 -22 3 -22 3 -21 4 -20 4 -20 4 -19 5 -18 5 -17 5 -17 6 -15 5 -15 6 -13 6 -12 6 -12 7 -10 6 -8 6 -8 5 -6 6 -5 4 -3 4 -3 4 -1 2 -1 1 0 1 0 -1 0 0 -171 0 1 -22 4 -21 7 -19 8 -19 10 -17 12 -16 12 -14 14 -14 15 -12 15 -12 16 -11 17 -10 18 -10 18 -9 19 -8 20 -8 20 -8 21 -7 22 -7 23 -6 23 -6 23 -5 24 -5 25 -4 26 -4 25 -3 27 -3 26 -3 28 -2 27 -1 28 -1 28 0 0 0z"/>
    </g>
    <g>
     <polygon class="fil0" points="1508,2385 1508,1906 1679,1906 1679,2385 "/>
    </g>
    <g>
     <polygon class="fil0" points="2542,2385 2542,1906 2713,1906 2713,2385 "/>
    </g>
    <g>
     <polygon class="fil0" points="1508,2864 1508,2385 1679,2385 1679,2864 "/>
    </g>
    <g>
     <polygon class="fil0" points="2542,2864 2542,2385 2713,2385 2713,2864 "/>
    </g>
    <g>
     <polygon class="fil0" points="2555,2339 2699,2431 2676,2464 2649,2493 2620,2519 2588,2543 2554,2564 2518,2583 2480,2599 2442,2613 2402,2625 2361,2635 2319,2644 2276,2650 2233,2655 2189,2658 2145,2660 2101,2660 2057,2658 2014,2655 1970,2650 1928,2644 1886,2636 1845,2627 1805,2616 1766,2603 1729,2589 1693,2573 1659,2555 1627,2535 1597,2513 1569,2488 1543,2461 1521,2432 1665,2339 1675,2352 1688,2365 1703,2379 1722,2393 1744,2406 1768,2418 1795,2430 1824,2441 1854,2452 1887,2461 1921,2468 1956,2475 1992,2480 2029,2484 2067,2487 2104,2489 2142,2489 2180,2487 2217,2485 2253,2480 2289,2475 2323,2468 2356,2460 2387,2450 2417,2440 2444,2428 2469,2415 2492,2401 2512,2386 2529,2371 2543,2355 "/>
    </g>
    <g>
     <path class="fil0" d="M2542 2864l0 -958 171 0 0 958 -14 47 -157 -47zm171 0l0 26 -14 21 14 -47zm-1205 0l171 0 -14 -46 10 13 13 14 15 13 19 14 22 13 24 13 27 12 29 11 30 10 33 9 34 8 35 6 36 6 37 4 38 3 37 1 38 0 38 -1 37 -3 36 -4 36 -6 34 -6 33 -9 31 -9 30 -11 27 -12 25 -13 23 -14 20 -14 17 -16 14 -15 12 -17 144 93 -23 32 -27 29 -29 27 -32 23 -34 21 -36 19 -38 16 -38 14 -40 13 -41 10 -42 8 -43 7 -43 5 -44 3 -44 2 -44 -1 -44 -1 -43 -3 -44 -5 -42 -6 -42 -8 -41 -10 -40 -11 -39 -12 -37 -15 -36 -16 -34 -18 -32 -20 -30 -22 -28 -24 -26 -27 -22 -30 -13 -47zm13 47l-13 -21 0 -26 13 47zm158 -1005l0 958 -171 0 0 -958 171 0z"/>
    </g>
   </g>
   <path class="fil7" d="M1125 2467l0 0c-13,-13 -13,-35 1,-48l51 -50 -50 -52c-13,-13 -13,-35 0,-48l0 0c14,-13 35,-13 48,1l51 51 51 -50c14,-13 35,-13 48,0l0 0c13,14 13,35 0,48l-52 51 51 51c13,14 12,35 -1,48l0 0c-13,13 -35,13 -48,0l-50 -52 -52 51c-13,13 -35,12 -48,-1z"/>
   <path class="fil8" d="M2796 1721l0 0c0,-9 8,-17 17,-16l36 0 1 -36c0,-9 8,-17 17,-17l0 0c9,0 17,8 16,17l0 36 36 1c9,0 17,8 17,17l0 0c0,9 -8,17 -17,16l-36 0 -1 36c0,9 -7,17 -17,17l0 0c-9,0 -17,-8 -16,-17l0 -36 -36 -1c-9,0 -17,-8 -17,-17z"/>
   <path class="fil9" d="M348 3054l0 0c0,-10 8,-17 17,-17l36 0 0 -36c0,-9 8,-16 17,-16l0 0c10,0 17,7 17,17l0 36 35 0c10,0 17,8 17,17l0 0c0,9 -8,17 -17,17l-36 -1 0 36c0,10 -8,17 -17,17l0 0c-10,0 -17,-8 -17,-17l0 -36 -35 0c-10,0 -17,-8 -17,-17z"/>
   <path class="fil10" d="M589 3287l0 0c10,-10 27,-10 37,0l39 41 40 -39c11,-10 27,-9 37,1l0 0c10,11 10,27 0,37l-41 39 39 40c10,11 9,28 -1,38l0 0c-11,9 -27,9 -37,-1l-39 -41 -40 39c-11,10 -28,9 -38,-1l0 0c-10,-10 -9,-27 1,-37l41 -39 -39 -40c-10,-11 -9,-27 1,-37z"/>
   <path class="fil10" d="M570 1255l0 0c21,6 33,28 27,49l-24 81 81 24c21,6 33,28 27,49l0 0c-6,21 -28,33 -49,27l-81 -24 -23 81c-7,21 -29,33 -50,27l0 0c-21,-6 -33,-28 -27,-49l24 -81 -81 -24c-21,-6 -33,-28 -27,-49l0 0c6,-21 29,-33 49,-27l81 24 24 -81c6,-21 28,-33 49,-27z"/>
   <path class="fil9" d="M3432 1287l0 0c0,-19 16,-34 35,-34l74 1 1 -74c0,-19 15,-34 34,-34l0 0c19,0 35,16 35,35l-1 74 73 1c19,0 35,15 35,34l0 0c-1,19 -16,35 -35,35l-74 -1 -1 73c0,19 -16,35 -35,34l0 0c-19,0 -34,-15 -34,-34l1 -74 -74 -1c-19,0 -34,-16 -34,-35z"/>
   <path class="fil8" d="M3715 1701l0 0c-7,-13 -3,-29 10,-36l48 -27 -27 -48c-7,-12 -3,-28 10,-35l0 0c12,-7 28,-3 35,9l27 49 49 -27c12,-7 28,-3 35,10l0 0c7,12 3,28 -10,35l-48 27 27 48c7,13 2,29 -10,36l0 0c-12,7 -28,2 -35,-10l-28 -48 -48 27c-12,7 -28,2 -35,-10z"/>
   <path class="fil7" d="M1826 4235l0 0c-14,-12 -16,-34 -4,-48l47 -55 -56 -47c-14,-12 -16,-33 -3,-48l0 0c12,-14 33,-16 47,-4l55 47 47 -55c12,-14 34,-16 48,-4l0 0c14,12 16,33 4,48l-47 55 55 46c15,12 16,34 4,48l0 0c-12,14 -33,16 -47,4l-56 -46 -46 55c-12,14 -34,16 -48,4z"/>
  </g>
 </g>
</svg>
