<?xml version="1.0" encoding="UTF-8"?>
<!DOCTYPE svg PUBLIC "-//W3C//DTD SVG 1.1//EN" "http://www.w3.org/Graphics/SVG/1.1/DTD/svg11.dtd">
<!-- Creator: CorelDRAW X7 -->
<svg xmlns="http://www.w3.org/2000/svg" xml:space="preserve" width="11.6929in" height="16.5354in" version="1.1" style="shape-rendering:geometricPrecision; text-rendering:geometricPrecision; image-rendering:optimizeQuality; fill-rule:evenodd; clip-rule:evenodd"
viewBox="0 0 11693 16535"
 xmlns:xlink="http://www.w3.org/1999/xlink">
 <defs>
  <style type="text/css">
   <![CDATA[
    .fil0 {fill:#FFF000}
    .fil1 {fill:#075D7E}
   ]]>
  </style>
 </defs>
 <g id="Layer_x0020_1">
  <metadata id="CorelCorpID_0Corel-Layer"/>
  <g id="_1729377563008">
   <rect class="fil0" x="6397" y="4631" width="32.5512" height="43.8386"/>
   <rect class="fil0" x="6491" y="4631" width="32.5512" height="43.8386"/>
   <rect class="fil0" x="6584" y="4631" width="32.5512" height="43.8386"/>
   <rect class="fil0" x="6678" y="4631" width="32.5512" height="43.8386"/>
   <rect class="fil0" x="6771" y="4631" width="32.5512" height="43.8386"/>
   <rect class="fil0" x="6397" y="4755" width="32.5512" height="43.8386"/>
   <rect class="fil0" x="6491" y="4755" width="32.5512" height="43.8386"/>
   <rect class="fil0" x="6584" y="4755" width="32.5512" height="43.8386"/>
   <rect class="fil0" x="6678" y="4755" width="32.5512" height="43.8386"/>
   <rect class="fil0" x="6771" y="4755" width="32.5512" height="43.8386"/>
   <polygon class="fil0" points="6419,4507 6464,4490 6482,4537 6501,4490 6539,4510 6545,4545 6561,4535 6574,4544 6544,4597 6415,4593 "/>
   <path class="fil1" d="M6812 4803c3,-4 5,-9 5,-14l0 -15c0,-17 -14,-31 -31,-31 -17,0 -31,14 -31,31l0 15c0,5 1,10 4,14 -8,4 -15,11 -20,18 -5,-7 -12,-14 -20,-18 3,-4 5,-9 5,-14l0 -15c0,-17 -14,-31 -31,-31 -17,0 -31,14 -31,31l0 15c0,5 1,10 4,14 -8,4 -15,11 -20,18 -5,-7 -12,-14 -20,-18 3,-4 5,-9 5,-14l0 -15c0,-17 -14,-31 -31,-31 -17,0 -31,14 -31,31l0 15c0,5 1,10 4,14 -8,4 -15,11 -20,18 -5,-7 -12,-14 -20,-18 3,-4 4,-9 4,-14l0 -15c0,-17 -14,-31 -31,-31 -17,0 -31,14 -31,31l0 15c0,5 2,10 5,14 -8,4 -15,11 -20,18 -5,-7 -12,-14 -20,-18 3,-4 4,-9 4,-14l0 -15c0,-17 -14,-31 -31,-31 -17,0 -31,14 -31,31l0 15c0,5 2,10 4,14 -17,10 -29,28 -29,49l0 7c0,5 4,9 10,9l465 0c5,0 10,-4 10,-9l0 -7c0,-21 -12,-39 -30,-49zm-399 -41c7,0 12,6 12,12l0 15c0,4 -3,7 -7,7l-9 0c-4,0 -8,-3 -8,-7l0 -15 0 0c0,-6 6,-12 12,-12zm-37 87c2,-19 18,-34 37,-34l0 0c20,0 36,15 37,34l-74 0zm118 -75c0,-6 6,-12 12,-12 7,0 12,6 12,12l0 15c0,4 -3,7 -7,7l-9 0c-4,0 -8,-3 -8,-7l0 -15 0 0zm-25 75c2,-19 18,-34 37,-34l1 0c19,0 35,15 36,34l-74 0zm119 -75c0,-6 5,-12 12,-12 6,0 12,6 12,12l0 15c0,4 -4,7 -8,7l-9 0c-4,0 -7,-3 -7,-7l0 -15 0 0zm-25 75c1,-19 17,-34 36,-34l1 0c19,0 35,15 37,34l-74 0zm130 -87c6,0 12,6 12,12l0 15c0,4 -4,7 -8,7l-9 0c-4,0 -7,-3 -7,-7l0 -15 0 0c0,-6 5,-12 12,-12zm-37 87c1,-19 17,-34 36,-34l1 0c19,0 35,15 37,34l-74 0zm118 -75c0,-6 5,-12 12,-12 6,0 12,6 12,12l0 15c0,4 -4,7 -8,7l-9 0c-4,0 -7,-3 -7,-7l0 -15 0 0zm-25 75c1,-19 17,-34 37,-34l0 0c19,0 35,15 37,34l-74 0z"/>
   <path class="fil1" d="M6812 4676c3,-4 5,-9 5,-14l0 -14c0,-17 -14,-31 -31,-31 -17,0 -31,14 -31,31l0 14c0,5 1,10 4,14 -8,5 -15,11 -20,18 -5,-7 -12,-13 -20,-18 3,-4 5,-9 5,-14l0 -14c0,-17 -14,-31 -31,-31 -17,0 -31,14 -31,31l0 14c0,5 1,10 4,14 -8,5 -15,11 -20,18 -5,-7 -12,-13 -20,-18 3,-4 5,-9 5,-14l0 -14c0,-17 -14,-31 -31,-31 -17,0 -31,14 -31,31l0 14c0,5 1,10 4,14 -8,5 -15,11 -20,19 -5,-8 -12,-14 -20,-19 3,-4 4,-9 4,-14l0 -14c0,-17 -14,-31 -31,-31 -17,0 -31,14 -31,31l0 14c0,5 2,10 5,14 -8,5 -15,11 -20,18 -5,-7 -12,-13 -20,-18 3,-4 4,-9 4,-14l0 -14c0,-17 -14,-31 -31,-31 -17,0 -31,14 -31,31l0 14c0,5 2,10 4,14 -17,10 -29,28 -29,49l0 7c0,5 4,10 10,10l465 0c5,0 10,-5 10,-10l0 -7c0,-21 -12,-39 -30,-49zm-399 -40c7,0 12,5 12,12l0 14c0,4 -3,8 -7,8l-9 0c-4,0 -8,-4 -8,-8l0 -14 0 0c0,-7 6,-12 12,-12zm-37 87c2,-19 18,-34 37,-34l0 0c20,0 36,15 37,34l-74 0zm118 -75c0,-7 6,-12 12,-12 7,0 12,5 12,12l0 14c0,4 -3,8 -7,8l-9 0c-4,0 -8,-4 -8,-8l0 -14 0 0zm-25 75c2,-19 18,-34 37,-34l1 0c19,0 35,15 36,34l-74 0zm119 -75c0,-7 5,-12 12,-12 6,0 12,5 12,12l0 14c0,4 -4,8 -8,8l-9 0c-4,0 -7,-4 -7,-8l0 -14 0 0zm-25 75c1,-19 17,-34 36,-34l1 0c19,0 35,15 37,34l-74 0zm130 -87c6,0 12,5 12,12l0 14c0,4 -4,8 -8,8l-9 0c-4,0 -7,-4 -7,-8l0 -14 0 0c0,-7 5,-12 12,-12zm-37 87c1,-19 17,-34 36,-34l1 0c19,0 35,15 37,34l-74 0zm118 -75c0,-7 5,-12 12,-12 6,0 12,5 12,12l0 14c0,4 -4,8 -8,8l-9 0c-4,0 -7,-4 -7,-8l0 -14 0 0zm-25 75c1,-19 17,-34 37,-34l0 0c19,0 35,15 37,34l-74 0z"/>
   <path class="fil1" d="M6781 4475c-5,0 -9,4 -9,9l0 1c0,5 4,9 9,9 5,0 10,-4 10,-9l0 -1c0,-5 -5,-9 -10,-9z"/>
   <path class="fil1" d="M6781 4510c-5,0 -9,5 -9,10l0 46 -173 0c-5,0 -9,4 -9,9 0,5 4,9 9,9l182 0c5,0 10,-4 10,-9l0 -55c0,-5 -5,-10 -10,-10z"/>
   <path class="fil1" d="M6781 4384l-278 0c-5,0 -10,4 -10,9l0 2 -37 0c-11,0 -20,9 -20,21l0 14c0,7 3,13 7,17l0 15c0,7 3,14 7,19l-15 5c-16,6 -27,20 -27,37l0 74c0,5 5,9 10,9l125 0c4,0 7,-2 8,-5l34 -53c3,-4 2,-9 -2,-12l-2 -2 19 -23c3,-4 2,-10 -2,-13 -4,-3 -10,-3 -13,1l-18 23c-4,-3 -9,-2 -12,1l-3 2 0 -2c0,-17 -10,-31 -26,-37l-14 -5c4,-5 7,-12 7,-19l0 -15c8,-6 14,-15 14,-26l0 -18 239 0 0 48c0,6 4,10 9,10 5,0 10,-4 10,-10l0 -58c0,-5 -5,-9 -10,-9zm-261 120c8,3 13,10 13,19l0 21 -3 3c-3,4 -3,10 0,14 4,3 10,3 14,0l4 -5c1,0 2,-1 3,-2l11 -12 3 3 -27 42 -18 0 0 -15c0,-6 -4,-10 -10,-10 -5,0 -9,4 -9,10l0 15 -38 0 0 -15c0,-6 -4,-10 -10,-10 -5,0 -9,4 -9,10l0 15 -17 0 0 -64c0,-8 6,-16 14,-19l17 -5 15 42c1,3 5,6 9,6 4,0 7,-3 9,-6l14 -42 15 5zm-33 -29l-12 0c-7,0 -13,-6 -13,-13l0 -10 38 0 0 10c0,7 -6,13 -13,13zm0 19l-5 15 -5 -15 10 0c0,0 0,0 0,0zm27 -73c0,7 -6,12 -12,12l-44 0c-2,0 -3,-1 -3,-3l0 -14c0,-1 0,-2 1,-2l43 0c5,0 10,-1 15,-3l0 10 0 0z"/>
   <path class="fil1" d="M6745 4423l-184 0c-5,0 -9,4 -9,9 0,5 4,10 9,10l184 0c6,0 10,-5 10,-10 0,-5 -4,-9 -10,-9z"/>
   <path class="fil1" d="M6745 4469l-184 0c-5,0 -9,4 -9,10 0,5 4,9 9,9l184 0c6,0 10,-4 10,-9 0,-6 -4,-10 -10,-10z"/>
   <path class="fil1" d="M6745 4515l-72 0c-5,0 -9,5 -9,10 0,5 4,9 9,9l72 0c6,0 10,-4 10,-9 0,-5 -4,-10 -10,-10z"/>
   <path class="fil1" d="M6643 4515l-1 0c-5,0 -9,5 -9,10 0,5 4,9 9,9l1 0c5,0 9,-4 9,-9 0,-5 -4,-10 -9,-10z"/>
  </g>
 </g>
</svg>
