<?xml version="1.0" encoding="UTF-8"?>
<!DOCTYPE svg PUBLIC "-//W3C//DTD SVG 1.1//EN" "http://www.w3.org/Graphics/SVG/1.1/DTD/svg11.dtd">
<!-- Creator: CorelDRAW X7 -->
<svg xmlns="http://www.w3.org/2000/svg" xml:space="preserve" width="150px" height="150px" version="1.1" style="shape-rendering:geometricPrecision; text-rendering:geometricPrecision; image-rendering:optimizeQuality; fill-rule:evenodd; clip-rule:evenodd"
viewBox="0 0 150 150"
 xmlns:xlink="http://www.w3.org/1999/xlink">
 <defs>
  <style type="text/css">
   <![CDATA[
    .fil2 {fill:#FFF000}
    .fil3 {fill:#075D7E}
    .fil0 {fill:#33FFF8}
    .fil1 {fill:#33FFF8}
   ]]>
  </style>
 </defs>
 <g id="Layer_x0020_1">
  <metadata id="CorelCorpID_0Corel-Layer"/>
  <g id="_1595220065760">
   <path class="fil0" d="M7 27l23 0 0 12 46 0 0 -12 23 0 0 115 -92 0 0 -115zm83 95c1,-3 0,-6 -3,-7 -2,-1 -5,1 -6,3 0,1 -1,2 -1,3 0,0 0,0 0,1 -1,0 -1,0 -2,0 -1,0 -3,0 -4,1 -2,1 -3,3 -3,5 0,4 4,6 8,4 0,0 1,0 1,0 2,0 3,0 5,-1 2,-1 3,-2 4,-5 0,-1 1,-2 1,-3 0,-1 0,-1 0,-1z"/>
   <rect class="fil1" x="118" y="46" width="15.6262" height="70.0027"/>
   <g>
    <polygon class="fil2" points="21,42 86,42 86,117 73,130 21,130 "/>
    <path class="fil3" d="M54 20c1,0 2,-2 2,-3 0,-2 -1,-3 -2,-3 -2,0 -3,1 -3,3 0,1 1,3 3,3zm0 0z"/>
    <path class="fil3" d="M35 61c2,0 3,-2 3,-3 0,-2 -1,-3 -3,-3 -1,0 -3,1 -3,3 0,1 2,3 3,3zm0 0z"/>
    <path class="fil3" d="M95 146c4,0 8,-3 8,-8l0 -104c0,-5 -4,-9 -8,-9l-15 0c-1,-3 -4,-5 -8,-5l-5 0c1,-1 1,-2 1,-3 0,-8 -7,-14 -14,-14 -8,0 -14,6 -14,14 0,1 0,2 0,3l-5 0c-4,0 -7,2 -8,5l-14 0c-5,0 -9,4 -9,9l0 104c0,5 4,8 9,8l82 0zm-9 -29l0 13 -13 0 13 -13zm-17 9l0 -13 13 0 -13 13zm17 -19l-19 0c-2,0 -3,1 -3,3l0 20 -43 0 0 -88 65 0 0 65zm-51 -82l9 0c1,0 2,0 2,-1 1,-1 1,-2 0,-3 0,-1 -1,-3 -1,-4 0,-5 4,-9 9,-9 4,0 8,4 8,9 0,1 0,3 -1,4 -1,1 -1,2 0,3 0,1 1,1 2,1l9 0c2,0 3,1 3,3l0 8 -43 0 0 -8c0,-2 2,-3 3,-3zm-25 113l0 -104c0,-2 1,-3 3,-3l14 0 0 5 -9 0c-1,0 -3,2 -3,3l0 93c0,2 2,3 3,3l71 0c2,0 3,-1 3,-3 0,-9 0,-70 0,-93 0,-1 -1,-3 -3,-3l-8 0 0 -5 14 0c1,0 2,1 2,3l0 104c0,2 -1,3 -2,3l-82 0c-2,0 -3,-1 -3,-3l0 0zm0 0z"/>
    <path class="fil3" d="M72 55l-26 0c-1,0 -2,1 -2,3 0,1 1,3 2,3l26 0c2,0 3,-2 3,-3 0,-2 -1,-3 -3,-3l0 0zm0 0z"/>
    <path class="fil3" d="M72 85l-37 0c-1,0 -3,1 -3,3 0,1 2,2 3,2l37 0c2,0 3,-1 3,-2 0,-2 -1,-3 -3,-3zm0 0z"/>
    <path class="fil3" d="M72 96l-37 0c-1,0 -3,1 -3,3 0,1 2,3 3,3l37 0c2,0 3,-2 3,-3 0,-2 -1,-3 -3,-3zm0 0z"/>
    <path class="fil3" d="M72 73l-37 0c-1,0 -3,2 -3,3 0,2 2,3 3,3l37 0c2,0 3,-1 3,-3 0,-1 -1,-3 -3,-3l0 0zm0 0z"/>
    <polygon class="fil2" points="118,126 120,118 131,118 134,122 126,138 "/>
    <polygon class="fil2" points="120,47 125,44 131,44 134,36 128,30 119,32 115,41 "/>
    <path class="fil3" d="M140 44l-3 0 0 -6c0,-3 -1,-5 -3,-7l0 -7c0,-5 -4,-8 -9,-8 -4,0 -8,3 -8,8l0 7c-2,2 -3,4 -3,7l0 78c0,14 8,22 9,23l0 5c0,1 1,2 2,2 2,0 3,-1 3,-2l0 -5c1,-1 9,-9 9,-23l0 -67 3 0c1,0 2,2 2,3l0 23c0,1 2,2 3,2 2,0 3,-1 3,-2l0 -23c0,-5 -4,-8 -8,-8l0 0zm-20 -6c0,-3 2,-6 5,-6 4,0 6,3 6,6l0 6 -11 0 0 -6zm5 -17c2,0 3,2 3,3l0 3c-1,0 -2,0 -3,0 0,0 -1,0 -2,0l0 -3c0,-1 1,-3 2,-3zm0 112c-3,-4 -5,-9 -5,-15l11 0c-1,6 -2,11 -6,15l0 0zm6 -20l-11 0 0 -64 11 0 0 64zm0 0z"/>
   </g>
  </g>
 </g>
</svg>
