<?xml version="1.0" encoding="UTF-8"?>
<!DOCTYPE svg PUBLIC "-//W3C//DTD SVG 1.1//EN" "http://www.w3.org/Graphics/SVG/1.1/DTD/svg11.dtd">
<!-- Creator: CorelDRAW X7 -->
<svg xmlns="http://www.w3.org/2000/svg" xml:space="preserve" width="150px" height="150px" version="1.1" style="shape-rendering:geometricPrecision; text-rendering:geometricPrecision; image-rendering:optimizeQuality; fill-rule:evenodd; clip-rule:evenodd"
viewBox="0 0 150 150"
 xmlns:xlink="http://www.w3.org/1999/xlink">
 <defs>
  <style type="text/css">
   <![CDATA[
    .str0 {stroke:#332C2B;stroke-width:2.0835;stroke-linecap:round;stroke-linejoin:round}
    .fil1 {fill:#FFF000}
    .fil2 {fill:#075D7E}
    .fil0 {fill:#33FFF8}
   ]]>
  </style>
 </defs>
 <g id="Layer_x0020_1">
  <metadata id="CorelCorpID_0Corel-Layer"/>
  <g id="_1595368793168">
   <polygon class="fil0 str0" points="79,19 76,26 112,87 120,83 120,78 85,19 "/>
   <polygon class="fil0" points="19,81 41,70 57,98 29,114 15,111 7,101 10,88 "/>
   <polygon class="fil1" points="75,25 41,70 57,98 112,87 "/>
   <g>
    <path class="fil2" d="M43 96c1,-1 1,-2 1,-4 -1,-1 -3,-1 -4,-1 -1,1 -2,3 -1,4 1,1 2,2 4,1zm0 0z"/>
    <path class="fil2" d="M31 115l14 25c3,5 10,7 16,4 5,-3 7,-10 4,-15l-9 -15 8 -4c1,-1 1,-3 1,-4l-4 -6c0,0 3,-1 54,-11 6,0 10,-7 6,-12l-9 -16 6 -9c1,-1 1,-2 0,-3l-6 -10c0,-1 -1,-1 -2,-1l-11 0 -10 -18c-2,-2 -4,-4 -7,-4 0,0 0,0 0,0 -3,0 -6,2 -8,4l-36 47 -24 13c-9,6 -12,18 -7,27 5,9 15,12 24,8l0 0zm29 16c1,3 0,7 -2,8 -3,2 -6,1 -8,-2l-14 -24 10 -6c16,28 14,24 14,24l0 0zm-7 -22l-2 -5 5 -2 2 5 -5 2zm56 -66l3 7 -3 5 -7 -11 7 -1zm-30 -20c1,-1 2,-1 3,-1 0,0 1,0 2,1l33 57c1,1 -1,4 -3,4 0,0 0,0 -1,0l-35 -60c1,-1 1,-1 1,-1l0 0zm-5 6l33 56 -49 10 -15 -26 31 -40zm-62 75c-1,-2 -2,-4 -2,-7 0,-5 3,-9 7,-12l22 -12 14 24 -22 12c-7,4 -15,2 -19,-5zm0 0z"/>
    <path class="fil2" d="M34 98c-1,-1 -2,-2 -4,-1l-5 3c-1,0 -3,0 -3,-1 -1,-2 -3,-2 -4,-1 -2,0 -2,2 -1,3 2,4 7,6 11,4l5 -3c1,-1 2,-3 1,-4l0 0zm0 0z"/>
    <path class="fil2" d="M143 22l-15 9c-1,1 -2,2 -1,4 1,1 2,1 4,1l15 -9c2,-1 2,-2 1,-4 0,-1 -2,-2 -4,-1zm0 0z"/>
    <path class="fil2" d="M142 51l-11 -3c-1,0 -3,1 -3,2 -1,2 0,3 2,4l10 3c2,0 3,-1 4,-2 0,-2 -1,-3 -2,-4zm0 0z"/>
    <path class="fil2" d="M115 12l-3 11c-1,1 0,3 2,3 1,1 3,0 3,-2l3 -11c0,-1 0,-3 -2,-3 -1,0 -3,0 -3,2zm0 0z"/>
   </g>
  </g>
 </g>
</svg>
