<?xml version="1.0" encoding="UTF-8"?>
<!DOCTYPE svg PUBLIC "-//W3C//DTD SVG 1.1//EN" "http://www.w3.org/Graphics/SVG/1.1/DTD/svg11.dtd">
<!-- Creator: CorelDRAW X7 -->
<svg xmlns="http://www.w3.org/2000/svg" xml:space="preserve" width="150px" height="150px" version="1.1" style="shape-rendering:geometricPrecision; text-rendering:geometricPrecision; image-rendering:optimizeQuality; fill-rule:evenodd; clip-rule:evenodd"
viewBox="0 0 150 150"
 xmlns:xlink="http://www.w3.org/1999/xlink">
 <defs>
  <style type="text/css">
   <![CDATA[
    .fil1 {fill:#FFF000}
    .fil2 {fill:#075D7E}
    .fil0 {fill:#33FFF8}
   ]]>
  </style>
 </defs>
 <g id="Layer_x0020_1">
  <metadata id="CorelCorpID_0Corel-Layer"/>
  <g id="_1595261708064">
   <path class="fil0" d="M56 28c0,0 -1,0 -1,0l0 0c-2,-1 -3,-3 -5,-4l0 -1c-4,1 -7,2 -11,3 -1,0 -2,0 -4,1 -1,0 -2,0 -3,1l-1 0c-1,1 -2,3 -4,3 0,3 0,7 -1,9 0,2 -1,6 -2,8 1,1 2,2 2,3 1,2 2,4 3,6l0 0c1,1 2,1 2,2 5,3 8,8 9,12 1,-1 2,-1 4,-1l0 0c1,0 1,0 2,0 3,-1 5,1 6,4 0,1 0,1 0,1 1,1 1,4 1,6 1,2 1,5 -1,6 -1,2 -3,2 -5,2 -1,0 -2,0 -3,0 0,-1 -1,-1 -1,-1 0,1 0,3 0,4 3,2 5,6 6,11 1,1 1,2 2,4 0,1 0,1 1,2 7,3 12,11 12,19l0 0c0,3 0,6 0,8 -9,12 -3,8 -1,8 0,1 0,2 0,3 0,0 1,1 1,1 1,0 2,0 3,0 5,-4 12,-5 18,-2l0 -105c-4,1 -9,1 -13,-1 0,0 -1,0 -1,1l0 0c0,0 0,0 -1,0 -1,0 -1,-1 0,-2 -3,-2 -6,-4 -8,-7 -2,-1 -4,-2 -6,-4z"/>
   <g>
    <polygon class="fil1" points="60,27 47,23 34,26 25,37 26,53 41,69 54,69 67,54 68,41 "/>
    <path class="fil2" d="M123 58c-2,-1 -3,-1 -4,0 -2,1 -2,3 0,4 0,0 0,0 0,0 0,0 1,1 2,1 0,0 1,-1 2,-1 1,-1 1,-3 0,-4z"/>
    <path class="fil2" d="M117 53c-2,-1 -4,-2 -5,-3 -10,-5 -20,-6 -29,-3 -2,1 -3,2 -2,4 0,1 2,2 3,2 8,-3 17,-2 25,2 2,1 3,2 5,3 0,0 1,0 1,0 1,0 2,0 3,-1 0,-1 0,-3 -1,-4z"/>
    <path class="fil2" d="M143 90c-1,-2 -3,-6 -3,-8 3,-8 2,-17 -4,-26 -8,-12 -26,-22 -42,-22 -8,0 -16,2 -23,6 -2,-11 -12,-20 -24,-20 -14,0 -25,11 -25,24 0,9 4,17 12,21 2,2 2,3 3,5l0 9 0 7c0,4 2,6 5,6l1 0c2,13 8,24 18,33 0,0 0,1 -1,5 -1,3 -2,7 -4,10 0,2 -1,3 -2,5 0,1 0,2 1,2 0,1 1,2 2,2l41 0c1,0 3,-1 5,-4 0,-1 0,-3 1,-4 0,-2 1,-5 2,-6 0,0 0,0 0,0 0,0 0,0 0,0 5,0 8,0 11,0 9,1 15,1 19,-6 3,-3 3,-8 2,-14 0,-2 0,-5 0,-8 1,0 2,-1 3,-2 3,-2 5,-3 5,-6 0,-2 -1,-5 -3,-9zm-106 -30c-6,-3 -9,-9 -9,-16 0,-10 8,-18 19,-18 10,0 18,8 18,18 0,7 -3,13 -9,16 -2,2 -4,4 -5,7l-4 0 -5 0c-1,-3 -3,-5 -5,-7zm14 12l0 5 -9 0 0 -5 9 0zm-9 14c0,0 0,0 0,0l0 -4 9 0 0 4c0,0 0,0 0,0l-9 0zm96 15c-3,1 -5,3 -5,5 -1,3 -1,6 0,10 0,4 0,8 -1,10 -3,4 -6,4 -15,4 -3,0 -6,-1 -11,-1 -1,0 -4,0 -6,4 -1,2 -1,4 -2,6 0,1 0,3 -1,4l-36 0c0,-1 1,-1 1,-1 4,-11 6,-18 2,-22 -8,-7 -13,-17 -15,-28l2 0c3,0 6,-2 6,-6l0 -7 0 -9c0,-2 0,-3 2,-5 7,-4 11,-11 12,-19 7,-4 15,-6 23,-6 14,0 30,8 37,20 4,4 7,12 3,20 -1,3 1,7 4,13 1,2 2,4 2,6 0,0 -2,1 -2,2z"/>
    <path class="fil2" d="M61 40c-1,-3 -3,-5 -6,-7 -2,-1 -4,0 -4,1 -1,2 0,3 1,4 2,1 3,2 3,4 1,2 0,5 -1,6 -1,1 0,3 1,4 1,0 1,0 2,0 1,0 2,0 2,-1 1,-2 3,-6 2,-11z"/>
    <path class="fil2" d="M47 2c-2,0 -3,1 -3,3l0 8c0,1 1,3 3,3 1,0 2,-2 2,-3l0 -8c0,-2 -1,-3 -2,-3z"/>
    <path class="fil2" d="M15 42l-8 0c-2,0 -3,1 -3,3 0,1 1,2 3,2l8 0c1,0 3,-1 3,-2 0,-2 -2,-3 -3,-3z"/>
    <path class="fil2" d="M33 16l-4 -8c-1,-1 -2,-1 -4,-1 -1,1 -2,3 -1,4l4 7c1,1 2,2 3,2 0,0 1,0 1,-1 1,0 2,-2 1,-3z"/>
    <path class="fil2" d="M20 26l-7 -4c-1,-1 -3,0 -4,1 0,1 0,3 2,4l7 4c0,0 1,0 1,0 1,0 2,0 3,-1 0,-1 0,-3 -2,-4z"/>
    <path class="fil2" d="M84 23c-1,-1 -3,-2 -4,-1l-7 4c-2,1 -2,3 -1,4 0,1 1,1 2,1 1,0 1,0 2,0l7 -4c1,-1 2,-3 1,-4z"/>
    <path class="fil2" d="M22 59c-1,-1 -3,-2 -4,-1l-7 4c-2,1 -2,3 -2,4 1,1 2,1 3,1 0,0 1,0 1,0l7 -4c2,-1 2,-3 2,-4z"/>
    <path class="fil2" d="M32 71c-2,-1 -4,-1 -4,1l-4 6c-1,1 0,3 1,4 1,0 1,0 2,0 1,0 2,0 2,-1l4 -6c0,-2 0,-4 -1,-4z"/>
    <path class="fil2" d="M68 7c-1,0 -3,0 -4,1l-4 8c-1,1 0,3 1,3 1,1 1,1 2,1 0,0 1,-1 2,-2l4 -7c1,-1 0,-3 -1,-4z"/>
   </g>
  </g>
 </g>
</svg>
