<svg xmlns="http://www.w3.org/2000/svg" viewBox="0 0 279.13 739.57"><defs><style>.cls-1,.cls-11,.cls-3,.cls-5,.cls-6,.cls-7,.cls-9{fill:none;stroke-miterlimit:10;}.cls-1{stroke:#fe7e06;}.cls-1,.cls-5,.cls-9{stroke-width:6px;}.cls-2{fill:#fe2200;}.cls-3,.cls-6,.cls-9{stroke:#398f88;}.cls-3{stroke-width:7px;}.cls-4{fill:#fdb104;}.cls-5{stroke:#fb2100;}.cls-11,.cls-6,.cls-7{stroke-width:5px;}.cls-7{stroke:#fdb104;}.cls-8{fill:#398f88;}.cls-10{fill:#0f2833;}.cls-11{stroke:#0f2833;}</style></defs><title>lefties</title><g id="Layer_2" data-name="Layer 2"><g id="Layer_3" data-name="Layer 3"><circle class="cls-1" cx="77.27" cy="321.13" r="15.11" transform="matrix(0.51, -0.86, 0.86, 0.51, -238.41, 223.97)"/><path class="cls-2" d="M174.2,127.09a2.22,2.22,0,0,1-1.13,2.93h0a2.22,2.22,0,0,1-2.93-1.13l-7.55-17a2.22,2.22,0,0,1,1.13-2.93h0a2.22,2.22,0,0,1,2.93,1.13Z"/><path class="cls-2" d="M160.8,125.29a2.22,2.22,0,0,1-2.93-1.13h0a2.22,2.22,0,0,1,1.13-2.93l17-7.55a2.22,2.22,0,0,1,2.93,1.13h0a2.22,2.22,0,0,1-1.13,2.93Z"/><path class="cls-1" d="M148.94,363.45a1.1,1.1,0,0,1-.32,1.51l-11.35,8.55a1.09,1.09,0,0,1-1.54-.11l-1.83-14.81c-.06-.6.08-.7.35-.9h0c.21-.16.34-.28.84-.1Z"/><path class="cls-1" d="M158.73,158.83a1.62,1.62,0,0,1-.17,2.28l-20.33,17.5a1.62,1.62,0,0,1-2.29-.17l-17.5-20.34a1.62,1.62,0,0,1,.17-2.28l20.34-17.5a1.62,1.62,0,0,1,2.28.17Z"/><circle class="cls-3" cx="176.66" cy="214.29" r="11.68" transform="translate(-97.74 257.09) rotate(-59.36)"/><path class="cls-4" d="M177,288.9a4.28,4.28,0,0,1-2.17,5.65h0a4.28,4.28,0,0,1-5.65-2.17l-14.54-32.75a4.28,4.28,0,0,1,2.17-5.65h0a4.28,4.28,0,0,1,5.65,2.17Z"/><path class="cls-4" d="M151.2,285.44a4.28,4.28,0,0,1-5.65-2.18h0a4.28,4.28,0,0,1,2.17-5.65l32.75-14.54a4.28,4.28,0,0,1,5.65,2.18h0A4.28,4.28,0,0,1,184,270.9Z"/><circle class="cls-1" cx="252.09" cy="515.61" r="24.03" transform="translate(-317.65 446.33) rotate(-57.01)"/><path class="cls-4" d="M97.2,104.73a2.49,2.49,0,0,1,3.23,1.4h0a2.49,2.49,0,0,1-1.4,3.23L79.66,117a2.49,2.49,0,0,1-3.23-1.4h0a2.48,2.48,0,0,1,1.4-3.23Z"/><path class="cls-4" d="M94.58,119.65a2.49,2.49,0,0,1-1.4,3.23h0a2.49,2.49,0,0,1-3.23-1.4l-7.67-19.38a2.49,2.49,0,0,1,1.4-3.23h0a2.49,2.49,0,0,1,3.23,1.4Z"/><path class="cls-5" d="M87.79,204.25a1,1,0,0,1,.58,1.24l-5.45,15.1a1,1,0,0,1-1.24.58l-15.1-5.45a1,1,0,0,1-.58-1.24l5.45-15.1a1,1,0,0,1,1.24-.58Z"/><path class="cls-6" d="M2.53,332a2.14,2.14,0,0,1,1.85-2.37l27.21-5.2A2.13,2.13,0,0,1,34.18,326l-9.53,27.47c-.41,1.09-.75,1.15-1.38,1.27h0c-.5.11-.84.2-1.55-.54Z"/><path class="cls-7" d="M129.48,633.94a1.62,1.62,0,0,1,2.26-.37l21.82,15.62a1.62,1.62,0,0,1,.37,2.26l-15.61,21.82a1.62,1.62,0,0,1-2.26.38L114.23,658a1.62,1.62,0,0,1-.37-2.26Z"/><path class="cls-2" d="M63.91,65.06a2.22,2.22,0,0,1,2.88,1.25h0a2.22,2.22,0,0,1-1.25,2.89L48.25,76a2.22,2.22,0,0,1-2.88-1.25h0a2.22,2.22,0,0,1,1.25-2.88Z"/><path class="cls-2" d="M61.57,78.38a2.22,2.22,0,0,1-1.25,2.88h0A2.22,2.22,0,0,1,57.44,80l-6.85-17.3a2.22,2.22,0,0,1,1.25-2.88h0a2.22,2.22,0,0,1,2.88,1.25Z"/><path class="cls-8" d="M121.2,246.65a2.22,2.22,0,0,1,2.88,1.25h0a2.22,2.22,0,0,1-1.25,2.88l-17.3,6.85a2.22,2.22,0,0,1-2.88-1.25h0a2.22,2.22,0,0,1,1.25-2.88Z"/><path class="cls-8" d="M118.85,260a2.22,2.22,0,0,1-1.25,2.88h0a2.22,2.22,0,0,1-2.88-1.25l-6.85-17.3a2.22,2.22,0,0,1,1.25-2.88h0a2.22,2.22,0,0,1,2.88,1.25Z"/><circle class="cls-9" cx="94.75" cy="58.26" r="8.21" transform="translate(-5.71 106.02) rotate(-57.01)"/><path class="cls-1" d="M28.7,17.25a1.29,1.29,0,0,1,.09-1.81l11.62-12a1.28,1.28,0,0,1,1.8-.15L47,20.15c.18.68,0,.83-.24,1.11h0c-.21.22-.34.39-1,.27Z"/><circle class="cls-1" cx="23.73" cy="434.96" r="9.08" transform="translate(-354.02 218.02) rotate(-57.01)"/><path class="cls-1" d="M150.45,551.44a2.14,2.14,0,0,1-2-2.26l-.12-27.8a2.14,2.14,0,0,1,2-2.28l25.34,14.46c1,.61,1,1,1,1.6h0c0,.51,0,.87-.82,1.43Z"/><path class="cls-6" d="M204.08,456.94a1.31,1.31,0,0,1,.94-1.6l21.09-5.5a1.32,1.32,0,0,1,1.6.94l5.5,21.09a1.32,1.32,0,0,1-.94,1.6L211.18,479a1.31,1.31,0,0,1-1.6-.94Z"/><path class="cls-10" d="M71,589.1a2.22,2.22,0,0,1,2.28,2.16h0a2.22,2.22,0,0,1-2.16,2.29l-18.6.52a2.22,2.22,0,0,1-2.28-2.16h0a2.22,2.22,0,0,1,2.16-2.28Z"/><path class="cls-10" d="M64.21,600.82a2.23,2.23,0,0,1-2.16,2.28h0a2.22,2.22,0,0,1-2.29-2.16l-.52-18.6a2.22,2.22,0,0,1,2.16-2.29h0a2.22,2.22,0,0,1,2.28,2.16Z"/><path class="cls-5" d="M83.54,510.17a1.29,1.29,0,0,1,.76-1.64l15.28-6.73a1.28,1.28,0,0,1,1.73.54l-1.88,17.42c-.1.7-.28.78-.64.93h0c-.28.13-.47.23-1-.11Z"/><circle class="cls-5" cx="154.47" cy="474.35" r="9.08" transform="translate(-327.51 345.66) rotate(-57.01)"/><path class="cls-11" d="M168.52,420.49a.66.66,0,0,1,.15-.92l8.84-6.37a.66.66,0,0,1,.92.15l6.37,8.84a.66.66,0,0,1-.15.92l-8.84,6.37a.65.65,0,0,1-.92-.15Z"/><path class="cls-4" d="M46,502.07a2.49,2.49,0,0,1-.35,3.5h0a2.49,2.49,0,0,1-3.5-.35L28.93,489.1a2.49,2.49,0,0,1,.35-3.5h0a2.49,2.49,0,0,1,3.5.35Z"/><path class="cls-4" d="M31,504.11a2.48,2.48,0,0,1-3.5-.35h0a2.49,2.49,0,0,1,.35-3.5l16.13-13.2a2.49,2.49,0,0,1,3.5.35h0a2.48,2.48,0,0,1-.35,3.5Z"/><path class="cls-6" d="M108.91,421.34a2.14,2.14,0,0,1,1.78,2.42l-2.31,27.6a2.13,2.13,0,0,1-2.15,2.09L82.33,436.88c-.94-.69-.91-1-.85-1.67h0c0-.51,0-.86.94-1.35Z"/><circle class="cls-1" cx="83.94" cy="158.47" r="9.08" transform="translate(-91.05 197.67) rotate(-74.72)"/><path class="cls-11" d="M133.37,57.41a.66.66,0,0,1,.15-.92l8.84-6.37a.66.66,0,0,1,.92.15l6.37,8.84a.66.66,0,0,1-.15.92l-8.84,6.37a.66.66,0,0,1-.92-.15Z"/><path class="cls-5" d="M121.4,95.69a1.29,1.29,0,0,1,.76-1.64l15.28-6.73a1.28,1.28,0,0,1,1.73.54l-1.88,17.42c-.1.7-.28.78-.64.93h0c-.28.13-.47.23-1-.11Z"/><path class="cls-10" d="M97.28,15.11a2.22,2.22,0,0,1,2.28,2.16h0a2.22,2.22,0,0,1-2.16,2.29l-18.6.52a2.22,2.22,0,0,1-2.28-2.16h0a2.22,2.22,0,0,1,2.16-2.28Z"/><path class="cls-10" d="M90.53,26.83a2.23,2.23,0,0,1-2.16,2.28h0A2.22,2.22,0,0,1,86.08,27l-.52-18.6a2.22,2.22,0,0,1,2.16-2.29h0A2.22,2.22,0,0,1,90,8.23Z"/><path class="cls-4" d="M73.34,402.44a4.28,4.28,0,0,1-2.17,5.65h0a4.28,4.28,0,0,1-5.65-2.18L51,373.16a4.28,4.28,0,0,1,2.17-5.65h0a4.28,4.28,0,0,1,5.65,2.18Z"/><path class="cls-4" d="M47.52,399a4.28,4.28,0,0,1-5.65-2.18h0A4.28,4.28,0,0,1,44,391.16L76.8,376.62a4.28,4.28,0,0,1,5.65,2.18h0a4.28,4.28,0,0,1-2.17,5.65Z"/><circle class="cls-5" cx="28.38" cy="258.98" r="9.08" transform="translate(-204.31 141.79) rotate(-57.01)"/><path class="cls-1" d="M234,651.41a1.1,1.1,0,0,1-.32,1.51l-11.35,8.55a1.09,1.09,0,0,1-1.54-.11l-1.83-14.81c-.06-.6.08-.7.35-.9h0c.21-.16.34-.28.84-.1Z"/><path class="cls-10" d="M241.5,574a6.66,6.66,0,0,1,8.82,3.29h0a6.67,6.67,0,0,1-3.3,8.83l-50.71,23.14a6.66,6.66,0,0,1-8.82-3.29h0a6.66,6.66,0,0,1,3.3-8.83Z"/><path class="cls-10" d="M236.54,614.17a6.67,6.67,0,0,1-3.3,8.82h0a6.65,6.65,0,0,1-8.82-3.29L201.28,569a6.66,6.66,0,0,1,3.29-8.82h0a6.66,6.66,0,0,1,8.82,3.29Z"/><path class="cls-5" d="M98.33,581.69a18.16,18.16,0,1,1,5.34,25.12A18.16,18.16,0,0,1,98.33,581.69Z"/><path class="cls-4" d="M218.44,715.55a4.28,4.28,0,0,1-.74,6h0a4.28,4.28,0,0,1-6-.74l-22.06-28.25a4.28,4.28,0,0,1,.74-6h0a4.28,4.28,0,0,1,6,.74Z"/><path class="cls-4" d="M192.55,718.46a4.28,4.28,0,0,1-6-.74h0a4.28,4.28,0,0,1,.74-6l28.25-22.06a4.28,4.28,0,0,1,6,.74h0a4.28,4.28,0,0,1-.74,6Z"/><path class="cls-6" d="M244.95,715a1.32,1.32,0,0,1,.94-1.6L267,707.9a1.32,1.32,0,0,1,1.6.94l5.5,21.09a1.32,1.32,0,0,1-.94,1.6L252.05,737a1.31,1.31,0,0,1-1.6-.94Z"/></g></g></svg>