<svg xmlns="http://www.w3.org/2000/svg" viewBox="0 0 279.03 739.68"><defs><style>.cls-1,.cls-11,.cls-3,.cls-5,.cls-6,.cls-7,.cls-9{fill:none;stroke-miterlimit:10;}.cls-1{stroke:#fe7e06;}.cls-1,.cls-5,.cls-9{stroke-width:6px;}.cls-2{fill:#fe2200;}.cls-3,.cls-6,.cls-9{stroke:#398f88;}.cls-3{stroke-width:7px;}.cls-4{fill:#fdb104;}.cls-5{stroke:#fb2100;}.cls-11,.cls-6,.cls-7{stroke-width:5px;}.cls-7{stroke:#fdb104;}.cls-8{fill:#398f88;}.cls-10{fill:#0f2833;}.cls-11{stroke:#0f2833;}</style></defs><title>righties</title><g id="Layer_2" data-name="Layer 2"><g id="Layer_3" data-name="Layer 3"><circle class="cls-1" cx="201.75" cy="418.53" r="15.11" transform="translate(-261.15 378.62) rotate(-59.34)"/><path class="cls-2" d="M104.72,612.53a2.21,2.21,0,0,1,1.13-2.93h0a2.22,2.22,0,0,1,2.93,1.13l7.54,17a2.22,2.22,0,0,1-1.13,2.93h0a2.22,2.22,0,0,1-2.93-1.13Z"/><path class="cls-2" d="M118.13,614.33a2.22,2.22,0,0,1,2.93,1.13h0a2.22,2.22,0,0,1-1.13,2.93l-17,7.54A2.23,2.23,0,0,1,100,624.8h0a2.22,2.22,0,0,1,1.13-2.93Z"/><path class="cls-1" d="M130.11,376.18a1.09,1.09,0,0,1,.32-1.51l11.36-8.55a1.1,1.1,0,0,1,1.54.11L145.14,381c.06.6-.08.7-.35.9h0c-.21.16-.34.28-.84.1Z"/><path class="cls-1" d="M120.21,580.79a1.62,1.62,0,0,1,.17-2.28L140.73,561a1.62,1.62,0,0,1,2.28.17l17.49,20.34a1.62,1.62,0,0,1-.17,2.28L140,601.31a1.62,1.62,0,0,1-2.28-.17Z"/><circle class="cls-3" cx="102.31" cy="525.32" r="11.68" transform="translate(-401.74 345.4) rotate(-59.33)"/><path class="cls-4" d="M102,450.71a4.28,4.28,0,0,1,2.18-5.65h0a4.28,4.28,0,0,1,5.65,2.18L124.34,480a4.28,4.28,0,0,1-2.18,5.64h0a4.28,4.28,0,0,1-5.65-2.17Z"/><path class="cls-4" d="M127.81,454.18a4.28,4.28,0,0,1,5.65,2.18h0a4.28,4.28,0,0,1-2.18,5.65L98.52,476.53a4.28,4.28,0,0,1-5.65-2.18h0A4.28,4.28,0,0,1,95,468.71Z"/><circle class="cls-1" cx="27.03" cy="223.97" r="24.03" transform="translate(-175.49 124.6) rotate(-56.98)"/><path class="cls-4" d="M181.71,634.92a2.48,2.48,0,0,1-3.23-1.4h0a2.49,2.49,0,0,1,1.4-3.23l19.38-7.66a2.49,2.49,0,0,1,3.23,1.4h0a2.49,2.49,0,0,1-1.4,3.23Z"/><path class="cls-4" d="M184.34,620a2.49,2.49,0,0,1,1.4-3.23h0a2.49,2.49,0,0,1,3.23,1.4l7.66,19.38a2.49,2.49,0,0,1-1.4,3.23h0a2.49,2.49,0,0,1-3.23-1.4Z"/><path class="cls-5" d="M191.17,535.41a1,1,0,0,1-.58-1.24l5.46-15.1a1,1,0,0,1,1.24-.58l15.1,5.46a1,1,0,0,1,.58,1.24l-5.46,15.1a1,1,0,0,1-1.24.58Z"/><path class="cls-6" d="M276.5,407.68a2.14,2.14,0,0,1-1.85,2.36l-27.21,5.18a2.13,2.13,0,0,1-2.59-1.52l9.54-27.46c.42-1.09.75-1.15,1.38-1.27h0c.5-.1.84-.2,1.55.54Z"/><path class="cls-7" d="M149.71,105.69a1.62,1.62,0,0,1-2.26.37L125.64,90.44a1.61,1.61,0,0,1-.37-2.26L140.9,66.37a1.62,1.62,0,0,1,2.26-.37L165,81.63a1.62,1.62,0,0,1,.37,2.26Z"/><path class="cls-2" d="M215,674.61a2.22,2.22,0,0,1-2.88-1.25h0a2.22,2.22,0,0,1,1.25-2.88l17.3-6.84a2.22,2.22,0,0,1,2.89,1.25h0a2.22,2.22,0,0,1-1.25,2.88Z"/><path class="cls-2" d="M217.33,661.29a2.23,2.23,0,0,1,1.25-2.88h0a2.22,2.22,0,0,1,2.88,1.25L228.3,677a2.22,2.22,0,0,1-1.25,2.88h0a2.22,2.22,0,0,1-2.88-1.25Z"/><path class="cls-8" d="M157.79,493a2.22,2.22,0,0,1-2.88-1.25h0a2.22,2.22,0,0,1,1.25-2.88l17.3-6.84a2.22,2.22,0,0,1,2.88,1.25h0a2.22,2.22,0,0,1-1.25,2.88Z"/><path class="cls-8" d="M160.14,479.67a2.22,2.22,0,0,1,1.25-2.88h0a2.22,2.22,0,0,1,2.88,1.25l6.84,17.3a2.22,2.22,0,0,1-1.25,2.88h0A2.22,2.22,0,0,1,167,497Z"/><circle class="cls-9" cx="184.14" cy="681.39" r="8.21" transform="translate(-487.54 464.48) rotate(-56.98)"/><path class="cls-1" d="M250.16,722.44a1.29,1.29,0,0,1-.09,1.81l-11.62,12a1.28,1.28,0,0,1-1.8.15l-4.81-16.85c-.17-.68,0-.83.24-1.11h0c.21-.22.34-.39,1-.27Z"/><circle class="cls-1" cx="255.36" cy="304.73" r="9.08" transform="translate(-139.31 352.78) rotate(-56.98)"/><path class="cls-1" d="M128.69,188.18a2.14,2.14,0,0,1,2,2.26l.1,27.8a2.14,2.14,0,0,1-2,2.28L103.48,206c-1-.61-1-1-1-1.6h0c0-.51,0-.87.82-1.43Z"/><path class="cls-6" d="M75,282.66a1.31,1.31,0,0,1-.94,1.6L53,289.75a1.31,1.31,0,0,1-1.6-.94l-5.49-21.1a1.32,1.32,0,0,1,.94-1.6l21.1-5.49a1.31,1.31,0,0,1,1.6.94Z"/><path class="cls-10" d="M208.2,150.57a2.22,2.22,0,0,1-2.28-2.16h0a2.22,2.22,0,0,1,2.16-2.28l18.6-.51a2.22,2.22,0,0,1,2.28,2.16h0a2.22,2.22,0,0,1-2.16,2.29Z"/><path class="cls-10" d="M215,138.85a2.23,2.23,0,0,1,2.16-2.28h0a2.22,2.22,0,0,1,2.28,2.16l.51,18.6a2.22,2.22,0,0,1-2.16,2.29h0a2.23,2.23,0,0,1-2.28-2.16Z"/><path class="cls-5" d="M195.58,229.49a1.29,1.29,0,0,1-.77,1.64l-15.28,6.72a1.28,1.28,0,0,1-1.73-.54l1.89-17.42c.1-.7.28-.78.64-.93h0c.28-.13.47-.23,1,.11Z"/><circle class="cls-5" cx="124.64" cy="265.28" r="9.08" transform="translate(-165.71 225.24) rotate(-56.98)"/><path class="cls-11" d="M110.56,319.13a.66.66,0,0,1-.15.92l-8.84,6.37a.66.66,0,0,1-.92-.15l-6.37-8.85a.65.65,0,0,1,.15-.92l8.85-6.37a.66.66,0,0,1,.92.15Z"/><path class="cls-4" d="M233.14,237.61a2.49,2.49,0,0,1,.35-3.5h0a2.49,2.49,0,0,1,3.5.35l13.19,16.13a2.49,2.49,0,0,1-.35,3.5h0a2.49,2.49,0,0,1-3.5-.35Z"/><path class="cls-4" d="M248.15,235.58a2.48,2.48,0,0,1,3.5.36h0a2.49,2.49,0,0,1-.35,3.5l-16.13,13.19a2.49,2.49,0,0,1-3.5-.36h0a2.48,2.48,0,0,1,.35-3.5Z"/><path class="cls-6" d="M170.16,318.31a2.14,2.14,0,0,1-1.78-2.42l2.33-27.6a2.13,2.13,0,0,1,2.16-2.09l23.88,16.58c.94.7.91,1,.85,1.67h0c0,.51,0,.86-.94,1.35Z"/><circle class="cls-1" cx="195" cy="581.19" r="9.08" transform="translate(-417.06 615.75) rotate(-74.68)"/><path class="cls-11" d="M145.52,682.22a.66.66,0,0,1-.15.92l-8.85,6.37a.65.65,0,0,1-.92-.15l-6.37-8.85a.66.66,0,0,1,.15-.92l8.85-6.37a.65.65,0,0,1,.92.15Z"/><path class="cls-5" d="M157.51,644a1.29,1.29,0,0,1-.77,1.64l-15.28,6.72a1.28,1.28,0,0,1-1.73-.54l1.89-17.42c.1-.7.28-.78.64-.93h0c.28-.13.47-.23,1,.11Z"/><path class="cls-10" d="M181.59,724.54a2.22,2.22,0,0,1-2.28-2.16h0a2.22,2.22,0,0,1,2.16-2.28l18.6-.51a2.22,2.22,0,0,1,2.28,2.16h0a2.23,2.23,0,0,1-2.16,2.28Z"/><path class="cls-10" d="M188.35,712.83a2.23,2.23,0,0,1,2.16-2.28h0a2.22,2.22,0,0,1,2.28,2.16l.51,18.6a2.22,2.22,0,0,1-2.16,2.28h0a2.22,2.22,0,0,1-2.28-2.16Z"/><path class="cls-4" d="M205.72,337.22a4.28,4.28,0,0,1,2.18-5.65h0a4.28,4.28,0,0,1,5.65,2.18l14.53,32.76a4.28,4.28,0,0,1-2.18,5.65h0a4.28,4.28,0,0,1-5.65-2.18Z"/><path class="cls-4" d="M231.55,340.69a4.28,4.28,0,0,1,5.65,2.18h0a4.28,4.28,0,0,1-2.18,5.65L202.26,363a4.28,4.28,0,0,1-5.65-2.18h0a4.28,4.28,0,0,1,2.18-5.65Z"/><circle class="cls-5" cx="250.62" cy="480.71" r="9.08" transform="translate(-289.02 428.91) rotate(-56.98)"/><path class="cls-1" d="M45.24,88.17a1.09,1.09,0,0,1,.32-1.51l11.36-8.55a1.09,1.09,0,0,1,1.54.11L60.27,93c.06.6-.08.7-.35.9h0c-.21.16-.34.28-.84.1Z"/><path class="cls-10" d="M37.66,165.62a6.66,6.66,0,0,1-8.82-3.29h0a6.67,6.67,0,0,1,3.3-8.82l50.72-23.11a6.65,6.65,0,0,1,8.82,3.29h0a6.66,6.66,0,0,1-3.3,8.82Z"/><path class="cls-10" d="M42.64,125.41a6.67,6.67,0,0,1,3.3-8.82h0a6.65,6.65,0,0,1,8.82,3.29L77.87,170.6a6.66,6.66,0,0,1-3.3,8.82h0a6.66,6.66,0,0,1-8.82-3.3Z"/><path class="cls-5" d="M180.83,158a18.16,18.16,0,1,1-5.33-25.12A18.16,18.16,0,0,1,180.83,158Z"/><path class="cls-4" d="M60.79,24a4.28,4.28,0,0,1,.74-6h0a4.28,4.28,0,0,1,6,.74L89.58,47a4.28,4.28,0,0,1-.74,6h0a4.28,4.28,0,0,1-6-.74Z"/><path class="cls-4" d="M86.68,21.14a4.28,4.28,0,0,1,6,.75h0a4.28,4.28,0,0,1-.74,6l-28.26,22a4.28,4.28,0,0,1-6-.74h0a4.28,4.28,0,0,1,.74-6Z"/><path class="cls-6" d="M34.28,24.58a1.31,1.31,0,0,1-.94,1.6l-21.1,5.49a1.31,1.31,0,0,1-1.6-.94L5.15,9.63A1.32,1.32,0,0,1,6.09,8l21.1-5.49a1.31,1.31,0,0,1,1.6.94Z"/></g></g></svg>