<?xml version="1.0" encoding="UTF-8"?>
<!DOCTYPE svg PUBLIC "-//W3C//DTD SVG 1.1//EN" "http://www.w3.org/Graphics/SVG/1.1/DTD/svg11.dtd">
<!-- Creator: CorelDRAW X7 -->
<svg xmlns="http://www.w3.org/2000/svg" xml:space="preserve" width="450px" height="780px" version="1.1" style="shape-rendering:geometricPrecision; text-rendering:geometricPrecision; image-rendering:optimizeQuality; fill-rule:evenodd; clip-rule:evenodd"
viewBox="0 0 450 780"
 xmlns:xlink="http://www.w3.org/1999/xlink">
 <defs>
  <style type="text/css">
   <![CDATA[
    .str0 {stroke:#999999;stroke-width:4.91223;stroke-linecap:round;stroke-linejoin:round}
    .fil233 {fill:none}
    .fil236 {fill:#003345}
    .fil241 {fill:#00455E}
    .fil239 {fill:#0083B3}
    .fil2 {fill:#0A7E80}
    .fil4 {fill:#0FADD4}
    .fil235 {fill:#1BA6A8}
    .fil5 {fill:#28616A}
    .fil242 {fill:#333333}
    .fil1 {fill:#34C8CA}
    .fil245 {fill:#43ACBF}
    .fil209 {fill:#C9EFF5}
    .fil0 {fill:#DBDBDB}
    .fil240 {fill:#E6E6E6}
    .fil208 {fill:#F3C200}
    .fil244 {fill:#FFBF00}
    .fil7 {fill:#FFD900}
    .fil206 {fill:#FFD901}
    .fil205 {fill:#FFD902}
    .fil204 {fill:#FFD903}
    .fil203 {fill:#FFDA04}
    .fil202 {fill:#FFDA05}
    .fil201 {fill:#FFDA06}
    .fil200 {fill:#FFDA07}
    .fil199 {fill:#FFDA08}
    .fil198 {fill:#FFDA09}
    .fil197 {fill:#FFDA0A}
    .fil196 {fill:#FFDB0B}
    .fil195 {fill:#FFDB0C}
    .fil194 {fill:#FFDB0D}
    .fil193 {fill:#FFDB0E}
    .fil192 {fill:#FFDB0F}
    .fil191 {fill:#FFDB10}
    .fil190 {fill:#FFDC11}
    .fil189 {fill:#FFDC12}
    .fil188 {fill:#FFDC13}
    .fil187 {fill:#FFDC14}
    .fil186 {fill:#FFDC15}
    .fil185 {fill:#FFDC16}
    .fil184 {fill:#FFDC17}
    .fil183 {fill:#FFDD18}
    .fil182 {fill:#FFDD19}
    .fil181 {fill:#FFDD1A}
    .fil180 {fill:#FFDD1B}
    .fil179 {fill:#FFDD1C}
    .fil178 {fill:#FFDD1D}
    .fil177 {fill:#FFDD1E}
    .fil176 {fill:#FFDE1E}
    .fil175 {fill:#FFDE1F}
    .fil174 {fill:#FFDE20}
    .fil173 {fill:#FFDE21}
    .fil172 {fill:#FFDE22}
    .fil171 {fill:#FFDE23}
    .fil170 {fill:#FFDE24}
    .fil169 {fill:#FFDE25}
    .fil168 {fill:#FFDF25}
    .fil167 {fill:#FFDF26}
    .fil166 {fill:#FFDF27}
    .fil165 {fill:#FFDF28}
    .fil164 {fill:#FFDF29}
    .fil163 {fill:#FFDF2A}
    .fil162 {fill:#FFDF2B}
    .fil161 {fill:#FFE02C}
    .fil160 {fill:#FFE02D}
    .fil159 {fill:#FFE02E}
    .fil158 {fill:#FFE02F}
    .fil157 {fill:#FFE030}
    .fil156 {fill:#FFE031}
    .fil155 {fill:#FFE132}
    .fil154 {fill:#FFE133}
    .fil153 {fill:#FFE134}
    .fil152 {fill:#FFE135}
    .fil151 {fill:#FFE136}
    .fil150 {fill:#FFE137}
    .fil149 {fill:#FFE138}
    .fil148 {fill:#FFE239}
    .fil147 {fill:#FFE23A}
    .fil146 {fill:#FFE23B}
    .fil145 {fill:#FFE23C}
    .fil144 {fill:#FFE23D}
    .fil143 {fill:#FFE23E}
    .fil142 {fill:#FFE23F}
    .fil141 {fill:#FFE340}
    .fil140 {fill:#FFE341}
    .fil139 {fill:#FFE342}
    .fil138 {fill:#FFE343}
    .fil137 {fill:#FFE344}
    .fil136 {fill:#FFE345}
    .fil135 {fill:#FFE346}
    .fil134 {fill:#FFE447}
    .fil133 {fill:#FFE448}
    .fil132 {fill:#FFE449}
    .fil131 {fill:#FFE44A}
    .fil130 {fill:#FFE44B}
    .fil129 {fill:#FFE44C}
    .fil128 {fill:#FFE44D}
    .fil127 {fill:#FFE54E}
    .fil126 {fill:#FFE54F}
    .fil125 {fill:#FFE550}
    .fil124 {fill:#FFE551}
    .fil123 {fill:#FFE552}
    .fil122 {fill:#FFE553}
    .fil121 {fill:#FFE654}
    .fil120 {fill:#FFE655}
    .fil119 {fill:#FFE656}
    .fil118 {fill:#FFE657}
    .fil117 {fill:#FFE658}
    .fil116 {fill:#FFE659}
    .fil115 {fill:#FFE65A}
    .fil114 {fill:#FFE75B}
    .fil113 {fill:#FFE75C}
    .fil112 {fill:#FFE75D}
    .fil111 {fill:#FFE75E}
    .fil110 {fill:#FFE75F}
    .fil109 {fill:#FFE760}
    .fil108 {fill:#FFE761}
    .fil107 {fill:#FFE861}
    .fil106 {fill:#FFE862}
    .fil105 {fill:#FFE863}
    .fil104 {fill:#FFE864}
    .fil103 {fill:#FFE865}
    .fil102 {fill:#FFE866}
    .fil101 {fill:#FFE867}
    .fil100 {fill:#FFE968}
    .fil99 {fill:#FFE969}
    .fil98 {fill:#FFE96A}
    .fil97 {fill:#FFE96B}
    .fil96 {fill:#FFE96C}
    .fil95 {fill:#FFE96D}
    .fil94 {fill:#FFE96E}
    .fil93 {fill:#FFEA6F}
    .fil92 {fill:#FFEA70}
    .fil91 {fill:#FFEA71}
    .fil90 {fill:#FFEA72}
    .fil89 {fill:#FFEA73}
    .fil88 {fill:#FFEA74}
    .fil87 {fill:#FFEB75}
    .fil86 {fill:#FFEB76}
    .fil85 {fill:#FFEB77}
    .fil84 {fill:#FFEB78}
    .fil83 {fill:#FFEB79}
    .fil82 {fill:#FFEB7A}
    .fil81 {fill:#FFEB7B}
    .fil80 {fill:#FFEC7C}
    .fil79 {fill:#FFEC7D}
    .fil78 {fill:#FFEC7E}
    .fil77 {fill:#FFEC7F}
    .fil76 {fill:#FFEC80}
    .fil75 {fill:#FFEC81}
    .fil74 {fill:#FFEC82}
    .fil73 {fill:#FFED83}
    .fil72 {fill:#FFED84}
    .fil71 {fill:#FFED85}
    .fil70 {fill:#FFED86}
    .fil69 {fill:#FFED87}
    .fil68 {fill:#FFED88}
    .fil67 {fill:#FFED89}
    .fil66 {fill:#FFEE8A}
    .fil65 {fill:#FFEE8B}
    .fil64 {fill:#FFEE8C}
    .fil63 {fill:#FFEE8D}
    .fil62 {fill:#FFEE8E}
    .fil61 {fill:#FFEE8F}
    .fil60 {fill:#FFEE90}
    .fil59 {fill:#FFEF91}
    .fil58 {fill:#FFEF92}
    .fil57 {fill:#FFEF93}
    .fil56 {fill:#FFEF94}
    .fil55 {fill:#FFEF95}
    .fil54 {fill:#FFEF96}
    .fil53 {fill:#FFF097}
    .fil52 {fill:#FFF098}
    .fil51 {fill:#FFF099}
    .fil50 {fill:#FFF09A}
    .fil49 {fill:#FFF09B}
    .fil48 {fill:#FFF09C}
    .fil47 {fill:#FFF09D}
    .fil46 {fill:#FFF19D}
    .fil45 {fill:#FFF19E}
    .fil44 {fill:#FFF19F}
    .fil43 {fill:#FFF1A0}
    .fil42 {fill:#FFF1A1}
    .fil41 {fill:#FFF1A2}
    .fil40 {fill:#FFF1A3}
    .fil39 {fill:#FFF1A4}
    .fil38 {fill:#FFF2A4}
    .fil37 {fill:#FFF2A5}
    .fil36 {fill:#FFF2A6}
    .fil35 {fill:#FFF2A7}
    .fil34 {fill:#FFF2A8}
    .fil33 {fill:#FFF2A9}
    .fil32 {fill:#FFF2AA}
    .fil31 {fill:#FFF3AB}
    .fil30 {fill:#FFF3AC}
    .fil29 {fill:#FFF3AD}
    .fil28 {fill:#FFF3AE}
    .fil27 {fill:#FFF3AF}
    .fil26 {fill:#FFF3B0}
    .fil25 {fill:#FFF3B1}
    .fil6 {fill:#FFF3B2}
    .fil24 {fill:#FFF4B2}
    .fil23 {fill:#FFF4B3}
    .fil22 {fill:#FFF4B4}
    .fil21 {fill:#FFF4B5}
    .fil20 {fill:#FFF4B6}
    .fil19 {fill:#FFF4B7}
    .fil18 {fill:#FFF5B8}
    .fil17 {fill:#FFF5B9}
    .fil16 {fill:#FFF5BA}
    .fil15 {fill:#FFF5BB}
    .fil14 {fill:#FFF5BC}
    .fil13 {fill:#FFF5BD}
    .fil12 {fill:#FFF5BE}
    .fil11 {fill:#FFF6BF}
    .fil10 {fill:#FFF6C0}
    .fil9 {fill:#FFF6C1}
    .fil8 {fill:#FFF6C2}
    .fil234 {fill:white}
    .fil237 {fill:black;fill-rule:nonzero}
    .fil211 {fill:#28616A;fill-rule:nonzero}
    .fil3 {fill:#34C8CA;fill-rule:nonzero}
    .fil207 {fill:black;fill-opacity:0.200000}
    .fil227 {fill:url(#id2)}
    .fil213 {fill:url(#id3)}
    .fil212 {fill:url(#id4)}
    .fil210 {fill:url(#id5)}
    .fil214 {fill:url(#id6)}
    .fil215 {fill:url(#id7)}
    .fil228 {fill:url(#id8)}
    .fil231 {fill:url(#id9)}
    .fil230 {fill:url(#id10)}
    .fil229 {fill:url(#id11)}
    .fil232 {fill:url(#id12)}
    .fil243 {fill:url(#id13)}
    .fil222 {fill:url(#id14)}
    .fil225 {fill:url(#id15)}
    .fil224 {fill:url(#id16)}
    .fil223 {fill:url(#id17)}
    .fil226 {fill:url(#id18)}
    .fil221 {fill:url(#id19)}
    .fil216 {fill:url(#id20)}
    .fil218 {fill:url(#id21)}
    .fil217 {fill:url(#id22)}
    .fil219 {fill:url(#id23)}
    .fil220 {fill:url(#id24)}
    .fil238 {fill:url(#id25);fill-opacity:0.501961}
   ]]>
  </style>
        <clipPath id="id0">
         <path d="M115 174c4,0 7,-3 7,-7 0,-3 -3,-6 -7,-6 -3,0 -6,3 -6,6 0,4 3,7 6,7z"/>
        </clipPath>
      <clipPath id="id1">
       <path d="M362 290l0 386 -211 0 0 -386c0,-11 10,-21 22,-21l168 0c11,0 21,10 21,21z"/>
      </clipPath>
  <linearGradient id="id2" gradientUnits="userSpaceOnUse" x1="507.627" y1="284.09" x2="513.642" y2="310.91">
   <stop offset="0" style="stop-opacity:1; stop-color:#BFE6ED"/>
   <stop offset="1" style="stop-opacity:1; stop-color:#58BFD1"/>
  </linearGradient>
  <linearGradient id="id3" gradientUnits="userSpaceOnUse" xlink:href="#id2" x1="425.82" y1="419.97" x2="440.199" y2="484.197">
  </linearGradient>
  <linearGradient id="id4" gradientUnits="userSpaceOnUse" xlink:href="#id2" x1="425.82" y1="351.266" x2="440.199" y2="415.493">
  </linearGradient>
  <linearGradient id="id5" gradientUnits="userSpaceOnUse" xlink:href="#id2" x1="425.82" y1="282.563" x2="440.199" y2="346.789">
  </linearGradient>
  <linearGradient id="id6" gradientUnits="userSpaceOnUse" xlink:href="#id2" x1="425.82" y1="488.674" x2="440.199" y2="552.901">
  </linearGradient>
  <linearGradient id="id7" gradientUnits="userSpaceOnUse" xlink:href="#id2" x1="428.427" y1="555.178" x2="437.592" y2="608.176">
  </linearGradient>
  <linearGradient id="id8" gradientUnits="userSpaceOnUse" xlink:href="#id2" x1="504.62" y1="322.209" x2="516.649" y2="375.848">
  </linearGradient>
  <linearGradient id="id9" gradientUnits="userSpaceOnUse" xlink:href="#id2" x1="504.62" y1="528.319" x2="516.649" y2="581.961">
  </linearGradient>
  <linearGradient id="id10" gradientUnits="userSpaceOnUse" xlink:href="#id2" x1="504.62" y1="459.617" x2="516.649" y2="513.255">
  </linearGradient>
  <linearGradient id="id11" gradientUnits="userSpaceOnUse" xlink:href="#id2" x1="504.62" y1="390.912" x2="516.649" y2="444.553">
  </linearGradient>
  <linearGradient id="id12" gradientUnits="userSpaceOnUse" xlink:href="#id2" x1="510.19" y1="591.578" x2="511.079" y2="606.13">
  </linearGradient>
  <linearGradient id="id13" gradientUnits="userSpaceOnUse" x1="263.179" y1="689.278" x2="367.399" y2="674.391">
   <stop offset="0" style="stop-opacity:1; stop-color:#E5F8FF"/>
   <stop offset="1" style="stop-opacity:1; stop-color:#9AD2E6"/>
  </linearGradient>
  <linearGradient id="id14" gradientUnits="userSpaceOnUse" xlink:href="#id2" x1="477.571" y1="316.915" x2="491.949" y2="381.141">
  </linearGradient>
  <linearGradient id="id15" gradientUnits="userSpaceOnUse" xlink:href="#id2" x1="477.571" y1="523.027" x2="491.949" y2="587.253">
  </linearGradient>
  <linearGradient id="id16" gradientUnits="userSpaceOnUse" xlink:href="#id2" x1="477.571" y1="454.325" x2="491.949" y2="518.547">
  </linearGradient>
  <linearGradient id="id17" gradientUnits="userSpaceOnUse" xlink:href="#id2" x1="477.571" y1="385.619" x2="491.949" y2="449.845">
  </linearGradient>
  <linearGradient id="id18" gradientUnits="userSpaceOnUse" xlink:href="#id2" x1="484.242" y1="590.352" x2="485.279" y2="607.356">
  </linearGradient>
  <linearGradient id="id19" gradientUnits="userSpaceOnUse" xlink:href="#id2" x1="480.646" y1="279.127" x2="488.874" y2="315.873">
  </linearGradient>
  <linearGradient id="id20" gradientUnits="userSpaceOnUse" xlink:href="#id2" x1="529.321" y1="282.563" x2="543.7" y2="346.789">
  </linearGradient>
  <linearGradient id="id21" gradientUnits="userSpaceOnUse" xlink:href="#id2" x1="529.321" y1="419.97" x2="543.7" y2="484.197">
  </linearGradient>
  <linearGradient id="id22" gradientUnits="userSpaceOnUse" xlink:href="#id2" x1="529.321" y1="351.266" x2="543.7" y2="415.493">
  </linearGradient>
  <linearGradient id="id23" gradientUnits="userSpaceOnUse" xlink:href="#id2" x1="529.321" y1="488.674" x2="543.7" y2="552.901">
  </linearGradient>
  <linearGradient id="id24" gradientUnits="userSpaceOnUse" xlink:href="#id2" x1="531.928" y1="555.178" x2="541.093" y2="608.176">
  </linearGradient>
  <linearGradient id="id25" gradientUnits="userSpaceOnUse" x1="253.193" y1="211.037" x2="258.898" y2="8.53823">
   <stop offset="0" style="stop-opacity:1; stop-color:#BCF5F1"/>
   <stop offset="1" style="stop-opacity:1; stop-color:#F7F2F2"/>
  </linearGradient>
 </defs>
 <g id="Layer_x0020_1">
  <metadata id="CorelCorpID_0Corel-Layer"/>
  <g id="_1595257127088">
   <rect class="fil0" x="33" y="474" width="377" height="251" rx="18" ry="21"/>
   <g>
    <g>
     <g>
      <rect class="fil1" x="88" y="248" width="54.5878" height="172.783"/>
      <rect class="fil2" x="96" y="264" width="38.1697" height="147.978"/>
      <g>
       <polygon class="fil3" points="99,264 134,292 134,297 96,266 96,264 "/>
       <polygon class="fil3" points="99,326 134,297 134,292 96,323 96,326 "/>
       <polygon class="fil3" points="99,324 134,353 134,357 96,327 96,324 "/>
       <polygon class="fil3" points="99,386 134,357 134,353 96,384 96,386 "/>
       <polygon class="fil3" points="99,384 133,412 127,412 96,386 96,384 "/>
       <polygon class="fil3" points="132,264 96,292 96,297 134,266 134,264 "/>
       <polygon class="fil3" points="132,326 96,297 96,292 134,323 134,326 "/>
       <polygon class="fil3" points="132,324 96,353 96,357 134,327 134,324 "/>
       <polygon class="fil3" points="132,386 96,357 96,353 134,384 134,386 "/>
       <polygon class="fil3" points="132,384 98,412 103,412 134,386 134,384 "/>
      </g>
      <rect class="fil1" x="70" y="366" width="90.1718" height="285.415"/>
      <rect class="fil2" x="84" y="391" width="63.0513" height="244.44"/>
      <g>
       <polygon class="fil3" points="88,391 147,439 147,446 84,395 84,391 "/>
       <polygon class="fil3" points="88,493 147,446 147,439 84,490 84,493 "/>
       <polygon class="fil3" points="88,492 147,539 147,546 84,495 84,492 "/>
       <polygon class="fil3" points="88,594 147,546 147,539 84,591 84,594 "/>
       <polygon class="fil3" points="88,591 144,636 135,636 84,594 84,591 "/>
       <polygon class="fil3" points="143,391 84,439 84,446 147,395 147,391 "/>
       <polygon class="fil3" points="143,493 84,446 84,439 147,490 147,493 "/>
       <polygon class="fil3" points="143,492 84,539 84,546 147,495 147,492 "/>
       <polygon class="fil3" points="143,594 84,546 84,539 147,591 147,594 "/>
       <polygon class="fil3" points="143,591 87,636 95,636 147,594 147,591 "/>
      </g>
      <path class="fil4" d="M129 245l0 3 -27 0 0 -3c0,-3 2,-4 4,-4l19 0c2,0 4,1 4,4z"/>
      <path class="fil5" d="M108 239l0 2 15 0 0 -2c0,0 0,0 0,0l-15 0c0,0 0,0 0,0z"/>
      <rect class="fil6" x="113" y="167" width="4.2178" height="71.6636"/>
      <g>
       <g style="clip-path:url(#id0)">
        <g>
         <polygon class="fil7" points="109,161 122,161 122,174 109,174 "/>
        </g>
        <polygon id="1" class="fil8" points="112,164 112,164 112,164 112,164 "/>
        <path id="2" class="fil9" d="M112 164l0 0 0 0 0 0 0 0zm0 0l0 0 0 0 0 0 0 0z"/>
        <path id="3" class="fil10" d="M112 164l0 0 0 0 0 0 0 0zm0 0l1 0 0 0 -1 0 0 0z"/>
        <path id="4" class="fil10" d="M112 164l0 0 1 0 0 0 -1 0zm0 0l1 0 0 0 -1 0 0 0z"/>
        <path id="5" class="fil11" d="M112 164l0 0 1 0 0 0 -1 0zm0 0l1 0 0 0 -1 0 0 0z"/>
        <path id="6" class="fil12" d="M112 164l0 0 1 0 0 0 -1 0zm0 0l1 0 0 0 -1 0 0 0z"/>
        <path id="7" class="fil13" d="M112 164l0 0 1 0 0 0 -1 0zm0 0l1 0 0 0 -1 0 0 0z"/>
        <path id="8" class="fil13" d="M112 164l0 0 1 0 0 0 -1 0zm0 0l1 0 0 1 -1 0 0 -1z"/>
        <path id="9" class="fil14" d="M112 164l0 1 1 0 0 -1 -1 0zm0 0l1 0 0 1 -1 0 0 -1z"/>
        <path id="10" class="fil15" d="M112 164l0 1 1 0 0 -1 -1 0zm0 0l1 0 0 1 -1 0 0 -1z"/>
        <path id="11" class="fil16" d="M112 164l0 1 1 0 0 -1 -1 0zm0 0l1 0 0 1 -1 0 0 -1z"/>
        <path id="12" class="fil16" d="M112 164l0 1 1 0 0 -1 -1 0zm0 0l1 0 0 1 -1 0 0 -1z"/>
        <path id="13" class="fil17" d="M112 164l0 1 1 0 0 -1 -1 0zm0 0l1 0 0 1 -1 0 0 -1z"/>
        <path id="14" class="fil18" d="M112 164l0 1 1 0 0 -1 -1 0zm0 0l1 0 0 1 -1 0 0 -1z"/>
        <path id="15" class="fil19" d="M112 164l0 1 1 0 0 -1 -1 0zm0 0l1 0 0 1 -1 0 0 -1z"/>
        <path id="16" class="fil19" d="M112 164l0 1 1 0 0 -1 -1 0zm0 0l1 0 0 1 -1 0 0 -1z"/>
        <path id="17" class="fil20" d="M112 164l0 1 1 0 0 -1 -1 0zm0 0l1 0 0 1 -1 0 0 -1z"/>
        <path id="18" class="fil21" d="M112 164l0 1 1 0 0 -1 -1 0zm0 0l1 0 0 1 -1 0 0 -1z"/>
        <path id="19" class="fil22" d="M112 164l0 1 1 0 0 -1 -1 0zm0 0l1 0 0 1 -1 0 0 -1z"/>
        <path id="20" class="fil22" d="M112 164l0 1 1 0 0 -1 -1 0zm0 0l1 0 0 1 -1 0 0 -1z"/>
        <path id="21" class="fil23" d="M112 164l0 1 1 0 0 -1 -1 0zm0 0l1 0 0 1 -1 0 0 -1z"/>
        <path id="22" class="fil24" d="M112 164l0 1 1 0 0 -1 -1 0zm0 0l1 0 0 1 -1 0 0 -1z"/>
        <path id="23" class="fil25" d="M112 164l0 1 1 0 0 -1 -1 0zm0 0l1 0 0 1 -1 0 0 -1z"/>
        <path id="24" class="fil25" d="M112 164l0 1 1 0 0 -1 -1 0zm0 0l1 0 0 1 -1 0 0 -1z"/>
        <path id="25" class="fil26" d="M112 164l0 1 1 0 0 -1 -1 0zm0 0l1 0 0 1 -1 0 0 -1z"/>
        <path id="26" class="fil27" d="M112 164l0 1 1 0 0 -1 -1 0zm0 0l1 0 0 1 -1 0 0 -1z"/>
        <path id="27" class="fil28" d="M112 164l0 1 1 0 0 -1 -1 0zm0 0l1 0 0 1 -1 0 0 -1z"/>
        <path id="28" class="fil29" d="M112 164l0 1 1 0 0 -1 -1 0zm0 0l1 0 0 1 -1 0 0 -1z"/>
        <path id="29" class="fil29" d="M112 164l0 1 1 0 0 -1 -1 0zm0 0l1 0 0 1 -1 0 0 -1z"/>
        <path id="30" class="fil30" d="M112 164l0 1 1 0 0 -1 -1 0zm0 -1l1 0 0 2 -1 0 0 -2z"/>
        <path id="31" class="fil31" d="M112 164l0 1 1 0 0 -1 -1 0zm0 -1l1 0 0 2 -1 0 0 -2z"/>
        <path id="32" class="fil32" d="M112 163l0 2 1 0 0 -2 -1 0zm0 0l1 0 0 2 -1 0 0 -2z"/>
        <path id="33" class="fil32" d="M112 163l0 2 1 0 0 -2 -1 0zm0 0l1 0 0 2 -1 0 0 -2z"/>
        <path id="34" class="fil33" d="M112 163l0 2 1 0 0 -2 -1 0zm0 0l1 0 0 2 -1 0 0 -2z"/>
        <path id="35" class="fil34" d="M112 163l0 2 1 0 0 -2 -1 0zm-1 0l2 0 0 2 -2 0 0 -2z"/>
        <path id="36" class="fil35" d="M112 163l0 2 1 0 0 -2 -1 0zm-1 0l2 0 0 2 -2 0 0 -2z"/>
        <path id="37" class="fil35" d="M111 163l0 2 2 0 0 -2 -2 0zm0 0l2 0 0 2 -2 0 0 -2z"/>
        <path id="38" class="fil36" d="M111 163l0 2 2 0 0 -2 -2 0zm0 0l2 0 0 2 -2 0 0 -2z"/>
        <path id="39" class="fil37" d="M111 163l0 2 2 0 0 -2 -2 0zm0 0l2 0 0 2 -2 0 0 -2z"/>
        <path id="40" class="fil38" d="M111 163l0 2 2 0 0 -2 -2 0zm0 0l2 0 0 2 -2 0 0 -2z"/>
        <path id="41" class="fil39" d="M111 163l0 2 2 0 0 -2 -2 0zm0 0l3 0 0 2 -3 0 0 -2z"/>
        <path id="42" class="fil40" d="M111 163l0 2 3 0 0 -2 -3 0zm0 0l3 0 0 2 -3 0 0 -2z"/>
        <path id="43" class="fil41" d="M111 163l0 2 3 0 0 -2 -3 0zm0 0l3 0 0 2 -3 0 0 -2z"/>
        <path id="44" class="fil42" d="M111 163l0 2 3 0 0 -2 -3 0zm0 0l3 0 0 2 -3 0 0 -2z"/>
        <path id="45" class="fil42" d="M111 163l0 2 3 0 0 -2 -3 0zm0 0l3 0 0 2 -3 0 0 -2z"/>
        <path id="46" class="fil43" d="M111 163l0 2 3 0 0 -2 -3 0zm0 0l3 0 0 3 -3 0 0 -3z"/>
        <path id="47" class="fil44" d="M111 163l0 3 3 0 0 -3 -3 0zm0 0l3 0 0 3 -3 0 0 -3z"/>
        <path id="48" class="fil45" d="M111 163l0 3 3 0 0 -3 -3 0zm0 0l3 0 0 3 -3 0 0 -3z"/>
        <path id="49" class="fil46" d="M111 163l0 3 3 0 0 -3 -3 0zm0 0l3 0 0 3 -3 0 0 -3z"/>
        <path id="50" class="fil47" d="M111 163l0 3 3 0 0 -3 -3 0zm0 0l3 0 0 3 -3 0 0 -3z"/>
        <path id="51" class="fil48" d="M111 163l0 3 3 0 0 -3 -3 0zm0 0l3 0 0 3 -3 0 0 -3z"/>
        <path id="52" class="fil49" d="M111 163l0 3 3 0 0 -3 -3 0zm0 0l3 0 0 3 -3 0 0 -3z"/>
        <path id="53" class="fil50" d="M111 163l0 3 3 0 0 -3 -3 0zm0 0l3 0 0 3 -3 0 0 -3z"/>
        <path id="54" class="fil50" d="M111 163l0 3 3 0 0 -3 -3 0zm0 0l3 0 0 3 -3 0 0 -3z"/>
        <path id="55" class="fil51" d="M111 163l0 3 3 0 0 -3 -3 0zm0 0l3 0 0 3 -3 0 0 -3z"/>
        <path id="56" class="fil52" d="M111 163l0 3 3 0 0 -3 -3 0zm0 0l3 0 0 3 -3 0 0 -3z"/>
        <path id="57" class="fil53" d="M111 163l0 3 3 0 0 -3 -3 0zm0 0l3 0 0 3 -3 0 0 -3z"/>
        <path id="58" class="fil53" d="M111 163l0 3 3 0 0 -3 -3 0zm0 0l3 0 0 3 -3 0 0 -3z"/>
        <path id="59" class="fil54" d="M111 163l0 3 3 0 0 -3 -3 0zm0 0l3 0 0 3 -3 0 0 -3z"/>
        <path id="60" class="fil55" d="M111 163l0 3 3 0 0 -3 -3 0zm0 0l3 0 0 3 -3 0 0 -3z"/>
        <path id="61" class="fil56" d="M111 163l0 3 3 0 0 -3 -3 0zm0 0l3 0 0 3 -3 0 0 -3z"/>
        <path id="62" class="fil56" d="M111 163l0 3 3 0 0 -3 -3 0zm0 0l3 0 0 3 -3 0 0 -3z"/>
        <path id="63" class="fil57" d="M111 163l0 3 3 0 0 -3 -3 0zm0 0l3 0 0 3 -3 0 0 -3z"/>
        <path id="64" class="fil58" d="M111 163l0 3 3 0 0 -3 -3 0zm0 0l3 0 0 3 -3 0 0 -3z"/>
        <path id="65" class="fil59" d="M111 163l0 3 3 0 0 -3 -3 0zm0 0l3 0 0 3 -3 0 0 -3z"/>
        <path id="66" class="fil59" d="M111 163l0 3 3 0 0 -3 -3 0zm0 0l3 0 0 3 -3 0 0 -3z"/>
        <path id="67" class="fil60" d="M111 163l0 3 3 0 0 -3 -3 0zm0 0l3 0 0 3 -3 0 0 -3z"/>
        <path id="68" class="fil61" d="M111 163l0 3 3 0 0 -3 -3 0zm0 -1l3 0 0 4 -3 0 0 -4z"/>
        <path id="69" class="fil62" d="M111 163l0 3 3 0 0 -3 -3 0zm0 -1l3 0 0 4 -3 0 0 -4z"/>
        <path id="70" class="fil62" d="M111 162l0 4 3 0 0 -4 -3 0zm0 0l3 0 0 4 -3 0 0 -4z"/>
        <path id="71" class="fil63" d="M111 162l0 4 3 0 0 -4 -3 0zm0 0l3 0 0 4 -3 0 0 -4z"/>
        <path id="72" class="fil64" d="M111 162l0 4 3 0 0 -4 -3 0zm0 0l3 0 0 4 -3 0 0 -4z"/>
        <path id="73" class="fil65" d="M111 162l0 4 3 0 0 -4 -3 0zm-1 0l4 0 0 4 -4 0 0 -4z"/>
        <path id="74" class="fil66" d="M111 162l0 4 3 0 0 -4 -3 0zm-1 0l4 0 0 4 -4 0 0 -4z"/>
        <path id="75" class="fil66" d="M110 162l0 4 4 0 0 -4 -4 0zm0 0l4 0 0 4 -4 0 0 -4z"/>
        <path id="76" class="fil67" d="M110 162l0 4 4 0 0 -4 -4 0zm0 0l4 0 0 4 -4 0 0 -4z"/>
        <path id="77" class="fil68" d="M110 162l0 4 4 0 0 -4 -4 0zm0 0l4 0 0 4 -4 0 0 -4z"/>
        <path id="78" class="fil69" d="M110 162l0 4 4 0 0 -4 -4 0zm0 0l4 0 0 4 -4 0 0 -4z"/>
        <path id="79" class="fil69" d="M110 162l0 4 4 0 0 -4 -4 0zm0 0l5 0 0 4 -5 0 0 -4z"/>
        <path id="80" class="fil70" d="M110 162l0 4 5 0 0 -4 -5 0zm0 0l5 0 0 4 -5 0 0 -4z"/>
        <path id="81" class="fil71" d="M110 162l0 4 5 0 0 -4 -5 0zm0 0l5 0 0 4 -5 0 0 -4z"/>
        <path id="82" class="fil72" d="M110 162l0 4 5 0 0 -4 -5 0zm0 0l5 0 0 4 -5 0 0 -4z"/>
        <path id="83" class="fil72" d="M110 162l0 4 5 0 0 -4 -5 0zm0 0l5 0 0 4 -5 0 0 -4z"/>
        <path id="84" class="fil73" d="M110 162l0 4 5 0 0 -4 -5 0zm0 0l5 0 0 5 -5 0 0 -5z"/>
        <path id="85" class="fil74" d="M110 162l0 5 5 0 0 -5 -5 0zm0 0l5 0 0 5 -5 0 0 -5z"/>
        <path id="86" class="fil75" d="M110 162l0 5 5 0 0 -5 -5 0zm0 0l5 0 0 5 -5 0 0 -5z"/>
        <path id="87" class="fil75" d="M110 162l0 5 5 0 0 -5 -5 0zm0 0l5 0 0 5 -5 0 0 -5z"/>
        <path id="88" class="fil76" d="M110 162l0 5 5 0 0 -5 -5 0zm0 0l5 0 0 5 -5 0 0 -5z"/>
        <path id="89" class="fil77" d="M110 162l0 5 5 0 0 -5 -5 0zm0 0l5 0 0 5 -5 0 0 -5z"/>
        <path id="90" class="fil78" d="M110 162l0 5 5 0 0 -5 -5 0zm0 0l5 0 0 5 -5 0 0 -5z"/>
        <path id="91" class="fil78" d="M110 162l0 5 5 0 0 -5 -5 0zm0 0l5 0 0 5 -5 0 0 -5z"/>
        <path id="92" class="fil79" d="M110 162l0 5 5 0 0 -5 -5 0zm0 0l5 0 0 5 -5 0 0 -5z"/>
        <path id="93" class="fil80" d="M110 162l0 5 5 0 0 -5 -5 0zm0 0l5 0 0 5 -5 0 0 -5z"/>
        <path id="94" class="fil81" d="M110 162l0 5 5 0 0 -5 -5 0zm0 0l5 0 0 5 -5 0 0 -5z"/>
        <path id="95" class="fil82" d="M110 162l0 5 5 0 0 -5 -5 0zm0 0l5 0 0 5 -5 0 0 -5z"/>
        <path id="96" class="fil82" d="M110 162l0 5 5 0 0 -5 -5 0zm0 0l5 0 0 5 -5 0 0 -5z"/>
        <path id="97" class="fil83" d="M110 162l0 5 5 0 0 -5 -5 0zm0 0l5 0 0 5 -5 0 0 -5z"/>
        <path id="98" class="fil84" d="M110 162l0 5 5 0 0 -5 -5 0zm0 0l5 0 0 5 -5 0 0 -5z"/>
        <path id="99" class="fil85" d="M110 162l0 5 5 0 0 -5 -5 0zm0 0l5 0 0 5 -5 0 0 -5z"/>
        <path id="100" class="fil85" d="M110 162l0 5 5 0 0 -5 -5 0zm0 0l5 0 0 5 -5 0 0 -5z"/>
        <path id="101" class="fil86" d="M110 162l0 5 5 0 0 -5 -5 0zm0 0l5 0 0 5 -5 0 0 -5z"/>
        <path id="102" class="fil87" d="M110 162l0 5 5 0 0 -5 -5 0zm0 0l5 0 0 5 -5 0 0 -5z"/>
        <path id="103" class="fil88" d="M110 162l0 5 5 0 0 -5 -5 0zm0 0l5 0 0 5 -5 0 0 -5z"/>
        <path id="104" class="fil88" d="M110 162l0 5 5 0 0 -5 -5 0zm0 0l5 0 0 5 -5 0 0 -5z"/>
        <path id="105" class="fil89" d="M110 162l0 5 5 0 0 -5 -5 0zm0 0l5 0 0 5 -5 0 0 -5z"/>
        <path id="106" class="fil90" d="M110 162l0 5 5 0 0 -5 -5 0zm0 -1l5 0 0 6 -5 0 0 -6z"/>
        <path id="107" class="fil91" d="M110 162l0 5 5 0 0 -5 -5 0zm0 -1l5 0 0 6 -5 0 0 -6z"/>
        <path id="108" class="fil91" d="M110 161l0 6 5 0 0 -6 -5 0zm0 0l5 0 0 6 -5 0 0 -6z"/>
        <path id="109" class="fil92" d="M110 161l0 6 5 0 0 -6 -5 0zm0 0l5 0 0 6 -5 0 0 -6z"/>
        <path id="110" class="fil93" d="M110 161l0 6 5 0 0 -6 -5 0zm0 0l5 0 0 6 -5 0 0 -6z"/>
        <path id="111" class="fil94" d="M110 161l0 6 5 0 0 -6 -5 0zm-1 0l6 0 0 6 -6 0 0 -6z"/>
        <path id="112" class="fil94" d="M110 161l0 6 5 0 0 -6 -5 0zm-1 0l6 0 0 6 -6 0 0 -6z"/>
        <path id="113" class="fil95" d="M109 161l0 6 6 0 0 -6 -6 0zm0 0l6 0 0 6 -6 0 0 -6z"/>
        <path id="114" class="fil96" d="M109 161l0 6 6 0 0 -6 -6 0zm0 0l6 0 0 6 -6 0 0 -6z"/>
        <path id="115" class="fil97" d="M109 161l0 6 6 0 0 -6 -6 0zm0 0l6 0 0 6 -6 0 0 -6z"/>
        <path id="116" class="fil97" d="M109 161l0 6 6 0 0 -6 -6 0zm0 0l6 0 0 6 -6 0 0 -6z"/>
        <path id="117" class="fil98" d="M109 161l0 6 6 0 0 -6 -6 0zm0 0l7 0 0 6 -7 0 0 -6z"/>
        <path id="118" class="fil99" d="M109 161l0 6 7 0 0 -6 -7 0zm0 0l7 0 0 6 -7 0 0 -6z"/>
        <path id="119" class="fil100" d="M109 161l0 6 7 0 0 -6 -7 0zm0 0l7 0 0 6 -7 0 0 -6z"/>
        <path id="120" class="fil101" d="M109 161l0 6 7 0 0 -6 -7 0zm0 0l7 0 0 6 -7 0 0 -6z"/>
        <path id="121" class="fil101" d="M109 161l0 6 7 0 0 -6 -7 0zm0 0l7 0 0 6 -7 0 0 -6z"/>
        <path id="122" class="fil102" d="M109 161l0 6 7 0 0 -6 -7 0zm0 0l7 0 0 7 -7 0 0 -7z"/>
        <path id="123" class="fil103" d="M109 161l0 7 7 0 0 -7 -7 0zm0 0l7 0 0 7 -7 0 0 -7z"/>
        <path id="124" class="fil104" d="M109 161l0 7 7 0 0 -7 -7 0zm0 0l7 0 0 7 -7 0 0 -7z"/>
        <path id="125" class="fil104" d="M109 161l0 7 7 0 0 -7 -7 0zm0 0l7 0 0 7 -7 0 0 -7z"/>
        <path id="126" class="fil105" d="M109 161l0 7 7 0 0 -7 -7 0zm0 0l7 0 0 7 -7 0 0 -7z"/>
        <path id="127" class="fil106" d="M109 161l0 7 7 0 0 -7 -7 0zm0 0l7 0 0 7 -7 0 0 -7z"/>
        <path id="128" class="fil107" d="M109 161l0 7 7 0 0 -7 -7 0zm0 0l7 0 0 7 -7 0 0 -7z"/>
        <path id="129" class="fil108" d="M109 161l0 7 7 0 0 -7 -7 0zm0 0l7 0 0 7 -7 0 0 -7z"/>
        <path id="130" class="fil109" d="M109 161l0 7 7 0 0 -7 -7 0zm0 0l7 0 0 7 -7 0 0 -7z"/>
        <path id="131" class="fil110" d="M109 161l0 7 7 0 0 -7 -7 0zm0 0l7 0 0 7 -7 0 0 -7z"/>
        <path id="132" class="fil111" d="M109 161l0 7 7 0 0 -7 -7 0zm0 0l7 0 0 7 -7 0 0 -7z"/>
        <path id="133" class="fil111" d="M109 161l0 7 7 0 0 -7 -7 0zm0 0l7 0 0 7 -7 0 0 -7z"/>
        <path id="134" class="fil112" d="M109 161l0 7 7 0 0 -7 -7 0zm0 0l7 0 0 7 -7 0 0 -7z"/>
        <path id="135" class="fil113" d="M109 161l0 7 7 0 0 -7 -7 0zm0 0l7 0 0 7 -7 0 0 -7z"/>
        <path id="136" class="fil114" d="M109 161l0 7 7 0 0 -7 -7 0zm0 0l7 0 0 7 -7 0 0 -7z"/>
        <path id="137" class="fil114" d="M109 161l0 7 7 0 0 -7 -7 0zm0 0l7 0 0 7 -7 0 0 -7z"/>
        <path id="138" class="fil115" d="M109 161l0 7 7 0 0 -7 -7 0zm0 0l7 0 0 7 -7 0 0 -7z"/>
        <path id="139" class="fil116" d="M109 161l0 7 7 0 0 -7 -7 0zm0 0l7 0 0 7 -7 0 0 -7z"/>
        <path id="140" class="fil117" d="M109 161l0 7 7 0 0 -7 -7 0zm0 0l7 0 0 7 -7 0 0 -7z"/>
        <path id="141" class="fil118" d="M109 161l0 7 7 0 0 -7 -7 0zm0 0l7 0 0 7 -7 0 0 -7z"/>
        <path id="142" class="fil118" d="M109 161l0 7 7 0 0 -7 -7 0zm0 0l7 0 0 7 -7 0 0 -7z"/>
        <path id="143" class="fil119" d="M109 161l0 7 7 0 0 -7 -7 0zm0 0l7 0 0 7 -7 0 0 -7z"/>
        <path id="144" class="fil120" d="M109 161l0 7 7 0 0 -7 -7 0zm0 -1l7 0 0 8 -7 0 0 -8z"/>
        <path id="145" class="fil121" d="M109 160l0 8 7 0 0 -8 -7 0zm0 0l7 0 0 8 -7 0 0 -8z"/>
        <path id="146" class="fil121" d="M109 160l0 8 7 0 0 -8 -7 0zm0 0l7 0 0 8 -7 0 0 -8z"/>
        <path id="147" class="fil122" d="M109 160l0 8 7 0 0 -8 -7 0zm0 0l7 0 0 8 -7 0 0 -8z"/>
        <path id="148" class="fil123" d="M109 160l0 8 7 0 0 -8 -7 0zm0 0l7 0 0 8 -7 0 0 -8z"/>
        <path id="149" class="fil124" d="M109 160l0 8 7 0 0 -8 -7 0zm-1 0l8 0 0 8 -8 0 0 -8z"/>
        <path id="150" class="fil124" d="M109 160l0 8 7 0 0 -8 -7 0zm-1 0l8 0 0 8 -8 0 0 -8z"/>
        <path id="151" class="fil125" d="M108 160l0 8 8 0 0 -8 -8 0zm0 0l8 0 0 8 -8 0 0 -8z"/>
        <path id="152" class="fil126" d="M108 160l0 8 8 0 0 -8 -8 0zm0 0l8 0 0 8 -8 0 0 -8z"/>
        <path id="153" class="fil127" d="M108 160l0 8 8 0 0 -8 -8 0zm0 0l8 0 0 8 -8 0 0 -8z"/>
        <path id="154" class="fil127" d="M108 160l0 8 8 0 0 -8 -8 0zm0 0l9 0 0 8 -9 0 0 -8z"/>
        <path id="155" class="fil128" d="M108 160l0 8 8 0 0 -8 -8 0zm0 0l9 0 0 8 -9 0 0 -8z"/>
        <path id="156" class="fil129" d="M108 160l0 8 9 0 0 -8 -9 0zm0 0l9 0 0 8 -9 0 0 -8z"/>
        <path id="157" class="fil130" d="M108 160l0 8 9 0 0 -8 -9 0zm0 0l9 0 0 8 -9 0 0 -8z"/>
        <path id="158" class="fil130" d="M108 160l0 8 9 0 0 -8 -9 0zm0 0l9 0 0 8 -9 0 0 -8z"/>
        <path id="159" class="fil131" d="M108 160l0 8 9 0 0 -8 -9 0zm0 0l9 0 0 8 -9 0 0 -8z"/>
        <path id="160" class="fil132" d="M108 160l0 8 9 0 0 -8 -9 0zm0 0l9 0 0 9 -9 0 0 -9z"/>
        <path id="161" class="fil133" d="M108 160l0 9 9 0 0 -9 -9 0zm0 0l9 0 0 9 -9 0 0 -9z"/>
        <path id="162" class="fil133" d="M108 160l0 9 9 0 0 -9 -9 0zm0 0l9 0 0 9 -9 0 0 -9z"/>
        <path id="163" class="fil134" d="M108 160l0 9 9 0 0 -9 -9 0zm0 0l9 0 0 9 -9 0 0 -9z"/>
        <path id="164" class="fil135" d="M108 160l0 9 9 0 0 -9 -9 0zm0 0l9 0 0 9 -9 0 0 -9z"/>
        <path id="165" class="fil136" d="M108 160l0 9 9 0 0 -9 -9 0zm0 0l9 0 0 9 -9 0 0 -9z"/>
        <path id="166" class="fil137" d="M108 160l0 9 9 0 0 -9 -9 0zm0 0l9 0 0 9 -9 0 0 -9z"/>
        <path id="167" class="fil137" d="M108 160l0 9 9 0 0 -9 -9 0zm0 0l9 0 0 9 -9 0 0 -9z"/>
        <path id="168" class="fil138" d="M108 160l0 9 9 0 0 -9 -9 0zm0 0l9 0 0 9 -9 0 0 -9z"/>
        <path id="169" class="fil139" d="M108 160l0 9 9 0 0 -9 -9 0zm0 0l9 0 0 9 -9 0 0 -9z"/>
        <path id="170" class="fil140" d="M108 160l0 9 9 0 0 -9 -9 0zm0 0l9 0 0 9 -9 0 0 -9z"/>
        <path id="171" class="fil140" d="M108 160l0 9 9 0 0 -9 -9 0zm0 0l9 0 0 9 -9 0 0 -9z"/>
        <path id="172" class="fil141" d="M108 160l0 9 9 0 0 -9 -9 0zm0 0l9 0 0 9 -9 0 0 -9z"/>
        <path id="173" class="fil142" d="M108 160l0 9 9 0 0 -9 -9 0zm0 0l9 0 0 9 -9 0 0 -9z"/>
        <path id="174" class="fil143" d="M108 160l0 9 9 0 0 -9 -9 0zm0 0l9 0 0 9 -9 0 0 -9z"/>
        <path id="175" class="fil143" d="M108 160l0 9 9 0 0 -9 -9 0zm0 0l9 0 0 9 -9 0 0 -9z"/>
        <path id="176" class="fil144" d="M108 160l0 9 9 0 0 -9 -9 0zm0 0l9 0 0 9 -9 0 0 -9z"/>
        <path id="177" class="fil145" d="M108 160l0 9 9 0 0 -9 -9 0zm0 0l9 0 0 9 -9 0 0 -9z"/>
        <path id="178" class="fil146" d="M108 160l0 9 9 0 0 -9 -9 0zm0 0l9 0 0 9 -9 0 0 -9z"/>
        <path id="179" class="fil146" d="M108 160l0 9 9 0 0 -9 -9 0zm0 0l9 0 0 9 -9 0 0 -9z"/>
        <path id="180" class="fil147" d="M108 160l0 9 9 0 0 -9 -9 0zm0 0l9 0 0 9 -9 0 0 -9z"/>
        <path id="181" class="fil148" d="M108 160l0 9 9 0 0 -9 -9 0zm0 0l9 0 0 9 -9 0 0 -9z"/>
        <path id="182" class="fil149" d="M108 160l0 9 9 0 0 -9 -9 0zm0 -1l9 0 0 10 -9 0 0 -10z"/>
        <path id="183" class="fil149" d="M108 159l0 10 9 0 0 -10 -9 0zm0 0l9 0 0 10 -9 0 0 -10z"/>
        <path id="184" class="fil150" d="M108 159l0 10 9 0 0 -10 -9 0zm0 0l9 0 0 10 -9 0 0 -10z"/>
        <path id="185" class="fil151" d="M108 159l0 10 9 0 0 -10 -9 0zm0 0l9 0 0 10 -9 0 0 -10z"/>
        <path id="186" class="fil152" d="M108 159l0 10 9 0 0 -10 -9 0zm0 0l9 0 0 10 -9 0 0 -10z"/>
        <path id="187" class="fil153" d="M108 159l0 10 9 0 0 -10 -9 0zm-1 0l10 0 0 10 -10 0 0 -10z"/>
        <path id="188" class="fil153" d="M107 159l0 10 10 0 0 -10 -10 0zm0 0l10 0 0 10 -10 0 0 -10z"/>
        <path id="189" class="fil154" d="M107 159l0 10 10 0 0 -10 -10 0zm0 0l10 0 0 10 -10 0 0 -10z"/>
        <path id="190" class="fil155" d="M107 159l0 10 10 0 0 -10 -10 0zm0 0l10 0 0 10 -10 0 0 -10z"/>
        <path id="191" class="fil156" d="M107 159l0 10 10 0 0 -10 -10 0zm0 0l10 0 0 10 -10 0 0 -10z"/>
        <path id="192" class="fil156" d="M107 159l0 10 10 0 0 -10 -10 0zm0 0l11 0 0 10 -11 0 0 -10z"/>
        <path id="193" class="fil157" d="M107 159l0 10 10 0 0 -10 -10 0zm0 0l11 0 0 10 -11 0 0 -10z"/>
        <path id="194" class="fil158" d="M107 159l0 10 11 0 0 -10 -11 0zm0 0l11 0 0 10 -11 0 0 -10z"/>
        <path id="195" class="fil159" d="M107 159l0 10 11 0 0 -10 -11 0zm0 0l11 0 0 10 -11 0 0 -10z"/>
        <path id="196" class="fil159" d="M107 159l0 10 11 0 0 -10 -11 0zm0 0l11 0 0 10 -11 0 0 -10z"/>
        <path id="197" class="fil160" d="M107 159l0 10 11 0 0 -10 -11 0zm0 0l11 0 0 11 -11 0 0 -11z"/>
        <path id="198" class="fil161" d="M107 159l0 10 11 0 0 -10 -11 0zm0 0l11 0 0 11 -11 0 0 -11z"/>
        <path id="199" class="fil162" d="M107 159l0 11 11 0 0 -11 -11 0zm0 0l11 0 0 11 -11 0 0 -11z"/>
        <path id="200" class="fil162" d="M107 159l0 11 11 0 0 -11 -11 0zm0 0l11 0 0 11 -11 0 0 -11z"/>
        <path id="201" class="fil163" d="M107 159l0 11 11 0 0 -11 -11 0zm0 0l11 0 0 11 -11 0 0 -11z"/>
        <path id="202" class="fil164" d="M107 159l0 11 11 0 0 -11 -11 0zm0 0l11 0 0 11 -11 0 0 -11z"/>
        <path id="203" class="fil165" d="M107 159l0 11 11 0 0 -11 -11 0zm0 0l11 0 0 11 -11 0 0 -11z"/>
        <path id="204" class="fil165" d="M107 159l0 11 11 0 0 -11 -11 0zm0 0l11 0 0 11 -11 0 0 -11z"/>
        <path id="205" class="fil166" d="M107 159l0 11 11 0 0 -11 -11 0zm0 0l11 0 0 11 -11 0 0 -11z"/>
        <path id="206" class="fil167" d="M107 159l0 11 11 0 0 -11 -11 0zm0 0l11 0 0 11 -11 0 0 -11z"/>
        <path id="207" class="fil168" d="M107 159l0 11 11 0 0 -11 -11 0zm0 0l11 0 0 11 -11 0 0 -11z"/>
        <path id="208" class="fil169" d="M107 159l0 11 11 0 0 -11 -11 0zm0 0l11 0 0 11 -11 0 0 -11z"/>
        <path id="209" class="fil170" d="M107 159l0 11 11 0 0 -11 -11 0zm0 0l11 0 0 11 -11 0 0 -11z"/>
        <path id="210" class="fil171" d="M107 159l0 11 11 0 0 -11 -11 0zm0 0l11 0 0 11 -11 0 0 -11z"/>
        <path id="211" class="fil172" d="M107 159l0 11 11 0 0 -11 -11 0zm0 0l11 0 0 11 -11 0 0 -11z"/>
        <path id="212" class="fil173" d="M107 159l0 11 11 0 0 -11 -11 0zm0 0l11 0 0 11 -11 0 0 -11z"/>
        <path id="213" class="fil173" d="M107 159l0 11 11 0 0 -11 -11 0zm0 0l11 0 0 11 -11 0 0 -11z"/>
        <path id="214" class="fil174" d="M107 159l0 11 11 0 0 -11 -11 0zm0 0l11 0 0 11 -11 0 0 -11z"/>
        <path id="215" class="fil175" d="M107 159l0 11 11 0 0 -11 -11 0zm0 0l11 0 0 11 -11 0 0 -11z"/>
        <path id="216" class="fil176" d="M107 159l0 11 11 0 0 -11 -11 0zm0 0l11 0 0 11 -11 0 0 -11z"/>
        <path id="217" class="fil177" d="M107 159l0 11 11 0 0 -11 -11 0zm0 0l11 0 0 11 -11 0 0 -11z"/>
        <path id="218" class="fil178" d="M107 159l0 11 11 0 0 -11 -11 0zm0 0l11 0 0 11 -11 0 0 -11z"/>
        <path id="219" class="fil179" d="M107 159l0 11 11 0 0 -11 -11 0zm0 0l11 0 0 11 -11 0 0 -11z"/>
        <path id="220" class="fil180" d="M107 159l0 11 11 0 0 -11 -11 0zm0 -1l11 0 0 12 -11 0 0 -12z"/>
        <path id="221" class="fil180" d="M107 158l0 12 11 0 0 -12 -11 0zm0 0l11 0 0 12 -11 0 0 -12z"/>
        <path id="222" class="fil181" d="M107 158l0 12 11 0 0 -12 -11 0zm0 0l11 0 0 12 -11 0 0 -12z"/>
        <path id="223" class="fil182" d="M107 158l0 12 11 0 0 -12 -11 0zm0 0l11 0 0 12 -11 0 0 -12z"/>
        <path id="224" class="fil183" d="M107 158l0 12 11 0 0 -12 -11 0zm0 0l11 0 0 12 -11 0 0 -12z"/>
        <path id="225" class="fil183" d="M107 158l0 12 11 0 0 -12 -11 0zm-1 0l12 0 0 12 -12 0 0 -12z"/>
        <path id="226" class="fil184" d="M106 158l0 12 12 0 0 -12 -12 0zm0 0l12 0 0 12 -12 0 0 -12z"/>
        <path id="227" class="fil185" d="M106 158l0 12 12 0 0 -12 -12 0zm0 0l12 0 0 12 -12 0 0 -12z"/>
        <path id="228" class="fil186" d="M106 158l0 12 12 0 0 -12 -12 0zm0 0l12 0 0 12 -12 0 0 -12z"/>
        <path id="229" class="fil186" d="M106 158l0 12 12 0 0 -12 -12 0zm0 0l12 0 0 12 -12 0 0 -12z"/>
        <path id="230" class="fil187" d="M106 158l0 12 12 0 0 -12 -12 0zm0 0l13 0 0 12 -13 0 0 -12z"/>
        <path id="231" class="fil188" d="M106 158l0 12 12 0 0 -12 -12 0zm0 0l13 0 0 12 -13 0 0 -12z"/>
        <path id="232" class="fil189" d="M106 158l0 12 13 0 0 -12 -13 0zm0 0l13 0 0 12 -13 0 0 -12z"/>
        <path id="233" class="fil190" d="M106 158l0 12 13 0 0 -12 -13 0zm0 0l13 0 0 12 -13 0 0 -12z"/>
        <path id="234" class="fil190" d="M106 158l0 12 13 0 0 -12 -13 0zm0 0l13 0 0 12 -13 0 0 -12z"/>
        <path id="235" class="fil191" d="M106 158l0 12 13 0 0 -12 -13 0zm0 0l13 0 0 13 -13 0 0 -13z"/>
        <path id="236" class="fil192" d="M106 158l0 12 13 0 0 -12 -13 0zm0 0l13 0 0 13 -13 0 0 -13z"/>
        <path id="237" class="fil193" d="M106 158l0 13 13 0 0 -13 -13 0zm0 0l13 0 0 13 -13 0 0 -13z"/>
        <path id="238" class="fil193" d="M106 158l0 13 13 0 0 -13 -13 0zm0 0l13 0 0 13 -13 0 0 -13z"/>
        <path id="239" class="fil194" d="M106 158l0 13 13 0 0 -13 -13 0zm0 0l13 0 0 13 -13 0 0 -13z"/>
        <path id="240" class="fil195" d="M106 158l0 13 13 0 0 -13 -13 0zm0 0l13 0 0 13 -13 0 0 -13z"/>
        <path id="241" class="fil196" d="M106 158l0 13 13 0 0 -13 -13 0zm0 0l13 0 0 13 -13 0 0 -13z"/>
        <path id="242" class="fil196" d="M106 158l0 13 13 0 0 -13 -13 0zm0 0l13 0 0 13 -13 0 0 -13z"/>
        <path id="243" class="fil197" d="M106 158l0 13 13 0 0 -13 -13 0zm0 0l13 0 0 13 -13 0 0 -13z"/>
        <path id="244" class="fil198" d="M106 158l0 13 13 0 0 -13 -13 0zm0 0l13 0 0 13 -13 0 0 -13z"/>
        <path id="245" class="fil199" d="M106 158l0 13 13 0 0 -13 -13 0zm0 0l13 0 0 13 -13 0 0 -13z"/>
        <path id="246" class="fil199" d="M106 158l0 13 13 0 0 -13 -13 0zm0 0l13 0 0 13 -13 0 0 -13z"/>
        <path id="247" class="fil200" d="M106 158l0 13 13 0 0 -13 -13 0zm0 0l13 0 0 13 -13 0 0 -13z"/>
        <path id="248" class="fil201" d="M106 158l0 13 13 0 0 -13 -13 0zm0 0l13 0 0 13 -13 0 0 -13z"/>
        <path id="249" class="fil202" d="M106 158l0 13 13 0 0 -13 -13 0zm0 0l13 0 0 13 -13 0 0 -13z"/>
        <path id="250" class="fil202" d="M106 158l0 13 13 0 0 -13 -13 0zm0 0l13 0 0 13 -13 0 0 -13z"/>
        <path id="251" class="fil203" d="M106 158l0 13 13 0 0 -13 -13 0zm0 0l13 0 0 13 -13 0 0 -13z"/>
        <path id="252" class="fil204" d="M106 158l0 13 13 0 0 -13 -13 0zm0 0l13 0 0 13 -13 0 0 -13z"/>
        <path id="253" class="fil205" d="M106 158l0 13 13 0 0 -13 -13 0zm0 0l13 0 0 13 -13 0 0 -13z"/>
        <path id="254" class="fil205" d="M106 158l0 13 13 0 0 -13 -13 0zm0 0l13 0 0 13 -13 0 0 -13z"/>
        <path id="255" class="fil206" d="M106 158l0 13 13 0 0 -13 -13 0zm0 0l13 0 0 13 -13 0 0 -13z"/>
        <path id="256" class="fil7" d="M106 158l0 13 13 0 0 -13 -13 0zm0 0l13 0 0 13 -13 0 0 -13z"/>
       </g>
      </g>
     </g>
     <path class="fil207" d="M118 338l0 0 1 0 0 0 0 0 0 0 0 0 0 0 0 0 0 0 0 0 0 0 0 0 0 0 0 0 0 0 0 -1 0 0 0 0 0 0 0 0 0 0 0 0 0 0 0 0 0 0 1 0 0 0 0 0 0 0 0 0 0 0 0 0 0 0 0 0 0 0 0 0 0 0 0 0 0 0 0 0 0 0 0 0 0 0 0 0 0 0 0 0 0 0 1 0 0 0 0 0 0 0 0 0 0 0 0 0 0 0 0 0 0 0 0 0 0 0 0 0 0 0 0 0 0 0 0 0 0 0 0 0 1 0 0 0 0 0 0 0 0 0 0 0 0 0 0 0 0 0 0 0 0 0 0 -1 0 0 0 0 0 0 0 0 0 0 0 0c3,0 5,-1 5,-3l0 -1 0 -4 0 -6 0 -4 0 -11 -5 0 0 0c-1,0 -1,0 -1,0l0 0c0,0 0,0 0,0l0 0 0 0 0 0 0 0 0 0 0 0 -1 0 0 0 0 0 0 0 0 0 0 -1c0,0 0,0 0,0l0 0 0 0 0 0 0 0 0 0 0 0 0 0 0 0 0 0c0,0 0,0 0,0l0 0 0 0 0 0 -1 0 0 0 0 0 0 0 0 0 0 0 0 0 0 0 0 0 0 0 0 0 0 0 0 0 0 0 0 0 0 -1 0 0 0 0 0 0 0 0 0 0 0 0 0 0 0 0c-2,-2 -1,-7 3,-7l5 0 5 0 2 0 9 0 0 68 17 0 0 285 -58 0 0 -4 0 -11 0 -6 0 -7 0 -14 0 -7 0 -20 0 -6 0 -15 0 -7 0 -23 0 -7 0 -14 0 -7 0 -21 0 -7 0 -14 0 -7 0 -23 0 -7 0 -3 0 -9 0 -2 0 -2 0 -5 0 -12 0 0 0 -4 0 -3 0 -5 0 -13 0 -4 0 -3 0 0 0 0 0 0 0 0 0 0 0 0 0 0 0 0 0 0 0 0 0 0 0 0 0 0 0 0 0 0 0 0 0 0 0 0 0 0 0 0 0 0 0 0 0 0 0 0 0 0 0 0 0 0 0 0 0 0 0 0 0 0 0 0 0 0 0 0 0 0 0 0 0 0 0 0 0 0 0 0 0 0 0 0 0 0 0 0 0 0 0 0 0 0 0 0 0 -1 0 0 0 0 0 0 0 0 0 0 0 0 0 0 0 0 0 0 0 0 0 0 0 0c1,-3 1,-5 3,-7l0 0 0 0 0 0 0 -1 0 0 0 0 0 0 0 0 0 0 0 0 1 0 0 0 0 0 0 -1 0 0 0 0 0 0 0 0 0 0 0 0 0 0 0 0 0 0 0 0 0 -1 1 0 0 0 0 0 0 0 0 0 0 0 0 0 0 0 0 0 0 0 0 0 0 -1 0 0 1 0 0 0 0 0 0 0 0 0 0 0 0 0 0 0 0 0 0 0 1 -1 0 0 0 0 0 0 0 0 0 0 0 0 0 0 0 0 0 0 0 0 0 0 0 0 1 0 0 0 0 0 0 -1 0 0 0 0 0 0 0 0 0 0 0 0 0 0 1 0 0 0 0 0 0 0 0 0 0 0c0,0 0,0 1,0l0 -1 0 0 0 0 0 0 0 0c1,0 1,0 1,0l0 0c1,-1 2,-1 4,-1l0 0 0 0 0 0 0 0 0 0 0 0 0 0 0 0 0 0 0 0 0 0 0 0 0 0 0 0 0 0 0 0 0 0 0 0 0 0 0 0 0 0 0 0 0 0 1 0 0 0 0 0 0 0 0 0 0 0 0 0 0 0 0 0 0 0 0 0 0 0 0 0 0 0 0 0 0 0 0 0 0 0 1 0 -1 0 0 0 0 0 0 0 0 0 0 0 0 0 0 0 0 0 0 0 0 0 0 0 0 0 0 0 0 0 0 0 0 0 0 0 0 0 0 0 0 0 0 0 0 0 0 0 0 0 0 0 0 0 0 0 0 0 0 0 0 0 -1 -1 0 0 0 0 0 0 0 0 0 0 0 0 0 0 0 0 0 0 0 0 0 0 0 0 0 0 0 0 0 0 0 0 0 0 0 0 0 0 0 0 0 0 0 0 0 0 0 0 0 0 0 0 0 0 0 0 0 0 0 0 0 0 0 0 0 -1 0 0 0 0 0 0 0 0 0 0 0 0 0 0 0 0 0 0 0 0 0 0 0 0 0 0 0 0 0 0 0 0 0 0 0 0 0 0 0 0 0 0 0 0 0 0 0 0 0 0 0 0 0 0 0 0 0 0 0 0 0 -1 0 0 0 0 0 0 0 0 0 0 0 0 0 0 0 0 0 0 0 0 0 0 0 0 0 0 0 0 0 0 0 0 0 0 0 0 0 0 0 0 0 0 0 0 0 0 0 0 0 0 0 0 0 0 0 0 0 0 0 0 0 0 0 0 0 0 0 0 0 0 0 0 0 0 0 -1 0 0 0 0 0 0 0 0 0 0 0 0 0 0 0 0 0 0 0 0 0 0 0 0 0 0 0 0 0 0 0 0 0 0 0 0 0 0 0 0 0 0 0 0 0 0 0 0 0 0 0 0 0 0 0 0 0 0 0 0 0 0 0 0 0 0 0 0 0 0 0 0 0 0 0 0 0 0 0 0 0 0 0 0 1 0 0 0 0 0 0 0 0 0 0 0 0 0 0 0 0 0 0 0 0 0 0 -1 0 0 0 0 0 0 0 0 0 0 0 0 0 0 0 0 0 0 0 0 0 0 0 0 0 0 0 0 0 0 0 0 0 0 0 0 0 0 0 0 0 0 0 0 0 0 0 0 0 0 0 0 0 0 0 0 0 0 0 0 0 0 0 0 0 0 0 0 0 0 0 0 0 0 0 0 0 0 0 0 0 0 0 0 0 0 0 0 0 0 0 0 0 0 0 0zm0 -105c-5,-13 -6,-28 0,-43l0 43zm2 8c0,-1 0,-2 0,-2l3 0c0,0 0,0 0,0l0 2 2 0c2,0 4,1 4,4l0 3 14 0 0 26c-6,-11 -9,-12 -13,-18 -2,-2 -4,-5 -6,-8l0 0 0 0c-1,-2 -2,-5 -4,-7zm-9 104c0,0 0,0 1,0m7 -2l0 0 0 0"/>
    </g>
    <g id="_1595257142608">
     <path class="fil7" d="M172 262c4,-2 12,-2 12,-6l0 -34 -7 0c-6,0 -6,-11 0,-11l80 0 80 0c6,0 6,11 0,11l-7 0 0 34c0,4 7,4 11,6 3,2 2,7 0,7l-84 0 -85 0c-2,0 -3,-5 0,-7z"/>
     <path class="fil208" d="M184 222l-7 0c-6,0 -6,-11 0,-11l80 0 80 0c6,0 6,11 0,11l-7 0 -146 0z"/>
     <path class="fil209" d="M362 290l0 386 -211 0 0 -386c0,-11 10,-21 22,-21l168 0c11,0 21,10 21,21z"/>
     <g style="clip-path:url(#id1)">
      <g>
       <g>
        <g>
         <g>
          <polygon id="1" class="fil210" points="407,280 459,280 459,349 407,349 "/>
          <path id="2" class="fil211" d="M459 282l-52 0 0 -3 52 0 1 1 -1 2zm0 -3c1,0 1,1 1,1 0,1 0,2 -1,2l0 -3zm-2 70l0 -69 3 0 0 69 -1 1 -2 -1zm3 0c0,1 0,1 -1,1 -1,0 -2,0 -2,-1l3 0zm-53 -1l52 0 0 2 -52 0 -1 -1 1 -1zm0 2c-1,0 -1,0 -1,-1 0,-1 0,-1 1,-1l0 2zm2 -70l0 69 -3 0 0 -69 1 -1 2 1zm-3 0c0,0 0,-1 1,-1 1,0 2,1 2,1l-3 0z"/>
         </g>
         <g>
          <polygon class="fil212" points="407,349 459,349 459,418 407,418 "/>
          <path id="1" class="fil211" d="M459 350l-52 0 0 -2 52 0 1 1 -1 1zm0 -2c1,0 1,0 1,1 0,1 0,1 -1,1l0 -2zm-2 70l0 -69 3 0 0 69 -1 1 -2 -1zm3 0c0,1 0,1 -1,1 -1,0 -2,0 -2,-1l3 0zm-53 -2l52 0 0 3 -52 0 -1 -1 1 -2zm0 3c-1,0 -1,0 -1,-1 0,-1 0,-2 1,-2l0 3zm2 -70l0 69 -3 0 0 -69 1 -1 2 1zm-3 0c0,-1 0,-1 1,-1 1,0 2,0 2,1l-3 0z"/>
         </g>
         <g>
          <polygon class="fil213" points="407,418 459,418 459,486 407,486 "/>
          <path id="1" class="fil211" d="M459 419l-52 0 0 -3 52 0 1 2 -1 1zm0 -3c1,0 1,1 1,2 0,1 0,1 -1,1l0 -3zm-2 70l0 -68 3 0 0 68 -1 2 -2 -2zm3 0c0,1 0,2 -1,2 -1,0 -2,-1 -2,-2l3 0zm-53 -1l52 0 0 3 -52 0 -1 -2 1 -1zm0 3c-1,0 -1,-1 -1,-2 0,0 0,-1 1,-1l0 3zm2 -70l0 68 -3 0 0 -68 1 -2 2 2zm-3 0c0,-1 0,-2 1,-2 1,0 2,1 2,2l-3 0z"/>
         </g>
         <g>
          <polygon class="fil214" points="407,486 459,486 459,555 407,555 "/>
          <path id="1" class="fil211" d="M459 488l-52 0 0 -3 52 0 1 1 -1 2zm0 -3c1,0 1,1 1,1 0,1 0,2 -1,2l0 -3zm-2 70l0 -69 3 0 0 69 -1 2 -2 -2zm3 0c0,1 0,2 -1,2 -1,0 -2,-1 -2,-2l3 0zm-53 -1l52 0 0 3 -52 0 -1 -2 1 -1zm0 3c-1,0 -1,-1 -1,-2 0,-1 0,-1 1,-1l0 3zm2 -71l0 69 -3 0 0 -69 1 -1 2 1zm-3 0c0,0 0,-1 1,-1 1,0 2,1 2,1l-3 0z"/>
         </g>
         <g>
          <polygon class="fil215" points="407,555 459,555 459,608 407,608 "/>
          <path id="1" class="fil211" d="M459 557l-52 0 0 -3 52 0 1 1 -1 2zm0 -3c1,0 1,0 1,1 0,1 0,2 -1,2l0 -3zm-2 54l0 -53 3 0 0 53 -1 2 -2 -2zm3 0c0,1 0,2 -1,2 -1,0 -2,-1 -2,-2l3 0zm-53 -1l52 0 0 3 -52 0 -1 -2 1 -1zm0 3c-1,0 -1,-1 -1,-2 0,-1 0,-1 1,-1l0 3zm2 -55l0 53 -3 0 0 -53 1 -1 2 1zm-3 0c0,-1 0,-1 1,-1 1,0 2,0 2,1l-3 0z"/>
         </g>
        </g>
        <g>
         <g>
          <polygon class="fil216" points="511,280 562,280 562,349 511,349 "/>
          <path id="1" class="fil211" d="M562 282l-51 0 0 -3 51 0 2 1 -2 2zm0 -3c1,0 2,1 2,1 0,1 -1,2 -2,2l0 -3zm-1 70l0 -69 3 0 0 69 -2 1 -1 -1zm3 0c0,1 -1,1 -2,1 0,0 -1,0 -1,-1l3 0zm-53 -1l51 0 0 2 -51 0 -2 -1 2 -1zm0 2c-1,0 -2,0 -2,-1 0,-1 1,-1 2,-1l0 2zm1 -70l0 69 -3 0 0 -69 2 -1 1 1zm-3 0c0,0 1,-1 2,-1 0,0 1,1 1,1l-3 0z"/>
         </g>
         <g>
          <polygon class="fil217" points="511,349 562,349 562,418 511,418 "/>
          <path id="1" class="fil211" d="M562 350l-51 0 0 -2 51 0 2 1 -2 1zm0 -2c1,0 2,0 2,1 0,1 -1,1 -2,1l0 -2zm-1 70l0 -69 3 0 0 69 -2 1 -1 -1zm3 0c0,1 -1,1 -2,1 0,0 -1,0 -1,-1l3 0zm-53 -2l51 0 0 3 -51 0 -2 -1 2 -2zm0 3c-1,0 -2,0 -2,-1 0,-1 1,-2 2,-2l0 3zm1 -70l0 69 -3 0 0 -69 2 -1 1 1zm-3 0c0,-1 1,-1 2,-1 0,0 1,0 1,1l-3 0z"/>
         </g>
         <g>
          <polygon class="fil218" points="511,418 562,418 562,486 511,486 "/>
          <path id="1" class="fil211" d="M562 419l-51 0 0 -3 51 0 2 2 -2 1zm0 -3c1,0 2,1 2,2 0,1 -1,1 -2,1l0 -3zm-1 70l0 -68 3 0 0 68 -2 2 -1 -2zm3 0c0,1 -1,2 -2,2 0,0 -1,-1 -1,-2l3 0zm-53 -1l51 0 0 3 -51 0 -2 -2 2 -1zm0 3c-1,0 -2,-1 -2,-2 0,0 1,-1 2,-1l0 3zm1 -70l0 68 -3 0 0 -68 2 -2 1 2zm-3 0c0,-1 1,-2 2,-2 0,0 1,1 1,2l-3 0z"/>
         </g>
         <g>
          <polygon class="fil219" points="511,486 562,486 562,555 511,555 "/>
          <path id="1" class="fil211" d="M562 488l-51 0 0 -3 51 0 2 1 -2 2zm0 -3c1,0 2,1 2,1 0,1 -1,2 -2,2l0 -3zm-1 70l0 -69 3 0 0 69 -2 2 -1 -2zm3 0c0,1 -1,2 -2,2 0,0 -1,-1 -1,-2l3 0zm-53 -1l51 0 0 3 -51 0 -2 -2 2 -1zm0 3c-1,0 -2,-1 -2,-2 0,-1 1,-1 2,-1l0 3zm1 -71l0 69 -3 0 0 -69 2 -1 1 1zm-3 0c0,0 1,-1 2,-1 0,0 1,1 1,1l-3 0z"/>
         </g>
         <g>
          <polygon class="fil220" points="511,555 562,555 562,608 511,608 "/>
          <path id="1" class="fil211" d="M562 557l-51 0 0 -3 51 0 2 1 -2 2zm0 -3c1,0 2,0 2,1 0,1 -1,2 -2,2l0 -3zm-1 54l0 -53 3 0 0 53 -2 2 -1 -2zm3 0c0,1 -1,2 -2,2 0,0 -1,-1 -1,-2l3 0zm-53 -1l51 0 0 3 -51 0 -2 -2 2 -1zm0 3c-1,0 -2,-1 -2,-2 0,-1 1,-1 2,-1l0 3zm1 -55l0 53 -3 0 0 -53 2 -1 1 1zm-3 0c0,-1 1,-1 2,-1 0,0 1,0 1,1l-3 0z"/>
         </g>
        </g>
        <g>
         <g>
          <g>
           <polygon class="fil221" points="511,315 459,315 459,280 511,280 "/>
           <path id="1" class="fil211" d="M459 313l52 0 0 3 -52 0 -2 -1 2 -2zm0 3c-1,0 -2,-1 -2,-1 0,-1 1,-2 2,-2l0 3zm1 -36l0 35 -3 0 0 -35 2 -1 1 1zm-3 0c0,0 1,-1 2,-1 1,0 1,1 1,1l-3 0zm54 2l-52 0 0 -3 52 0 1 1 -1 2zm0 -3c0,0 1,1 1,1 0,1 -1,2 -1,2l0 -3zm-2 36l0 -35 3 0 0 35 -1 1 -2 -1zm3 0c0,0 -1,1 -1,1 -1,0 -2,-1 -2,-1l3 0z"/>
          </g>
          <g>
           <polygon class="fil222" points="459,315 511,315 511,383 459,383 "/>
           <path id="1" class="fil211" d="M511 316l-52 0 0 -3 52 0 1 2 -1 1zm0 -3c0,0 1,1 1,2 0,0 -1,1 -1,1l0 -3zm-2 70l0 -68 3 0 0 68 -1 2 -2 -2zm3 0c0,1 -1,2 -1,2 -1,0 -2,-1 -2,-2l3 0zm-53 -1l52 0 0 3 -52 0 -2 -2 2 -1zm0 3c-1,0 -2,-1 -2,-2 0,0 1,-1 2,-1l0 3zm1 -70l0 68 -3 0 0 -68 2 -2 1 2zm-3 0c0,-1 1,-2 2,-2 1,0 1,1 1,2l-3 0z"/>
          </g>
          <g>
           <polygon class="fil223" points="459,383 511,383 511,452 459,452 "/>
           <path id="1" class="fil211" d="M511 385l-52 0 0 -3 52 0 1 1 -1 2zm0 -3c0,0 1,1 1,1 0,1 -1,2 -1,2l0 -3zm-2 70l0 -69 3 0 0 69 -1 1 -2 -1zm3 0c0,1 -1,1 -1,1 -1,0 -2,0 -2,-1l3 0zm-53 -1l52 0 0 2 -52 0 -2 -1 2 -1zm0 2c-1,0 -2,0 -2,-1 0,-1 1,-1 2,-1l0 2zm1 -70l0 69 -3 0 0 -69 2 -1 1 1zm-3 0c0,0 1,-1 2,-1 1,0 1,1 1,1l-3 0z"/>
          </g>
          <g>
           <polygon class="fil224" points="459,452 511,452 511,521 459,521 "/>
           <path id="1" class="fil211" d="M511 453l-52 0 0 -2 52 0 1 1 -1 1zm0 -2c0,0 1,0 1,1 0,1 -1,1 -1,1l0 -2zm-2 70l0 -69 3 0 0 69 -1 1 -2 -1zm3 0c0,1 -1,1 -1,1 -1,0 -2,0 -2,-1l3 0zm-53 -2l52 0 0 3 -52 0 -2 -1 2 -2zm0 3c-1,0 -2,0 -2,-1 0,-1 1,-2 2,-2l0 3zm1 -70l0 69 -3 0 0 -69 2 -1 1 1zm-3 0c0,-1 1,-1 2,-1 1,0 1,0 1,1l-3 0z"/>
          </g>
          <g>
           <polygon class="fil225" points="459,521 511,521 511,589 459,589 "/>
           <path id="1" class="fil211" d="M511 522l-52 0 0 -3 52 0 1 2 -1 1zm0 -3c0,0 1,1 1,2 0,1 -1,1 -1,1l0 -3zm-2 70l0 -68 3 0 0 68 -1 2 -2 -2zm3 0c0,1 -1,2 -1,2 -1,0 -2,-1 -2,-2l3 0zm-53 -1l52 0 0 3 -52 0 -2 -2 2 -1zm0 3c-1,0 -2,-1 -2,-2 0,0 1,-1 2,-1l0 3zm1 -70l0 68 -3 0 0 -68 2 -2 1 2zm-3 0c0,-1 1,-2 2,-2 1,0 1,1 1,2l-3 0z"/>
          </g>
          <g>
           <polygon class="fil226" points="459,589 511,589 511,608 459,608 "/>
           <path id="1" class="fil211" d="M511 591l-52 0 0 -3 52 0 1 1 -1 2zm0 -3c0,0 1,1 1,1 0,1 -1,2 -1,2l0 -3zm-2 20l0 -19 3 0 0 19 -1 2 -2 -2zm3 0c0,1 -1,2 -1,2 -1,0 -2,-1 -2,-2l3 0zm-53 -1l52 0 0 3 -52 0 -2 -2 2 -1zm0 3c-1,0 -2,-1 -2,-2 0,-1 1,-1 2,-1l0 3zm1 -21l0 19 -3 0 0 -19 2 -1 1 1zm-3 0c0,0 1,-1 2,-1 1,0 1,1 1,1l-3 0z"/>
          </g>
         </g>
         <g>
          <g>
           <polygon class="fil227" points="511,280 511,315 511,315 511,280 "/>
           <path id="1" class="fil211" d="M509 315l0 -35 3 0 0 35 -1 1 -2 -1zm3 0c0,0 -1,1 -1,1 -1,0 -2,-1 -2,-1l3 0zm-1 -2l0 0 0 3 0 0 -2 -1 2 -2zm0 3c-1,0 -2,-1 -2,-1 0,-1 1,-2 2,-2l0 3zm1 -36l0 35 -3 0 0 -35 2 -1 1 1zm-3 0c0,0 1,-1 2,-1 0,0 1,1 1,1l-3 0zm2 2l0 0 0 -3 0 0 1 1 -1 2zm0 -3c0,0 1,1 1,1 0,1 -1,2 -1,2l0 -3z"/>
          </g>
          <g>
           <polygon class="fil228" points="511,315 511,315 511,383 511,383 "/>
           <path id="1" class="fil211" d="M511 316l0 0 0 -3 0 0 1 2 -1 1zm0 -3c0,0 1,1 1,2 0,0 -1,1 -1,1l0 -3zm-2 70l0 -68 3 0 0 68 -1 2 -2 -2zm3 0c0,1 -1,2 -1,2 -1,0 -2,-1 -2,-2l3 0zm-1 -1l0 0 0 3 0 0 -2 -2 2 -1zm0 3c-1,0 -2,-1 -2,-2 0,0 1,-1 2,-1l0 3zm1 -70l0 68 -3 0 0 -68 2 -2 1 2zm-3 0c0,-1 1,-2 2,-2 0,0 1,1 1,2l-3 0z"/>
          </g>
          <g>
           <polygon class="fil229" points="511,383 511,383 511,452 511,452 "/>
           <path id="1" class="fil211" d="M511 385l0 0 0 -3 0 0 1 1 -1 2zm0 -3c0,0 1,1 1,1 0,1 -1,2 -1,2l0 -3zm-2 70l0 -69 3 0 0 69 -1 1 -2 -1zm3 0c0,1 -1,1 -1,1 -1,0 -2,0 -2,-1l3 0zm-1 -1l0 0 0 2 0 0 -2 -1 2 -1zm0 2c-1,0 -2,0 -2,-1 0,-1 1,-1 2,-1l0 2zm1 -70l0 69 -3 0 0 -69 2 -1 1 1zm-3 0c0,0 1,-1 2,-1 0,0 1,1 1,1l-3 0z"/>
          </g>
          <g>
           <polygon class="fil230" points="511,452 511,452 511,521 511,521 "/>
           <path id="1" class="fil211" d="M511 453l0 0 0 -2 0 0 1 1 -1 1zm0 -2c0,0 1,0 1,1 0,1 -1,1 -1,1l0 -2zm-2 70l0 -69 3 0 0 69 -1 1 -2 -1zm3 0c0,1 -1,1 -1,1 -1,0 -2,0 -2,-1l3 0zm-1 -2l0 0 0 3 0 0 -2 -1 2 -2zm0 3c-1,0 -2,0 -2,-1 0,-1 1,-2 2,-2l0 3zm1 -70l0 69 -3 0 0 -69 2 -1 1 1zm-3 0c0,-1 1,-1 2,-1 0,0 1,0 1,1l-3 0z"/>
          </g>
          <g>
           <polygon class="fil231" points="511,521 511,521 511,589 511,589 "/>
           <path id="1" class="fil211" d="M511 522l0 0 0 -3 0 0 1 2 -1 1zm0 -3c0,0 1,1 1,2 0,1 -1,1 -1,1l0 -3zm-2 70l0 -68 3 0 0 68 -1 2 -2 -2zm3 0c0,1 -1,2 -1,2 -1,0 -2,-1 -2,-2l3 0zm-1 -1l0 0 0 3 0 0 -2 -2 2 -1zm0 3c-1,0 -2,-1 -2,-2 0,0 1,-1 2,-1l0 3zm1 -70l0 68 -3 0 0 -68 2 -2 1 2zm-3 0c0,-1 1,-2 2,-2 0,0 1,1 1,2l-3 0z"/>
          </g>
          <g>
           <polygon class="fil232" points="511,589 511,589 511,608 511,608 "/>
           <path id="1" class="fil211" d="M511 591l0 0 0 -3 0 0 1 1 -1 2zm0 -3c0,0 1,1 1,1 0,1 -1,2 -1,2l0 -3zm-2 20l0 -19 3 0 0 19 -1 2 -2 -2zm3 0c0,1 -1,2 -1,2 -1,0 -2,-1 -2,-2l3 0zm-1 -1l0 0 0 3 0 0 -2 -2 2 -1zm0 3c-1,0 -2,-1 -2,-2 0,-1 1,-1 2,-1l0 3zm1 -21l0 19 -3 0 0 -19 2 -1 1 1zm-3 0c0,0 1,-1 2,-1 0,0 1,1 1,1l-3 0z"/>
          </g>
         </g>
        </g>
       </g>
      </g>
     </g>
     <path class="fil233" d="M362 290l0 386 -211 0 0 -386c0,-11 10,-21 22,-21l168 0c11,0 21,10 21,21z"/>
     <circle class="fil234" cx="204" cy="242" r="7"/>
     <circle class="fil234" cx="231" cy="242" r="7"/>
     <circle class="fil234" cx="257" cy="242" r="7"/>
     <circle class="fil234" cx="284" cy="242" r="7"/>
     <circle class="fil234" cx="310" cy="242" r="7"/>
     <path class="fil235" d="M192 582l0 -278c0,-5 -4,-8 -8,-8l-2 0c-4,0 -8,3 -8,8l0 278 18 0z"/>
     <path class="fil235" d="M230 547l0 -243c0,-5 -4,-8 -8,-8l-2 0c-4,0 -7,3 -7,8l0 243 17 0z"/>
     <path class="fil235" d="M268 547l0 -243c0,-5 -3,-8 -8,-8l-2 0c-4,0 -7,3 -7,8l0 243 17 0z"/>
     <path class="fil235" d="M306 547l0 -243c0,-5 -3,-8 -7,-8l-3 0c-4,0 -7,3 -7,8l0 243 17 0z"/>
     <path class="fil235" d="M344 582l0 -278c0,-5 -3,-8 -7,-8l-3 0c-4,0 -7,3 -7,8l0 278 17 0z"/>
     <rect class="fil235" x="151" y="666" width="210.749" height="9.88003"/>
     <rect class="fil235" x="259" y="592" width="35.9547" height="84.1641"/>
     <rect class="fil236" x="259" y="592" width="26.0108" height="84.1641"/>
     <rect class="fil235" x="223" y="592" width="35.9547" height="84.1641"/>
     <rect class="fil236" x="233" y="592" width="26.0108" height="84.1641"/>
     <polygon class="fil234" points="259,592 261,592 261,676 259,676 258,676 258,592 "/>
     <g>
      <path class="fil237" d="M240 210l-9 -66c-8,-2 -13,-5 -16,-9 -4,-5 -4,-10 -1,-14 2,-5 7,-7 12,-5 4,1 7,4 9,12l0 0 2 11c4,1 11,1 18,1 8,0 14,0 19,-1l2 -11 0 0c1,-8 5,-11 9,-12 5,-2 9,0 12,5 2,4 3,9 -1,14 -3,3 -8,7 -16,9l-9 67 -1 0 -5 0 9 -66c-6,1 -12,1 -19,1 -7,0 -13,0 -18,-1l9 65 -3 0 -3 0zm-10 -73l-1 -8c-1,-5 -3,-7 -5,-8 -2,0 -4,1 -5,3 -2,2 -2,5 0,7 2,3 6,5 11,6zm51 0c5,-1 8,-4 10,-6 2,-2 2,-5 1,-7 -1,-2 -3,-3 -5,-3 -2,1 -4,3 -5,8l-1 8z"/>
      <path class="fil238" d="M218 211l25 -1 27 1 24 0c14,-4 3,-19 21,-43 1,-2 3,-5 4,-6 2,-3 3,-3 6,-6 14,-20 23,-38 20,-65 -7,-90 -126,-113 -168,-34 -19,34 -11,71 10,99 6,7 10,9 18,25 2,5 4,11 5,16 1,10 0,11 8,14z"/>
      <path class="fil233 str0" d="M308 51c3,3 4,5 7,9"/>
      <path class="fil233 str0" d="M321 70c9,18 8,36 4,56"/>
     </g>
    </g>
   </g>
   <g>
    <circle class="fil239" cx="92" cy="728" r="21"/>
    <polygon class="fil240" points="91,714 90,777 92,777 94,777 92,714 92,714 "/>
    <rect class="fil240" transform="matrix(0.0229844 0.0229844 -0.0286018 0.0286018 101.403 731.394)" width="34.9998" height="340.002"/>
    <rect class="fil240" transform="matrix(-0.0229844 0.0229844 0.0286018 0.0286018 82.4098 731.394)" width="34.9998" height="340.002"/>
   </g>
   <g>
    <path class="fil241" d="M415 556l-3 -55 -2 55c-18,0 -23,-18 -12,-25l0 -14c0,-4 7,-7 7,-11 1,-6 -1,-17 7,-17 9,0 7,11 7,17 0,4 7,7 7,11l0 14c12,7 7,25 -11,25z"/>
    <polygon class="fil240" points="411,501 409,572 412,572 416,572 413,501 412,501 "/>
    <rect class="fil240" transform="matrix(0.0210807 0.0210807 -0.0262329 0.0262329 420.876 516.182)" width="34.9998" height="340.002"/>
    <rect class="fil240" transform="matrix(0.032624 0.032624 -0.0405975 0.0405975 425.76 536.615)" width="34.9998" height="340.002"/>
    <rect class="fil240" transform="matrix(-0.0210807 0.0210807 0.0262329 0.0262329 403.685 516.182)" width="34.9998" height="340.002"/>
    <rect class="fil240" transform="matrix(-0.032624 0.032624 0.0405975 0.0405975 398.801 536.615)" width="34.9998" height="340.002"/>
   </g>
   <g>
    <path class="fil242" d="M322 766c0,-9 -11,-17 -24,-17 -14,0 -25,8 -25,17l49 0z"/>
    <path class="fil243" d="M262 657l107 0c2,0 3,1 3,3l0 44c0,2 -1,3 -3,3l-107 0c-2,0 -4,-1 -4,-3l0 -44c0,-2 2,-3 4,-3z"/>
    <path class="fil241" d="M372 701l-114 0 0 -41c0,-2 2,-3 4,-3l107 0c2,0 3,1 3,3l0 41z"/>
    <polygon class="fil244" points="262,698 262,698 262,698 262,661 262,661 368,661 368,661 368,698 "/>
    <rect class="fil245" x="294" y="707" width="7.36236" height="59.5154"/>
    <polygon class="fil241" points="294,707 294,715 301,711 301,707 "/>
    <rect class="fil245" x="327" y="707" width="7.36236" height="59.5154"/>
    <polygon class="fil241" points="327,707 327,715 335,711 335,707 "/>
    <path class="fil236" d="M344 766c0,-5 -7,-9 -14,-9 -8,0 -14,4 -14,9l28 0z"/>
   </g>
  </g>
 </g>
</svg>
